SplineFontDB: 3.2
FontName: Caudex-Regular
FullName: Caudex Regular
FamilyName: Caudex
Weight: Book
Copyright: Copyright (c) The Caudex Contributors (https://github.com/nidud/caudex)
Version: 1.08
ItalicAngle: 0
UnderlinePosition: -100
UnderlineWidth: 30
Ascent: 1638
Descent: 410
InvalidEm: 0
LayerCount: 2
Layer: 0 1 "Back" 1
Layer: 1 1 "Fore" 0
XUID: [1021 997 1545580258 7013116]
FSType: 0
OS2Version: 0
OS2_WeightWidthSlopeOnly: 0
OS2_UseTypoMetrics: 1
CreationTime: 936868149
ModificationTime: 1703730435
PfmFamily: 17
TTFWeight: 400
TTFWidth: 5
LineGap: 0
VLineGap: 0
Panose: 2 4 5 2 5 5 5 3 3 4
OS2TypoAscent: 396
OS2TypoAOffset: 1
OS2TypoDescent: -196
OS2TypoDOffset: 1
OS2TypoLinegap: 0
OS2WinAscent: 0
OS2WinAOffset: 1
OS2WinDescent: 0
OS2WinDOffset: 1
HheadAscent: 0
HheadAOffset: 1
HheadDescent: 0
HheadDOffset: 1
OS2SubXSize: 1285
OS2SubYSize: 1230
OS2SubXOff: 0
OS2SubYOff: 0
OS2SupXSize: 655
OS2SupYSize: 860
OS2SupXOff: 0
OS2SupYOff: 550
OS2StrikeYSize: 100
OS2StrikeYPos: 530
OS2FamilyClass: 260
OS2Vendor: 'PfEd'
Lookup: 258 0 0 "'kern' Horizontal Kerning in Latin lookup 0" { "'kern' Horizontal Kerning in Latin lookup 0 subtable" [307,0,0] } ['kern' ('grek' <'dflt' > 'latn' <'dflt' > ) ]
MarkAttachClasses: 1
DEI: 91125
KernClass2: 18 19 "'kern' Horizontal Kerning in Latin lookup 0 subtable"
 148 A Agrave Aacute Acircumflex Atilde Adieresis Aring Amacron Abreve Aogonek Aringacute uni1EA0 uni1EA2 uni1EA4 uni1EA6 uni1EA8 uni1EAA uni1EAC uni1EAE
 17 F uni03DC uni1E1E
 32 L Lacute uniE19E uni1E36 uniA748
 41 P uni1E54 uni1E56 uniA750 uniA752 uniA754
 31 R Racute Rcaron uni1E58 uni1E5A
 24 T Tcaron uni1E6A uni1E6C
 71 V W Wcircumflex uni1E7E Wgrave Wacute Wdieresis uni1E86 uni1E88 uniA760
 54 Y Ycircumflex Ydieresis uni0232 Ygrave uni1EF4 uni1EF6
 9 r uni1E5B
 87 v w wcircumflex uni1D20 uni1D21 uni1E7F wgrave wacute wdieresis uni1E87 uni1E89 uniA761
 28 y ycircumflex uni1E8F ygrave
 12 quotedblbase
 9 quoteleft
 10 quoteright
 12 quotedblleft
 14 quotesinglbase

StartChar: .notdef
Encoding: 65536 -1 0
Width: 772
Flags: W
LayerCount: 2
Fore
SplineSet
0 1404 m 1,0,-1
 772 1404 l 1,1,-1
 772 0 l 1,2,-1
 0 0 l 1,3,-1
 0 1404 l 1,0,-1
272 244 m 2,5,-1
 272 175 l 2,6,7
 272 102 272 102 364 102 c 256,8,9
 456 102 456 102 456 175 c 2,10,-1
 456 244 l 2,11,12
 456 317 456 317 364 317 c 256,13,4
 272 317 272 317 272 244 c 2,5,-1
399 504 m 2,14,-1
 402 653 l 2,15,16
 403 713 403 713 420 744 c 0,17,18
 436 773 436 773 487 805 c 0,19,20
 508 819 508 819 524 829 c 0,21,22
 668 917 668 917 668 1059 c 0,23,24
 668 1172 668 1172 593 1237 c 0,25,26
 517 1302 517 1302 383 1302 c 0,27,28
 253 1302 253 1302 179 1235 c 1,29,30
 104 1169 104 1169 104 1054 c 0,31,32
 104 1028 104 1028 118 1016 c 0,33,34
 132 1005 132 1005 162 1005 c 0,35,36
 188 1005 188 1005 206 1016 c 0,37,38
 221 1026 221 1026 223 1046 c 0,39,40
 232 1162 232 1162 264 1204 c 1,41,42
 295 1248 295 1248 363 1248 c 0,43,44
 440 1248 440 1248 480 1201 c 1,45,46
 518 1154 518 1154 518 1059 c 0,47,48
 518 971 518 971 478 908 c 1,49,50
 436 844 436 844 331 771 c 1,51,-1
 331 505 l 2,52,53
 331 464 331 464 341 436 c 0,54,55
 349 411 349 411 364 411 c 0,56,57
 381 411 381 411 390 433 c 256,58,59
 399 455 399 455 399 504 c 2,14,-1
EndSplineSet
Validated: 1
EndChar

StartChar: exclam
Encoding: 33 33 4
Width: 550
Flags: W
HStem: -25 255<155.701 358.299> 1385 20G<190.5 327>
VStem: 147 220<-12.9062 217.766 1152.2 1399.78>
LayerCount: 2
Fore
SplineSet
257 230 m 128,-1,1
 367 230 367 230 367 143 c 2,2,-1
 367 61 l 2,3,4
 367 -25 367 -25 257 -25 c 128,-1,5
 147 -25 147 -25 147 61 c 2,6,-1
 147 143 l 2,7,0
 147 230 147 230 257 230 c 128,-1,1
294 375 m 1,8,9
 294 351 294 351 269 351 c 2,10,-1
 248 351 l 2,11,12
 224 351 224 351 224 375 c 1,13,-1
 154 1330 l 1,14,-1
 154 1340 l 2,15,16
 154 1405 154 1405 227 1405 c 2,17,-1
 290 1405 l 2,18,19
 364 1405 364 1405 364 1339 c 2,20,-1
 364 1330 l 1,21,-1
 294 375 l 1,8,9
EndSplineSet
Validated: 1
EndChar

StartChar: numbersign
Encoding: 35 35 5
Width: 1100
Flags: W
HStem: 0 21G<248 343 540.5 635.5> 382 105<32.0654 309 432 601 725 1006.88> 762 105<98.0654 375 498 667 791 1072.88>
LayerCount: 2
Fore
SplineSet
246 19 m 2,0,-1
 309 382 l 1,1,-1
 30 382 l 2,2,3
 16 382 16 382 17 392 c 2,4,-1
 32 477 l 2,5,6
 34 487 34 487 48 487 c 2,7,-1
 327 487 l 1,8,-1
 375 762 l 1,9,-1
 96 762 l 2,10,11
 82 762 82 762 83 772 c 2,12,-1
 98 857 l 2,13,14
 100 867 100 867 114 867 c 2,15,-1
 393 867 l 1,16,-1
 456 1230 l 2,17,18
 459 1247 459 1247 469 1247 c 2,19,-1
 554 1247 l 2,20,21
 564 1247 564 1247 561 1230 c 2,22,-1
 498 867 l 1,23,-1
 685 867 l 1,24,-1
 748 1230 l 2,25,26
 751 1247 751 1247 762 1247 c 2,27,-1
 846 1247 l 2,28,29
 857 1247 857 1247 854 1230 c 2,30,-1
 791 867 l 1,31,-1
 1069 867 l 2,32,33
 1084 867 1084 867 1082 857 c 2,34,-1
 1067 772 l 2,35,36
 1066 762 1066 762 1051 762 c 2,37,-1
 773 762 l 1,38,-1
 725 487 l 1,39,-1
 1003 487 l 2,40,41
 1018 487 1018 487 1016 477 c 2,42,-1
 1001 392 l 2,43,44
 1000 382 1000 382 985 382 c 2,45,-1
 707 382 l 1,46,-1
 644 19 l 2,47,48
 641 0 641 0 630 0 c 2,49,-1
 546 0 l 2,50,51
 535 0 535 0 538 19 c 2,52,-1
 601 382 l 1,53,-1
 414 382 l 1,54,-1
 351 19 l 2,55,56
 348 0 348 0 338 0 c 2,57,-1
 253 0 l 2,58,59
 243 0 243 0 246 19 c 2,0,-1
480 762 m 1,60,-1
 432 487 l 1,61,-1
 619 487 l 1,62,-1
 667 762 l 1,63,-1
 480 762 l 1,60,-1
EndSplineSet
Validated: 1
EndChar

StartChar: dollar
Encoding: 36 36 6
Width: 1100
Flags: W
HStem: -40 93<269.316 492> 1359 90<382.193 492 584 719.516>
VStem: 76 171<928.232 1214.33> 492 92<-166 -40 59 639 835 1354 1446.04 1574> 857 174<262 531.286>
LayerCount: 2
Fore
SplineSet
857 388 m 2,0,-1
 857 399 l 1,1,2
 854 511 854 511 771 572 c 0,3,4
 740 595 740 595 653 622 c 0,5,6
 621 632 621 632 584 639 c 1,7,-1
 584 59 l 1,8,9
 626 66 626 66 690 98 c 0,10,11
 766 136 766 136 811 208 c 0,12,13
 857 283 857 283 857 388 c 2,0,-1
584 1449 m 1,14,15
 801 1437 801 1437 954 1338 c 1,16,-1
 930 1128 l 2,17,18
 928 1110 928 1110 911 1110 c 2,19,-1
 907 1110 l 1,20,21
 895 1111 895 1111 882 1138 c 0,22,23
 839 1229 839 1229 757 1292 c 0,24,25
 677 1354 677 1354 584 1359 c 1,26,-1
 584 820 l 1,27,28
 624 814 624 814 672 806 c 0,29,30
 734 797 734 797 816 772 c 0,31,32
 896 748 896 748 938 700 c 0,33,34
 981 653 981 653 1006 595.5 c 128,-1,35
 1031 538 1031 538 1031 459 c 0,36,37
 1031 243 1031 243 857 103 c 0,38,39
 770 33 770 33 668 0 c 0,40,41
 622 -15 622 -15 584 -26 c 1,42,-1
 584 -143 l 2,43,44
 584 -166 584 -166 560 -166 c 2,45,-1
 514 -166 l 2,46,47
 492 -166 492 -166 492 -143 c 2,48,-1
 492 -40 l 1,49,50
 468 -40 468 -40 452 -40 c 128,-1,51
 436 -40 436 -40 427 -40 c 0,52,53
 286 -40 286 -40 161 0 c 1,54,-1
 66 264 l 2,55,56
 64 269 64 269 64 276.5 c 128,-1,57
 64 284 64 284 71.5 295.5 c 128,-1,58
 79 307 79 307 92 307 c 1,59,60
 104 304 104 304 117 278 c 0,61,62
 181 139 181 139 269.5 96 c 128,-1,63
 358 53 358 53 481 53 c 0,64,65
 486 53 486 53 492 53 c 1,66,-1
 492 654 l 1,67,68
 478 655 478 655 462 657 c 0,69,70
 346 672 346 672 258 714 c 0,71,72
 164 759 164 759 120 840.5 c 128,-1,73
 76 922 76 922 76 1018 c 0,74,75
 76 1207 76 1207 208 1328 c 0,76,77
 323 1433 323 1433 492 1447 c 1,78,-1
 492 1551 l 2,79,80
 492 1574 492 1574 514 1574 c 2,81,-1
 560 1574 l 2,82,83
 584 1574 584 1574 584 1551 c 2,84,-1
 584 1449 l 1,14,15
492 1354 m 1,85,86
 447 1347 447 1347 412 1330 c 0,87,88
 353 1302 353 1302 326 1273.5 c 128,-1,89
 299 1245 299 1245 281 1208 c 128,-1,90
 263 1171 263 1171 255 1133 c 128,-1,91
 247 1095 247 1095 247 1061 c 128,-1,92
 247 1027 247 1027 259 994 c 1,93,94
 280 927 280 927 325 894.5 c 128,-1,95
 370 862 370 862 405.5 853 c 128,-1,96
 441 844 441 844 477 838 c 0,97,98
 484 836 484 836 492 835 c 1,99,-1
 492 1354 l 1,85,86
EndSplineSet
Validated: 1
EndChar

StartChar: percent
Encoding: 37 37 7
Width: 1300
Flags: W
HStem: -32 21G<166 270.755> -12 33<985.01 1104.05> 632 33<988.796 1111.71> 748 33<185.01 304.05> 1392 33<186.228 311.715>
VStem: 46 90<817.162 1350.97> 370 90<838.24 1334.28> 846 90<57.1621 590.315> 1170 90<78.2396 574.76>
LayerCount: 2
Fore
SplineSet
166 -32 m 1,0,-1
 1092 1420 l 1,1,-1
 1184 1420 l 1,2,-1
 258 -32 l 1,3,-1
 166 -32 l 1,0,-1
253 1392 m 1,4,5
 167 1392 167 1392 151.5 1322 c 128,-1,6
 136 1252 136 1252 136 1204 c 2,7,-1
 136 969 l 2,8,9
 136 921 136 921 152.5 851 c 128,-1,10
 169 781 169 781 240 781 c 128,-1,11
 311 781 311 781 340.5 836.5 c 128,-1,12
 370 892 370 892 370 969 c 2,13,-1
 370 1204 l 2,14,15
 370 1281 370 1281 344 1336 c 0,16,17
 318 1392 318 1392 256 1392 c 2,18,-1
 253 1392 l 1,4,5
254.5 1425 m 128,-1,20
 354 1425 354 1425 407 1363 c 128,-1,21
 460 1301 460 1301 460 1215 c 2,22,-1
 460 958 l 2,23,24
 460 871 460 871 399.5 809.5 c 128,-1,25
 339 748 339 748 242 748 c 128,-1,26
 145 748 145 748 95.5 810 c 128,-1,27
 46 872 46 872 46 958 c 2,28,-1
 46 1215 l 2,29,30
 46 1301 46 1301 100.5 1363 c 128,-1,19
 155 1425 155 1425 254.5 1425 c 128,-1,20
1053 632 m 1,31,32
 967 631 967 631 951.5 561.5 c 128,-1,33
 936 492 936 492 936 444 c 2,34,-1
 936 209 l 2,35,36
 936 161 936 161 952.5 91 c 128,-1,37
 969 21 969 21 1040 21 c 128,-1,38
 1111 21 1111 21 1140.5 76.5 c 128,-1,39
 1170 132 1170 132 1170 209 c 2,40,-1
 1170 444 l 2,41,42
 1170 521 1170 521 1144 576.5 c 128,-1,43
 1118 632 1118 632 1056 632 c 2,44,-1
 1053 632 l 1,31,32
1054.5 665 m 128,-1,46
 1154 665 1154 665 1207 603 c 128,-1,47
 1260 541 1260 541 1260 455 c 2,48,-1
 1260 198 l 2,49,50
 1260 111 1260 111 1199.5 49.5 c 128,-1,51
 1139 -12 1139 -12 1042 -12 c 128,-1,52
 945 -12 945 -12 895.5 50 c 128,-1,53
 846 112 846 112 846 198 c 2,54,-1
 846 455 l 2,55,56
 846 541 846 541 900.5 603 c 128,-1,45
 955 665 955 665 1054.5 665 c 128,-1,46
EndSplineSet
Validated: 1
EndChar

StartChar: ampersand
Encoding: 38 38 8
Width: 1292
Flags: W
HStem: -32 94<361.234 609.105> 0 21G<910.5 1176.5> 1236 66<473.896 667.32>
VStem: 113 159<160.132 429.375> 278 138<864.75 1166.87> 708 124<912.035 1207.42>
LayerCount: 2
Fore
SplineSet
877 302 m 1,0,-1
 996 155 l 1,1,2
 1045 91 1045 91 1152 41 c 0,3,4
 1179 29 1179 29 1186 17 c 1,5,6
 1188 11 1188 11 1188 8 c 1,7,8
 1186 4 1186 4 1186 3 c 0,9,10
 1181 0 1181 0 1172 0 c 2,11,-1
 928 0 l 2,12,13
 893 0 893 0 850 66 c 0,14,15
 816 118 816 118 782 158 c 1,16,17
 701 59 701 59 610 13 c 1,18,19
 518 -32 518 -32 403 -32 c 0,20,21
 267 -32 267 -32 186 49 c 1,22,23
 124 113 124 113 113 240 c 0,24,25
 112 252 112 252 113 264 c 0,26,27
 119 384 119 384 187 478 c 1,28,29
 250 570 250 570 403 672 c 1,30,31
 342 754 342 754 308 835 c 0,32,33
 285 887 285 887 278 982 c 0,34,35
 277 991 277 991 278 1009 c 0,36,37
 283 1141 283 1141 366 1223 c 0,38,39
 446 1302 446 1302 569 1302 c 0,40,41
 572 1302 572 1302 575 1302 c 0,42,43
 700 1302 700 1302 769 1236 c 0,44,45
 832 1176 832 1176 832 1079 c 2,46,-1
 832 1062 l 1,47,48
 825 957 825 957 764 875 c 0,49,50
 699 789 699 789 566 706 c 1,51,-1
 834 355 l 1,52,-1
 946 564 l 2,53,54
 954 580 954 580 956 597 c 0,55,56
 957 603 957 603 957 608 c 0,57,58
 957 618 957 618 954 627 c 0,59,60
 950 639 950 639 943.5 647 c 128,-1,61
 937 655 937 655 934 664 c 0,62,63
 933 668 933 668 933 671 c 2,64,-1
 933 674 l 2,65,66
 933 675 933 675 935 681 c 0,67,68
 942 700 942 700 956 700 c 2,69,-1
 1214 700 l 2,70,71
 1224 700 1224 700 1229 694 c 0,72,73
 1230 693 1230 693 1230 690 c 2,74,-1
 1230 688 l 2,75,76
 1230 685 1230 685 1229 681 c 1,77,78
 1223 670 1223 670 1195 656 c 0,79,80
 1180 649 1180 649 1162 641 c 128,-1,81
 1144 633 1144 633 1127 622 c 0,82,83
 1053 574 1053 574 1001 496 c 128,-1,84
 949 418 949 418 877 302 c 1,0,-1
527 759 m 1,85,86
 618 813 618 813 660 881 c 0,87,88
 701 948 701 948 708 1051 c 1,89,-1
 708 1066 l 2,90,91
 708 1134 708 1134 683 1183 c 0,92,93
 655 1236 655 1236 568 1236 c 0,94,95
 500 1236 500 1236 461 1191 c 1,96,97
 421 1143 421 1143 417 1062 c 0,98,99
 416 1051 416 1051 416 1041 c 0,100,101
 416 900 416 900 527 759 c 1,85,86
741 214 m 1,102,-1
 438 615 l 1,103,104
 281 501 281 501 273 337 c 0,105,106
 272 327 272 327 272 316 c 0,107,108
 272 214 272 214 328 142 c 0,109,110
 389 62 389 62 484 62 c 0,111,112
 565 62 565 62 628.5 106 c 128,-1,113
 692 150 692 150 741 214 c 1,102,-1
EndSplineSet
Validated: 1
EndChar

StartChar: quotesingle
Encoding: 39 39 9
Width: 426
Flags: W
LayerCount: 2
Fore
SplineSet
222 969 m 1,0,1
 222 957 222 957 203 957 c 2,2,-1
 188 957 l 2,3,4
 170 957 170 957 170 969 c 1,5,-1
 118 1409 l 1,6,-1
 118 1413 l 2,7,8
 118 1443 118 1443 172 1443 c 2,9,-1
 219 1443 l 2,10,11
 273 1443 273 1443 273 1414 c 2,12,-1
 273 1409 l 1,13,-1
 222 969 l 1,0,1
EndSplineSet
Validated: 1
EndChar

StartChar: parenleft
Encoding: 40 40 10
Width: 628
Flags: W
LayerCount: 2
Fore
SplineSet
79 568 m 0,0,1
 79 802 79 802 175 1049 c 128,-1,2
 271 1296 271 1296 580 1467 c 0,3,4
 587 1471 587 1471 592 1471 c 0,5,6
 594 1471 594 1471 596 1470 c 0,7,8
 599 1467 599 1467 599 1442 c 2,9,-1
 599 1412 l 1,10,11
 367 1211 367 1211 301 1031.5 c 128,-1,12
 235 852 235 852 235 568 c 0,13,14
 235 283 235 283 301 104 c 128,-1,15
 367 -75 367 -75 599 -276 c 1,16,-1
 599 -306 l 2,17,18
 599 -331 599 -331 596 -334 c 0,19,20
 594 -335 594 -335 592 -335 c 0,21,22
 587 -335 587 -335 580 -331 c 0,23,24
 271 -160 271 -160 175 86.5 c 128,-1,25
 79 333 79 333 79 568 c 0,0,1
EndSplineSet
Validated: 1
EndChar

StartChar: comma
Encoding: 44 44 11
Width: 480
Flags: W
LayerCount: 2
Fore
SplineSet
188 -226 m 1,0,1
 159 -249 159 -249 134 -249 c 0,2,3
 118 -249 118 -249 104 -240 c 1,4,5
 90 -224 90 -224 106 -206.5 c 128,-1,6
 122 -189 122 -189 146 -175 c 0,7,8
 239 -118 239 -118 257 -25 c 1,9,10
 147 -25 147 -25 147 61 c 2,11,-1
 147 143 l 2,12,13
 147 230 147 230 257 230 c 256,14,15
 367 230 367 230 367 143 c 2,16,-1
 367 61 l 1,17,18
 343 -126 343 -126 188 -226 c 1,0,1
EndSplineSet
Validated: 1
EndChar

StartChar: hyphen
Encoding: 45 45 12
Width: 1100
Flags: W
LayerCount: 2
Fore
SplineSet
219 436 m 1,0,-1
 219 555 l 1,1,-1
 837 555 l 1,2,-1
 837 436 l 1,3,-1
 219 436 l 1,0,-1
EndSplineSet
Validated: 1
EndChar

StartChar: period
Encoding: 46 46 13
Width: 480
Flags: W
LayerCount: 2
Fore
SplineSet
257 230 m 256,0,1
 367 230 367 230 367 143 c 2,2,-1
 367 61 l 2,3,4
 367 -25 367 -25 257 -25 c 256,5,6
 147 -25 147 -25 147 61 c 2,7,-1
 147 143 l 2,8,9
 147 230 147 230 257 230 c 256,0,1
EndSplineSet
Validated: 1
EndChar

StartChar: slash
Encoding: 47 47 14
Width: 1100
Flags: W
LayerCount: 2
Fore
SplineSet
58 -70 m 1,0,-1
 902 1474 l 1,1,-1
 1042 1474 l 1,2,-1
 200 -70 l 1,3,-1
 58 -70 l 1,0,-1
EndSplineSet
Validated: 1
EndChar

StartChar: zero
Encoding: 48 48 15
Width: 1100
Flags: W
LayerCount: 2
Fore
SplineSet
550 1374 m 1,0,1
 362 1371 362 1371 329 1220 c 128,-1,2
 296 1069 296 1069 296 966 c 2,3,-1
 296 454 l 2,4,5
 296 350 296 350 331.5 198 c 128,-1,6
 367 46 367 46 521.5 46 c 128,-1,7
 676 46 676 46 740 166 c 128,-1,8
 804 286 804 286 804 454 c 2,9,-1
 804 966 l 2,10,11
 804 1134 804 1134 746 1254 c 128,-1,12
 688 1374 688 1374 552 1374 c 2,13,-1
 550 1374 l 1,0,1
552.5 1446 m 128,-1,15
 769 1446 769 1446 885 1311 c 128,-1,16
 1001 1176 1001 1176 1001 989 c 2,17,-1
 1001 431 l 2,18,19
 1001 242 1001 242 868.5 108.5 c 128,-1,20
 736 -25 736 -25 526 -25 c 128,-1,21
 316 -25 316 -25 207.5 109 c 128,-1,22
 99 243 99 243 99 431 c 2,23,-1
 99 989 l 2,24,25
 99 1177 99 1177 217.5 1311.5 c 128,-1,14
 336 1446 336 1446 552.5 1446 c 128,-1,15
EndSplineSet
Validated: 1
EndChar

StartChar: one
Encoding: 49 49 16
Width: 1100
Flags: W
HStem: 0 63<413.763 500.152 703.731 789.023> 1443 20G<645.171 692>
VStem: 512 180<65.4336 1252>
LayerCount: 2
Fore
SplineSet
412 21 m 2,0,-1
 412 23 l 1,1,2
 411 45 411 45 461.5 63 c 128,-1,3
 512 81 512 81 512 146 c 2,4,-1
 512 1252 l 1,5,-1
 308 1252 l 1,6,-1
 308 1299 l 1,7,-1
 692 1463 l 1,8,-1
 692 146 l 2,9,10
 692 80 692 80 742 63 c 0,11,12
 788 47 788 47 792 23 c 1,13,-1
 792 21 l 1,14,15
 795 0 795 0 772 0 c 2,16,-1
 432 0 l 2,17,18
 412 0 412 0 412 21 c 2,0,-1
EndSplineSet
Validated: 1
EndChar

StartChar: two
Encoding: 50 50 17
Width: 1100
Flags: W
LayerCount: 2
Fore
SplineSet
152 0 m 1,0,-1
 152 78 l 2,1,2
 152 165 152 165 203 230 c 256,3,4
 254 295 254 295 366 415 c 1,5,6
 432 478 432 478 496.5 550.5 c 128,-1,7
 561 623 561 623 634 709.5 c 128,-1,8
 707 796 707 796 741 883.5 c 128,-1,9
 775 971 775 971 775 1032 c 128,-1,10
 775 1093 775 1093 750 1141 c 0,11,12
 697 1240 697 1240 597 1279 c 0,13,14
 539 1301 539 1301 483.5 1301 c 128,-1,15
 428 1301 428 1301 377 1289 c 0,16,17
 258 1259 258 1259 182 1147 c 0,18,19
 158 1111 158 1111 147 1080 c 1,20,-1
 143 1080 l 1,21,-1
 143 1210 l 1,22,23
 153 1238 153 1238 163 1257 c 1,24,25
 205 1325 205 1325 278.5 1377.5 c 128,-1,26
 352 1430 352 1430 457 1446 c 0,27,28
 499 1452 499 1452 540 1452 c 0,29,30
 673 1452 673 1452 793 1385 c 0,31,32
 950 1296 950 1296 953 1090 c 1,33,-1
 953 1086 l 2,34,35
 953 949 953 949 879.5 827 c 128,-1,36
 806 705 806 705 705 593 c 128,-1,37
 604 481 604 481 500 363.5 c 128,-1,38
 396 246 396 246 339 150 c 1,39,-1
 709 150 l 2,40,41
 838 150 838 150 955 192 c 1,42,-1
 957 42 l 1,43,44
 900 7 900 7 834 3.5 c 128,-1,45
 768 0 768 0 711 0 c 2,46,-1
 152 0 l 1,0,-1
EndSplineSet
Validated: 1
EndChar

StartChar: three
Encoding: 51 51 18
Width: 1100
Flags: W
LayerCount: 2
Fore
SplineSet
393 -31 m 0,0,1
 265 -31 265 -31 171 42 c 1,2,-1
 166 209 l 1,3,-1
 172 209 l 1,4,5
 234 105 234 105 375 73 c 0,6,7
 426 61 426 61 490 61 c 128,-1,8
 554 61 554 61 623 97 c 0,9,10
 726 151 726 151 763 253 c 0,11,12
 783 308 783 308 783 359 c 128,-1,13
 783 410 783 410 769 456 c 0,14,15
 737 558 737 558 636 633.5 c 128,-1,16
 535 709 535 709 364 712 c 1,17,-1
 362 740 l 1,18,19
 431 762 431 762 520 801.5 c 128,-1,20
 609 841 609 841 652 914 c 128,-1,21
 695 987 695 987 695 1053 c 0,22,23
 695 1072 695 1072 692 1092 c 0,24,25
 677 1176 677 1176 612.5 1242.5 c 128,-1,26
 548 1309 548 1309 447 1309 c 0,27,28
 438 1309 438 1309 430 1308 c 0,29,30
 317 1301 317 1301 245 1214 c 0,31,32
 212 1174 212 1174 199 1128 c 1,33,-1
 195 1128 l 1,34,-1
 195 1283 l 1,35,36
 279 1375 279 1375 369 1410.5 c 128,-1,37
 459 1446 459 1446 542 1446 c 1,38,39
 770 1443 770 1443 846 1262 c 1,40,41
 867 1209 867 1209 867 1157 c 0,42,43
 867 1029 867 1029 734 903 c 0,44,45
 706 876 706 876 668 848 c 1,46,47
 812 777 812 777 873 671 c 128,-1,48
 934 565 934 565 934 458 c 0,49,50
 934 443 934 443 933 428 c 0,51,52
 915 212 915 212 710 65 c 0,53,54
 602 -12 602 -12 442 -28 c 0,55,56
 417 -31 417 -31 393 -31 c 0,0,1
EndSplineSet
Validated: 1
EndChar

StartChar: four
Encoding: 52 52 19
Width: 1100
Flags: W
HStem: 0 63.5<509.595 633.342> 415 141<196 650 830 1032> 1385 20G<636.712 830>
VStem: 650 180<73.4292 415 556 1246>
LayerCount: 2
Fore
SplineSet
650 146 m 2,0,-1
 650 415 l 1,1,-1
 68 415 l 1,2,-1
 68 529 l 1,3,-1
 650 1405 l 1,4,-1
 830 1405 l 1,5,-1
 830 556 l 1,6,-1
 1032 556 l 1,7,-1
 1032 415 l 1,8,-1
 830 415 l 1,9,-1
 830 146 l 2,10,11
 830 82 830 82 900.5 64 c 128,-1,12
 971 46 971 46 972 23 c 128,-1,13
 973 0 973 0 952 0 c 2,14,-1
 528 0 l 1,15,16
 505 1 505 1 506.5 23.5 c 128,-1,17
 508 46 508 46 579 63.5 c 128,-1,18
 650 81 650 81 650 146 c 2,0,-1
650 556 m 1,19,-1
 650 1246 l 1,20,-1
 196 556 l 1,21,-1
 650 556 l 1,19,-1
EndSplineSet
Validated: 1
EndChar

StartChar: five
Encoding: 53 53 20
Width: 1100
Flags: W
HStem: -24 105<264.02 623.581> 776 110<375.567 648.53> 1230 175<226 904.558>
VStem: 130 96<762 1230> 800 194<266.635 621.196>
LayerCount: 2
Fore
SplineSet
800 450 m 1,0,-1
 800 477 l 1,1,2
 800 483 800 483 800 489 c 0,3,4
 800 529 800 529 772 591 c 1,5,6
 733 687 733 687 632 741 c 1,7,8
 554 776 554 776 482 776 c 0,9,10
 368 776 368 776 270 688 c 1,11,12
 240 653 240 653 193 653 c 0,13,14
 183 653 183 653 172 655 c 1,15,16
 158 655 158 655 144 656 c 128,-1,17
 130 657 130 657 130 687 c 2,18,-1
 130 1371 l 2,19,20
 130 1397 130 1397 135 1401 c 128,-1,21
 140 1405 140 1405 176 1405 c 2,22,-1
 670 1405 l 2,23,24
 705 1405 705 1405 779.5 1401 c 128,-1,25
 854 1397 854 1397 908 1363 c 1,26,-1
 908 1189 l 1,27,28
 798 1230 798 1230 670 1230 c 2,29,-1
 226 1230 l 1,30,-1
 226 762 l 1,31,32
 319 820 319 820 402 852 c 1,33,34
 485 886 485 886 565 886 c 0,35,36
 608 886 608 886 651 876 c 0,37,38
 774 848 774 848 858 769 c 1,39,40
 994 653 994 653 994 450 c 0,41,42
 994 424 994 424 992 396 c 1,43,44
 967 225 967 225 848 112 c 0,45,46
 710 -20 710 -20 456 -24 c 1,47,48
 254 -24 254 -24 108 70 c 1,49,-1
 108 259 l 1,50,-1
 112 259 l 1,51,52
 162 170 162 170 264 125 c 1,53,54
 363 81 363 81 460 81 c 0,55,56
 480 80 480 80 498 82 c 0,57,58
 612 92 612 92 696 184 c 1,59,60
 797 286 797 286 800 450 c 1,0,-1
EndSplineSet
Validated: 1
EndChar

StartChar: six
Encoding: 54 54 21
Width: 1100
Flags: W
LayerCount: 2
Fore
SplineSet
323.5 768.5 m 128,-1,1
 236 637 236 637 236 458.5 c 128,-1,2
 236 280 236 280 322.5 161.5 c 128,-1,3
 409 43 409 43 526 43 c 2,4,-1
 538 43 l 1,5,6
 662 49 662 49 750 180.5 c 128,-1,7
 838 312 838 312 838 491 c 256,8,9
 838 670 838 670 751.5 788.5 c 128,-1,10
 665 907 665 907 548 907 c 2,11,-1
 536 907 l 1,12,0
 411 900 411 900 323.5 768.5 c 128,-1,1
526 971 m 0,13,14
 558 971 558 971 592 967 c 0,15,16
 757 949 757 949 865 850 c 0,17,18
 1029 700 1029 700 1030 484 c 0,19,-1
 1030 481 l 0,20,21
 1030 268 1030 268 889 122 c 0,22,23
 747 -26 747 -26 554 -26 c 2,24,-1
 539 -26 l 1,25,26
 331 -20 331 -20 200 122 c 128,-1,27
 69 264 69 264 69 466 c 2,28,-1
 69 475 l 1,29,30
 72 796 72 796 210.5 1023 c 128,-1,31
 349 1250 349 1250 597 1420 c 0,32,33
 624 1438 624 1438 636.5 1444.5 c 128,-1,34
 649 1451 649 1451 681 1451 c 2,35,-1
 750 1450 l 2,36,37
 793 1450 793 1450 793 1443 c 128,-1,38
 793 1436 793 1436 777 1428 c 1,39,40
 609 1311 609 1311 500 1197.5 c 128,-1,41
 391 1084 391 1084 301 914 c 1,42,43
 400 971 400 971 526 971 c 0,13,14
EndSplineSet
Validated: 1
EndChar

StartChar: seven
Encoding: 55 55 22
Width: 1100
Flags: W
HStem: 0 21G<157 337> 1230 175<169.38 802>
LayerCount: 2
Fore
SplineSet
384 153 m 1,0,1
 346 79 346 79 328 0 c 1,2,-1
 158 0 l 1,3,4
 156 15 156 15 156 25 c 0,5,6
 156 71 156 71 178 123 c 0,7,8
 205 186 205 186 228 232 c 0,9,10
 302 376 302 376 524 756 c 0,11,12
 694 1047 694 1047 802 1230 c 1,13,-1
 404 1230 l 2,14,15
 274 1230 274 1230 166 1189 c 1,16,-1
 166 1363 l 1,17,18
 216 1395 216 1395 284 1400 c 0,19,20
 348 1405 348 1405 404 1405 c 2,21,-1
 898 1405 l 2,22,23
 934 1405 934 1405 939 1400 c 0,24,25
 945 1394 945 1394 944 1358 c 0,26,27
 943 1291 943 1291 914 1230 c 1,28,29
 780 961 780 961 648 691.5 c 128,-1,30
 516 422 516 422 384 153 c 1,0,1
EndSplineSet
Validated: 1
EndChar

StartChar: eight
Encoding: 56 56 23
Width: 1100
Flags: W
LayerCount: 2
Fore
SplineSet
771.5 678 m 128,-1,1
 684 756 684 756 559 756 c 0,2,3
 433 756 433 756 345 674 c 0,4,5
 256 591 256 591 256 406 c 0,6,7
 256 404 256 404 256 402 c 0,8,9
 258 214 258 214 335 134 c 128,-1,10
 412 54 412 54 558.5 54 c 128,-1,11
 705 54 705 54 782.5 132.5 c 128,-1,12
 860 211 860 211 860 405 c 256,13,0
 859 600 859 600 771.5 678 c 128,-1,1
128 1102 m 0,14,15
 129 1278 129 1278 254 1363 c 128,-1,16
 379 1448 379 1448 588 1448 c 128,-1,17
 797 1448 797 1448 900 1349 c 0,18,19
 998 1253 998 1253 998 1100 c 0,20,21
 998 1094 998 1094 998 1088 c 0,22,23
 992 852 992 852 730 796 c 1,24,25
 869 761 869 761 956 664 c 0,26,27
 1050 564 1050 564 1050 374 c 0,28,-1
 1050 372 l 0,29,30
 1050 182 1050 182 910 83 c 0,31,32
 768 -20 768 -20 540 -20 c 0,33,34
 539 -20 539 -20 538 -20 c 0,35,36
 311 -20 311 -20 181 88 c 0,37,38
 50 196 50 196 50 402 c 1,39,40
 51 563 51 563 142.5 662 c 128,-1,41
 234 761 234 761 382 797 c 1,42,43
 128 857 128 857 128 1102 c 0,14,15
374 1301 m 128,-1,45
 316 1219 316 1219 315 1104 c 0,46,47
 315 1100 315 1100 315 1095 c 0,48,49
 316 987 316 987 364 908 c 0,50,51
 414 826 414 826 564 826 c 0,52,-1
 566 825 l 0,53,54
 715 825 715 825 764.5 907 c 128,-1,55
 814 989 814 989 814 1104.5 c 128,-1,56
 814 1220 814 1220 754.5 1301.5 c 128,-1,57
 695 1383 695 1383 563.5 1383 c 128,-1,44
 432 1383 432 1383 374 1301 c 128,-1,45
EndSplineSet
Validated: 1
EndChar

StartChar: less
Encoding: 60 60 24
Width: 1100
Flags: W
LayerCount: 2
Fore
SplineSet
184 607 m 2,0,1
 175 616 175 616 174 629 c 0,2,3
 173 644 173 644 194 665 c 2,4,-1
 812 1268 l 2,5,6
 832 1287 832 1287 848 1287 c 0,7,8
 860 1287 860 1287 870 1277 c 2,9,-1
 918 1228 l 2,10,11
 925 1219 925 1219 926 1206 c 0,12,13
 927 1190 927 1190 908 1170 c 2,14,-1
 356 631 l 1,15,-1
 908 93 l 1,16,17
 924 75 924 75 926 56 c 0,18,19
 927 45 927 45 918 35 c 2,20,-1
 870 -13 l 2,21,22
 860 -23 860 -23 848 -23 c 0,23,24
 832 -23 832 -23 812 -4 c 2,25,-1
 184 607 l 2,0,1
EndSplineSet
Validated: 1
EndChar

StartChar: at
Encoding: 64 64 25
Width: 2119
Flags: W
HStem: -507 83<724.219 1293.71> -69 86<1386.96 1589.03> -25 100<798.029 970.25> 874 82<1068.59 1248.26> 1370 72<916.024 1425.98>
VStem: 48 174<92.856 693.559> 499 195<185.258 522.43> 1182 188<35.083 91 128.458 205.444> 1894 125<428.781 962.769>
LayerCount: 2
Fore
SplineSet
1839 178 m 0,0,1
 1788 112 1788 112 1721.5 56 c 128,-1,2
 1655 0 1655 0 1578 -31 c 1,3,4
 1489 -69 1489 -69 1403 -69 c 0,5,6
 1339 -69 1339 -69 1277 -48 c 0,7,8
 1182 -15 1182 -15 1182 87 c 2,9,-1
 1182 91 l 1,10,-1
 874 -14 l 2,11,12
 841 -25 841 -25 819 -25 c 2,13,-1
 778 -25 l 1,14,15
 636 -18 636 -18 560 91 c 1,16,17
 499 176 499 176 499 300 c 0,18,19
 499 411 499 411 544 523 c 128,-1,20
 589 635 589 635 654 711 c 0,21,22
 691 755 691 755 765 803 c 0,23,24
 789 818 789 818 820 830 c 1,25,26
 907 860 907 860 994.5 890 c 128,-1,27
 1082 920 1082 920 1170 950 c 0,28,29
 1188 956 1188 956 1204 956 c 2,30,-1
 1209 956 l 1,31,32
 1272 953 1272 953 1356 924 c 0,33,34
 1362 922 1362 922 1365 920 c 0,35,36
 1385 911 1385 911 1415 900 c 0,37,38
 1427 896 1427 896 1437 896 c 0,39,40
 1455 896 1455 896 1467 905 c 0,41,42
 1493 925 1493 925 1504 937 c 0,43,44
 1510 944 1510 944 1519 942 c 128,-1,45
 1528 940 1528 940 1528 940 c 0,46,47
 1546 932 1546 932 1546 922 c 2,48,-1
 1546 920 l 1,49,-1
 1379 199 l 2,50,51
 1370 159 1370 159 1370 128 c 0,52,53
 1370 40 1370 40 1442 22 c 0,54,55
 1460 17 1460 17 1479 17 c 0,56,57
 1517 17 1517 17 1561 35 c 1,58,59
 1629 61 1629 61 1684 112 c 0,60,61
 1774 194 1774 194 1834 350 c 0,62,63
 1894 508 1894 508 1894 699 c 0,64,65
 1894 1042 1894 1042 1682 1206 c 256,66,67
 1470 1370 1470 1370 1166 1370 c 0,68,69
 939 1370 939 1370 719 1257 c 1,70,71
 498 1145 498 1145 360 912 c 1,72,73
 222 681 222 681 222 387 c 0,74,75
 222 158 222 158 314 -29 c 0,76,77
 405 -215 405 -215 583 -320 c 0,78,79
 758 -424 758 -424 1005 -424 c 0,80,81
 1213 -424 1213 -424 1398 -351 c 0,82,83
 1566 -284 1566 -284 1696 -176 c 0,84,85
 1700 -172 1700 -172 1705 -172 c 0,86,87
 1711 -172 1711 -172 1718 -179 c 256,88,89
 1725 -186 1725 -186 1725 -196 c 0,90,91
 1725 -205 1725 -205 1720 -215 c 0,92,93
 1709 -239 1709 -239 1695 -252 c 0,94,95
 1548 -388 1548 -388 1360.5 -447.5 c 128,-1,96
 1173 -507 1173 -507 960 -507 c 0,97,98
 560 -507 560 -507 304 -255 c 0,99,100
 48 -2 48 -2 48 388 c 0,101,102
 48 832 48 832 369 1138 c 1,103,104
 690 1442 690 1442 1157 1442 c 0,105,106
 1531 1442 1531 1442 1775 1240 c 1,107,108
 2019 1036 2019 1036 2019 702 c 0,109,110
 2019 413 2019 413 1839 178 c 0,0,1
1187 145 m 1,111,-1
 1330 769 l 1,112,113
 1298 807 1298 807 1238.5 839.5 c 128,-1,114
 1179 872 1179 872 1127 874 c 1,115,-1
 1123 874 l 2,116,117
 1103 874 1103 874 1082 866 c 0,118,119
 1043 853 1043 853 1004 839.5 c 128,-1,120
 965 826 965 826 926 813 c 0,121,122
 900 804 900 804 880 787 c 0,123,124
 803 721 803 721 759.5 627 c 128,-1,125
 716 533 716 533 702 441 c 0,126,127
 694 394 694 394 694 352 c 0,128,129
 694 267 694 267 726 207 c 1,130,131
 773 114 773 114 866 86 c 0,132,133
 903 75 903 75 941 75 c 0,134,135
 953 75 953 75 966 76 c 0,136,137
 989 78 989 78 1022 89 c 0,138,139
 1044 96 1044 96 1097 114.5 c 128,-1,140
 1150 133 1150 133 1187 145 c 1,111,-1
EndSplineSet
Validated: 1
EndChar

StartChar: A
Encoding: 65 65 26
Width: 1593
Flags: W
LayerCount: 2
Fore
SplineSet
1546 13.5 m 128,-1,1
 1546 10 1546 10 1543.5 5 c 128,-1,2
 1541 0 1541 0 1532 0 c 2,3,-1
 1194 0 l 2,4,5
 1185 0 1185 0 1175.5 6.5 c 128,-1,6
 1166 13 1166 13 1164 18.5 c 128,-1,7
 1162 24 1162 24 1162 30 c 128,-1,8
 1162 36 1162 36 1172.5 45.5 c 128,-1,9
 1183 55 1183 55 1196 65 c 128,-1,10
 1209 75 1209 75 1213.5 87.5 c 128,-1,11
 1218 100 1218 100 1218 114 c 0,12,13
 1218 129 1218 129 1210 147 c 2,14,-1
 1062 489 l 1,15,-1
 479 489 l 1,16,17
 443 403 443 403 407.5 317.5 c 128,-1,18
 372 232 372 232 349.5 179.5 c 128,-1,19
 327 127 327 127 326 115.5 c 128,-1,20
 325 104 325 104 325 95.5 c 128,-1,21
 325 87 325 87 328 76 c 128,-1,22
 331 65 331 65 338 56.5 c 128,-1,23
 345 48 345 48 347 39.5 c 128,-1,24
 349 31 349 31 349 28 c 256,25,26
 349 25 349 25 347 21 c 0,27,28
 340 0 340 0 325 0 c 2,29,-1
 67 0 l 2,30,31
 47 0 47 0 52 21 c 0,32,33
 56 39 56 39 86 52 c 128,-1,34
 116 65 116 65 155 83 c 1,35,36
 193 110 193 110 209 146 c 2,37,-1
 776 1427 l 1,38,-1
 838 1427 l 1,39,40
 888 1309 888 1309 961.5 1138 c 128,-1,41
 1035 967 1035 967 1113.5 786 c 128,-1,42
 1192 605 1192 605 1265.5 434 c 128,-1,43
 1339 263 1339 263 1390 146 c 1,44,45
 1405 109 1405 109 1438.5 86.5 c 128,-1,46
 1472 64 1472 64 1494.5 54 c 128,-1,47
 1517 44 1517 44 1529 36 c 128,-1,48
 1541 28 1541 28 1543.5 22.5 c 128,-1,0
 1546 17 1546 17 1546 13.5 c 128,-1,1
1027 570 m 1,49,-1
 766 1179 l 1,50,51
 702 1026 702 1026 638.5 874 c 128,-1,52
 575 722 575 722 512 570 c 1,53,-1
 1027 570 l 1,49,-1
EndSplineSet
Validated: 1
EndChar

StartChar: B
Encoding: 66 66 27
Width: 1240
Flags: W
HStem: 0 73<118.583 207.617 393 805.562> 687 87<393 806.797> 1325 80<120.031 210.253 393 796.406>
VStem: 213 180<73.2104 687 774 1324.35> 934 184<892.678 1203.59> 978 203<216.605 545.321>
LayerCount: 2
Fore
SplineSet
704 1405 m 2,0,1
 802 1405 802 1405 908.5 1370 c 128,-1,2
 1015 1335 1015 1335 1072 1235 c 0,3,4
 1118 1155 1118 1155 1118 1041 c 1,5,6
 1116 933 1116 933 1056 849 c 1,7,8
 1013 786 1013 786 923 745 c 1,9,10
 1065 699 1065 699 1131 586 c 1,11,12
 1181 497 1181 497 1181 372 c 1,13,14
 1179 253 1179 253 1113 160 c 0,15,16
 1056 79 1056 79 952 39.5 c 128,-1,17
 848 0 848 0 761 0 c 2,18,-1
 134 0 l 2,19,20
 113 0 113 0 113 21 c 0,21,22
 113 46 113 46 163 64 c 128,-1,23
 213 82 213 82 213 146 c 2,24,-1
 213 1258 l 2,25,26
 213 1321 213 1321 163 1339 c 128,-1,27
 113 1357 113 1357 113 1383 c 0,28,29
 113 1405 113 1405 134 1405 c 2,30,-1
 704 1405 l 2,0,1
393 687 m 1,31,-1
 393 73 l 1,32,-1
 619 73 l 2,33,34
 692 73 692 73 766.5 94.5 c 128,-1,35
 841 116 841 116 895 169 c 0,36,37
 978 250 978 250 978 383 c 0,38,39
 978 511 978 511 891 597 c 1,40,41
 797 687 797 687 640 687 c 2,42,-1
 393 687 l 1,31,-1
393 774 m 1,43,-1
 669 774 l 1,44,45
 787 787 787 787 859 856 c 0,46,47
 934 929 934 929 934 1050 c 0,48,49
 934 1168 934 1168 855 1244 c 0,50,51
 770 1325 770 1325 629 1325 c 2,52,-1
 393 1325 l 1,53,-1
 393 774 l 1,43,-1
EndSplineSet
Validated: 1
EndChar

StartChar: C
Encoding: 67 67 28
Width: 1405
Flags: W
LayerCount: 2
Fore
SplineSet
848 -37 m 0,0,1
 541 -37 541 -37 304 159 c 128,-1,2
 67 355 67 355 67 701 c 0,3,4
 67 1038 67 1038 297.5 1241.5 c 128,-1,5
 528 1445 528 1445 848 1445 c 0,6,7
 963 1445 963 1445 1092.5 1419.5 c 128,-1,8
 1222 1394 1222 1394 1339 1319 c 1,9,-1
 1315 1109 l 1,10,11
 1311 1091 1311 1091 1295 1091 c 2,12,-1
 1292 1091 l 1,13,14
 1280 1092 1280 1092 1266 1119 c 1,15,16
 1208 1244 1208 1244 1092 1303 c 1,17,18
 984 1356 984 1356 862 1356 c 2,19,-1
 841 1356 l 1,20,21
 571 1344 571 1344 419 1140 c 0,22,23
 282 957 282 957 282 735 c 0,24,25
 282 710 282 710 284 685 c 0,26,27
 298 455 298 455 446 266 c 128,-1,28
 594 77 594 77 848 65 c 0,29,30
 872 64 872 64 894 64 c 0,31,32
 1022 64 1022 64 1105 103 c 0,33,34
 1201 149 1201 149 1266 288 c 0,35,36
 1279 316 1279 316 1298 316 c 0,37,38
 1302 316 1302 316 1306 315 c 0,39,40
 1322 309 1322 309 1322 292 c 0,41,42
 1322 284 1322 284 1318 274 c 2,43,-1
 1231 31 l 1,44,45
 1135 -9 1135 -9 1036 -23 c 128,-1,46
 937 -37 937 -37 848 -37 c 0,0,1
EndSplineSet
Validated: 1
EndChar

StartChar: D
Encoding: 68 68 29
Width: 1585
Flags: W
HStem: -9 85<402.935 908.241> -9 65<110.063 197.014> -6 106<399 635.435> 1334 79<111.955 203.593 403.03 936.486>
VStem: 208 191<92.5212 1319.29> 1290 212<474.922 1008.61>
LayerCount: 2
Fore
SplineSet
399 100 m 1,0,1
 525 76 525 76 639 76 c 0,2,3
 682 76 682 76 724 79 c 0,4,5
 1074 109 1074 109 1216 380 c 0,6,7
 1290 520 1290 520 1290 736 c 2,8,-1
 1290 769 l 1,9,10
 1277 1082 1277 1082 1091 1216 c 1,11,12
 934 1334 934 1334 677 1334 c 0,13,14
 664 1334 664 1334 651 1334 c 1,15,16
 528 1334 528 1334 399 1313 c 1,17,-1
 399 100 l 1,0,1
214 1405 m 2,18,-1
 527 1413 l 1,19,20
 548 1413 548 1413 569 1413 c 0,21,22
 581 1413 581 1413 593 1413 c 0,23,24
 700 1413 700 1413 849 1405 c 0,25,26
 1017 1396 1017 1396 1160 1334 c 128,-1,27
 1303 1272 1303 1272 1394 1144 c 0,28,29
 1499 996 1499 996 1502 727 c 1,30,31
 1502 561 1502 561 1434 416 c 0,32,33
 1367 272 1367 272 1235 169 c 0,34,35
 1012 -5 1012 -5 689 -9 c 1,36,-1
 609 -9 l 2,37,38
 551 -9 551 -9 500 -6 c 1,39,-1
 383 -6 l 2,40,41
 300 -6 300 -6 257 -3 c 1,42,-1
 233 -3 l 2,43,44
 193 -3 193 -3 129 -9 c 1,45,46
 108 -9 108 -9 108 14.5 c 128,-1,47
 108 38 108 38 158 56 c 128,-1,48
 208 74 208 74 208 139 c 2,49,-1
 208 1262 l 2,50,51
 208 1326 208 1326 158 1343.5 c 128,-1,52
 108 1361 108 1361 108 1387 c 0,53,54
 108 1410 108 1410 129 1408 c 0,55,56
 171 1405 171 1405 214 1405 c 2,18,-1
EndSplineSet
Validated: 1
EndChar

StartChar: E
Encoding: 69 69 30
Width: 1251
Flags: W
HStem: 0 94<436 990.917> 0 63.5<157.747 243.269> 677 91<436 742.505> 1311 94<436 965.286> 1339.5 65.5<157.481 244.014>
VStem: 255 181<94.1757 677 768 1310.12>
LayerCount: 2
Fore
SplineSet
436 94 m 1,0,-1
 863 94 l 2,1,2
 956 94 956 94 1020.5 165.5 c 128,-1,3
 1085 237 1085 237 1118 277 c 0,4,5
 1136 299 1136 299 1146 299 c 0,6,7
 1167 299 1167 299 1167 278 c 0,8,9
 1167 265 1167 265 1165 257 c 2,10,-1
 1092 0 l 1,11,-1
 173 0 l 2,12,13
 155 0 155 0 155 21 c 0,14,15
 155 46 155 46 205 63.5 c 128,-1,16
 255 81 255 81 255 146 c 2,17,-1
 255 1257 l 2,18,19
 255 1322 255 1322 205 1339.5 c 128,-1,20
 155 1357 155 1357 155 1383 c 0,21,22
 155 1405 155 1405 176 1405 c 2,23,-1
 1104 1405 l 1,24,-1
 1104 1147 l 2,25,26
 1104 1126 1104 1126 1083 1126 c 0,27,28
 1073 1126 1073 1126 1046 1166 c 1,29,30
 996 1235 996 1235 959.5 1273 c 128,-1,31
 923 1311 923 1311 863 1311 c 2,32,-1
 436 1311 l 1,33,-1
 436 768 l 1,34,-1
 665 768 l 2,35,36
 729 768 729 768 749 819.5 c 128,-1,37
 769 871 769 871 795 871 c 0,38,39
 815 871 815 871 815 850 c 2,40,-1
 815 596 l 2,41,42
 815 575 815 575 795 575 c 0,43,44
 769 575 769 575 746 626 c 128,-1,45
 723 677 723 677 659 677 c 2,46,-1
 436 677 l 1,47,-1
 436 94 l 1,0,-1
EndSplineSet
Validated: 1
EndChar

StartChar: F
Encoding: 70 70 31
Width: 1139
Flags: W
HStem: 0 21G<164.5 521> 678 90<436 744.433> 1311 94<436 965.286> 1339.5 65.5<157.481 244.014>
VStem: 255 181<68.2251 678 768 1310.12>
LayerCount: 2
Fore
SplineSet
174 0 m 2,0,1
 155 0 155 0 155 21 c 0,2,3
 155 33 155 33 176 46 c 0,4,5
 191 56 191 56 211.5 69 c 128,-1,6
 232 82 232 82 245 104 c 1,7,8
 255 124 255 124 255 146 c 2,9,-1
 255 1257 l 2,10,11
 255 1322 255 1322 205 1339.5 c 128,-1,12
 155 1357 155 1357 155 1383 c 0,13,14
 155 1405 155 1405 176 1405 c 2,15,-1
 1104 1405 l 1,16,-1
 1104 1147 l 2,17,18
 1104 1126 1104 1126 1083 1126 c 0,19,20
 1073 1126 1073 1126 1046 1166 c 1,21,22
 996 1235 996 1235 959.5 1273 c 128,-1,23
 923 1311 923 1311 863 1311 c 2,24,-1
 436 1311 l 1,25,-1
 436 768 l 1,26,-1
 665 768 l 2,27,28
 707 768 707 768 739 805 c 0,29,30
 757 827 757 827 768 849 c 128,-1,31
 779 871 779 871 795 871 c 0,32,33
 815 871 815 871 815 850 c 2,34,-1
 815 596 l 2,35,36
 815 575 815 575 795 575 c 0,37,38
 777 575 777 575 764.5 600.5 c 128,-1,39
 752 626 752 626 731 650 c 1,40,41
 703 678 703 678 665 678 c 2,42,-1
 436 678 l 1,43,-1
 436 146 l 2,44,45
 436 118 436 118 449 97 c 0,46,47
 461 79 461 79 479 67.5 c 128,-1,48
 497 56 497 56 512 47 c 0,49,50
 535 33 535 33 535 21 c 0,51,52
 535 15 535 15 534 12 c 0,53,54
 527 0 527 0 515 0 c 2,55,-1
 174 0 l 2,0,1
EndSplineSet
Validated: 1
EndChar

StartChar: G
Encoding: 71 71 32
Width: 1563
Flags: W
LayerCount: 2
Fore
SplineSet
848 -37 m 0,0,1
 541 -37 541 -37 304 159 c 128,-1,2
 67 355 67 355 67 701 c 0,3,4
 67 1038 67 1038 297.5 1241.5 c 128,-1,5
 528 1445 528 1445 848 1445 c 0,6,7
 963 1445 963 1445 1092.5 1419.5 c 128,-1,8
 1222 1394 1222 1394 1339 1319 c 1,9,-1
 1315 1109 l 1,10,11
 1311 1091 1311 1091 1295 1091 c 2,12,-1
 1292 1091 l 1,13,14
 1280 1092 1280 1092 1266 1119 c 1,15,16
 1201 1258 1201 1258 1104.5 1304 c 128,-1,17
 1008 1350 1008 1350 848 1350 c 0,18,19
 625 1350 625 1350 451 1195 c 128,-1,20
 277 1040 277 1040 277 701 c 0,21,22
 277 483 277 483 439.5 280 c 128,-1,23
 602 77 602 77 848 65 c 0,24,25
 872 64 872 64 894 64 c 0,26,27
 1008 64 1008 64 1086 94 c 0,28,29
 1179 130 1179 130 1242 240 c 1,30,-1
 1242 428 l 1,31,32
 1240 459 1240 459 1210 476 c 1,33,34
 1183 490 1183 490 1131 511.5 c 128,-1,35
 1079 533 1079 533 1079 554 c 256,36,37
 1079 575 1079 575 1100 575 c 2,38,-1
 1501 575 l 2,39,40
 1522 575 1522 575 1522 554 c 0,41,42
 1522 528 1522 528 1472 510 c 128,-1,43
 1422 492 1422 492 1422 428 c 2,44,-1
 1422 39 l 1,45,46
 1268 32 1268 32 1125 -4 c 0,47,48
 1053 -23 1053 -23 983 -30 c 128,-1,49
 913 -37 913 -37 848 -37 c 0,0,1
EndSplineSet
Validated: 1
EndChar

StartChar: H
Encoding: 72 72 33
Width: 1638
Flags: W
HStem: 0 63.5<157.747 243.269 446.731 532.253 1182.75 1268.27 1471.85 1558.23> 697 92<435 1280> 1339 66<157.747 244.014 445.986 532.253 1182.75 1269.01 1471.1 1558.23>
VStem: 255 180<65.873 697 789 1336.57> 1280 180<65.873 697 789 1336.57>
LayerCount: 2
Fore
SplineSet
435 1257 m 2,0,-1
 435 789 l 1,1,-1
 1280 789 l 1,2,-1
 1280 1257 l 2,3,4
 1280 1321 1280 1321 1230 1339 c 128,-1,5
 1180 1357 1180 1357 1180 1383 c 0,6,7
 1180 1405 1180 1405 1201 1405 c 2,8,-1
 1540 1405 l 2,9,10
 1561 1405 1561 1405 1561 1383 c 0,11,12
 1561 1357 1561 1357 1510.5 1339 c 128,-1,13
 1460 1321 1460 1321 1460 1257 c 2,14,-1
 1460 146 l 2,15,16
 1460 81 1460 81 1510.5 63.5 c 128,-1,17
 1561 46 1561 46 1561 21 c 0,18,19
 1561 0 1561 0 1540 0 c 2,20,-1
 1201 0 l 2,21,22
 1180 0 1180 0 1180 21 c 0,23,24
 1180 46 1180 46 1230 63.5 c 128,-1,25
 1280 81 1280 81 1280 146 c 2,26,-1
 1280 697 l 1,27,-1
 435 697 l 1,28,-1
 435 146 l 2,29,30
 435 81 435 81 485 63.5 c 128,-1,31
 535 46 535 46 535 21 c 0,32,33
 535 0 535 0 515 0 c 2,34,-1
 176 0 l 2,35,36
 155 0 155 0 155 21 c 0,37,38
 155 46 155 46 205 63.5 c 128,-1,39
 255 81 255 81 255 146 c 2,40,-1
 255 1257 l 2,41,42
 255 1321 255 1321 205 1339 c 128,-1,43
 155 1357 155 1357 155 1383 c 0,44,45
 155 1405 155 1405 176 1405 c 2,46,-1
 515 1405 l 2,47,48
 535 1405 535 1405 535 1383 c 0,49,50
 535 1357 535 1357 485 1339 c 128,-1,51
 435 1321 435 1321 435 1257 c 2,0,-1
EndSplineSet
Validated: 1
EndChar

StartChar: I
Encoding: 73 73 34
Width: 690
Flags: W
HStem: 0 63.5<157.747 243.269 446.731 532.253> 1339.5 65.5<157.481 244.014 445.986 532.519>
VStem: 255 180<65.877 1337.13>
LayerCount: 2
Fore
SplineSet
435 1257 m 2,0,-1
 435 147 l 2,1,2
 435 81 435 81 485 63.5 c 128,-1,3
 535 46 535 46 535 21 c 0,4,5
 535 0 535 0 514 0 c 2,6,-1
 175 0 l 2,7,8
 155 0 155 0 155 21 c 0,9,10
 155 46 155 46 205 63.5 c 128,-1,11
 255 81 255 81 255 146 c 2,12,-1
 255 1257 l 2,13,14
 255 1322 255 1322 205 1339.5 c 128,-1,15
 155 1357 155 1357 155 1383 c 0,16,17
 155 1405 155 1405 176 1405 c 2,18,-1
 514 1405 l 2,19,20
 535 1405 535 1405 535 1383 c 0,21,22
 535 1357 535 1357 485 1339.5 c 128,-1,23
 435 1322 435 1322 435 1257 c 2,0,-1
EndSplineSet
Validated: 1
EndChar

StartChar: J
Encoding: 74 74 35
Width: 682
Flags: W
HStem: 1340 65<151.747 238.014 440.986 527.253>
VStem: 249 181<-164.785 1337.57>
LayerCount: 2
Fore
SplineSet
430 180 m 2,0,1
 430 -17 430 -17 403.5 -113 c 128,-1,2
 377 -209 377 -209 312 -277 c 1,3,4
 222 -369 222 -369 110 -399 c 1,5,-1
 110 -349 l 1,6,7
 149 -325 149 -325 183 -288 c 0,8,9
 217 -250 217 -250 236 -189 c 0,10,11
 249 -147 249 -147 249 -74 c 0,12,13
 249 -37 249 -37 249 25 c 128,-1,14
 249 87 249 87 249 174 c 2,15,-1
 249 1258 l 2,16,17
 249 1322 249 1322 199 1340 c 128,-1,18
 149 1358 149 1358 149 1384 c 0,19,20
 149 1405 149 1405 170 1405 c 2,21,-1
 509 1405 l 2,22,23
 530 1405 530 1405 530 1384 c 0,24,25
 530 1358 530 1358 480 1340 c 128,-1,26
 430 1322 430 1322 430 1258 c 2,27,-1
 430 180 l 2,0,1
EndSplineSet
Validated: 1
EndChar

StartChar: K
Encoding: 75 75 36
Width: 1487
Flags: W
HStem: 0 63.5<157.063 243.269 446.731 532.937> 1204 201<1081.97 1265.41> 1339 66<157.747 244.014 445.986 532.253>
VStem: 255 180<65.873 693 746 1336.57>
LayerCount: 2
Fore
SplineSet
958 1241 m 2,0,1
 1036 1314 1036 1314 1081 1359.5 c 128,-1,2
 1126 1405 1126 1405 1153 1405 c 128,-1,3
 1180 1405 1180 1405 1198 1394 c 2,4,-1
 1304 1342 l 1,5,6
 1321 1332 1321 1332 1321 1322 c 128,-1,7
 1321 1312 1321 1312 1318 1305 c 2,8,-1
 1266 1159 l 1,9,-1
 1197 1188 l 2,10,11
 1158 1204 1158 1204 1115.5 1204 c 128,-1,12
 1073 1204 1073 1204 1034 1165 c 2,13,-1
 631 772 l 1,14,-1
 1383 78 l 1,15,16
 1404 57 1404 57 1427.5 46.5 c 128,-1,17
 1451 36 1451 36 1451 21 c 0,18,19
 1451 0 1451 0 1431 0 c 2,20,-1
 1092 0 l 2,21,22
 1071 0 1071 0 1071 21 c 0,23,24
 1071 28 1071 28 1086 42 c 0,25,26
 1097 52 1097 52 1097 64 c 0,27,28
 1098 84 1098 84 1066 111 c 1,29,-1
 435 693 l 1,30,-1
 435 146 l 2,31,32
 435 81 435 81 485 63.5 c 128,-1,33
 535 46 535 46 535 23 c 128,-1,34
 535 0 535 0 515 0 c 2,35,-1
 176 0 l 2,36,37
 155 0 155 0 155 23 c 128,-1,38
 155 46 155 46 205 63.5 c 128,-1,39
 255 81 255 81 255 146 c 2,40,-1
 255 1257 l 2,41,42
 255 1321 255 1321 205 1339 c 128,-1,43
 155 1357 155 1357 155 1383 c 0,44,45
 155 1405 155 1405 176 1405 c 2,46,-1
 515 1405 l 2,47,48
 535 1405 535 1405 535 1383 c 0,49,50
 535 1357 535 1357 485 1339 c 128,-1,51
 435 1321 435 1321 435 1257 c 2,52,-1
 435 746 l 1,53,-1
 958 1241 l 2,0,1
EndSplineSet
Validated: 1
EndChar

StartChar: L
Encoding: 76 76 37
Width: 1251
Flags: W
HStem: 0 94<436 990.917> 0 63.5<157.747 243.269> 1339 66<157.747 244.014 445.986 532.253>
VStem: 255 181<94.1757 1336.57>
LayerCount: 2
Fore
SplineSet
436 94 m 1,0,-1
 863 94 l 2,1,2
 956 94 956 94 1020.5 165.5 c 128,-1,3
 1085 237 1085 237 1118 277 c 0,4,5
 1136 299 1136 299 1146 299 c 0,6,7
 1167 299 1167 299 1167 278 c 0,8,9
 1167 265 1167 265 1165 257 c 2,10,-1
 1092 0 l 1,11,-1
 176 0 l 2,12,13
 155 0 155 0 155 21 c 0,14,15
 155 46 155 46 205 63.5 c 128,-1,16
 255 81 255 81 255 146 c 2,17,-1
 255 1257 l 2,18,19
 255 1321 255 1321 205 1339 c 128,-1,20
 155 1357 155 1357 155 1383 c 0,21,22
 155 1405 155 1405 176 1405 c 2,23,-1
 515 1405 l 2,24,25
 535 1405 535 1405 535 1383 c 0,26,27
 535 1357 535 1357 485 1339 c 128,-1,28
 435 1321 435 1321 435 1257 c 2,29,-1
 436 94 l 1,0,-1
EndSplineSet
Validated: 1
EndChar

StartChar: M
Encoding: 77 77 38
Width: 1908
Flags: W
HStem: -30 21G<891.483 949.254> 0 63.5<136.747 222.269 341.731 427.253 1419.75 1505.27 1708.85 1795.23> 1339 66<136.747 223.014 1708.1 1795.23>
VStem: 234 96<65.873 1170> 1517 180<65.873 1217>
LayerCount: 2
Fore
SplineSet
1697 1257 m 2,0,-1
 1697 146 l 2,1,2
 1697 81 1697 81 1747.5 63.5 c 128,-1,3
 1798 46 1798 46 1798 21 c 0,4,5
 1798 0 1798 0 1777 0 c 2,6,-1
 1438 0 l 2,7,8
 1417 0 1417 0 1417 21 c 0,9,10
 1417 46 1417 46 1467 63.5 c 128,-1,11
 1517 81 1517 81 1517 146 c 2,12,-1
 1517 1217 l 1,13,-1
 940 -30 l 1,14,-1
 901 -30 l 1,15,-1
 330 1170 l 1,16,-1
 330 146 l 2,17,18
 330 81 330 81 380 63.5 c 128,-1,19
 430 46 430 46 430 21 c 0,20,21
 430 0 430 0 409 0 c 2,22,-1
 155 0 l 2,23,24
 134 0 134 0 134 21 c 0,25,26
 134 46 134 46 184 63.5 c 128,-1,27
 234 81 234 81 234 146 c 2,28,-1
 234 1257 l 2,29,30
 234 1321 234 1321 184 1339 c 128,-1,31
 134 1357 134 1357 134 1383 c 0,32,33
 134 1405 134 1405 155 1405 c 2,34,-1
 421 1405 l 1,35,-1
 968 282 l 1,36,-1
 1498 1405 l 1,37,-1
 1777 1405 l 2,38,39
 1798 1405 1798 1405 1798 1383 c 0,40,41
 1798 1357 1798 1357 1747.5 1339 c 128,-1,42
 1697 1321 1697 1321 1697 1257 c 2,0,-1
EndSplineSet
Validated: 1
EndChar

StartChar: N
Encoding: 78 78 39
Width: 1644
Flags: W
HStem: 0 63.5<136.747 222.269 341.731 427.253> 1339 66<136.747 223.014 1272.72 1358.12 1476.99 1563.25>
VStem: 234 96<65.873 1189> 1369 96<203 1336.57>
LayerCount: 2
Fore
SplineSet
1369 203 m 1,0,-1
 1369 1257 l 2,1,2
 1369 1321 1369 1321 1319.5 1339 c 128,-1,3
 1270 1357 1270 1357 1270 1383 c 0,4,5
 1270 1405 1270 1405 1290 1405 c 2,6,-1
 1545 1405 l 2,7,8
 1566 1405 1566 1405 1566 1383 c 0,9,10
 1566 1357 1566 1357 1516 1339 c 128,-1,11
 1466 1321 1466 1321 1466 1257 c 2,12,-1
 1465 -43 l 1,13,-1
 1288 0 l 1,14,-1
 330 1189 l 1,15,-1
 330 146 l 2,16,17
 330 81 330 81 380 63.5 c 128,-1,18
 430 46 430 46 430 21 c 0,19,20
 430 0 430 0 409 0 c 2,21,-1
 155 0 l 2,22,23
 134 0 134 0 134 21 c 0,24,25
 134 46 134 46 184 63.5 c 128,-1,26
 234 81 234 81 234 146 c 2,27,-1
 234 1257 l 2,28,29
 234 1321 234 1321 184 1339 c 128,-1,30
 134 1357 134 1357 134 1383 c 0,31,32
 134 1405 134 1405 155 1405 c 2,33,-1
 412 1405 l 1,34,-1
 1369 203 l 1,0,-1
EndSplineSet
Validated: 1
EndChar

StartChar: O
Encoding: 79 79 40
Width: 1610
Flags: W
LayerCount: 2
Fore
SplineSet
808 1358 m 0,0,1
 501 1357 501 1357 379 1164.5 c 128,-1,2
 257 972 257 972 257 702 c 0,3,4
 257 431 257 431 410 239.5 c 128,-1,5
 563 48 563 48 808 46 c 1,6,-1
 813 46 l 2,7,8
 1052 46 1052 46 1206 250 c 0,9,10
 1358 452 1358 452 1358 696 c 2,11,-1
 1358 702 l 1,12,13
 1356 951 1356 951 1228 1154.5 c 128,-1,14
 1100 1358 1100 1358 808 1358 c 0,0,1
808 1446 m 1,15,-1
 818 1446 l 2,16,17
 1141 1446 1141 1446 1363 1248 c 0,18,19
 1570 1063 1570 1063 1570 760 c 0,20,21
 1570 733 1570 733 1568 705 c 0,22,23
 1547 361 1547 361 1329.5 171.5 c 128,-1,24
 1112 -18 1112 -18 806 -35 c 0,25,26
 783 -36 783 -36 760 -36 c 0,27,28
 482 -36 482 -36 268 156 c 1,29,30
 48 352 48 352 48 669 c 0,31,32
 48 687 48 687 49 705 c 0,33,34
 61 1046 61 1046 269.5 1244 c 128,-1,35
 478 1442 478 1442 808 1446 c 1,15,-1
EndSplineSet
Validated: 1
EndChar

StartChar: P
Encoding: 80 80 41
Width: 1237
Flags: W
HStem: 0 63.5<136.747 222.269 425.731 511.253> 667 70<414 825.797> 1321 84<414 843.418> 1339 66<136.747 223.014>
VStem: 234 180<65.873 667 737 1320.12> 988 193<870.535 1188.4>
LayerCount: 2
Fore
SplineSet
414 146 m 2,0,1
 414 81 414 81 464 63.5 c 128,-1,2
 514 46 514 46 514 21 c 0,3,4
 514 0 514 0 494 0 c 2,5,-1
 155 0 l 2,6,7
 134 0 134 0 134 21 c 0,8,9
 134 46 134 46 184 63.5 c 128,-1,10
 234 81 234 81 234 146 c 2,11,-1
 234 1257 l 2,12,13
 234 1321 234 1321 184 1339 c 128,-1,14
 134 1357 134 1357 134 1383 c 0,15,16
 134 1405 134 1405 155 1405 c 2,17,-1
 745 1405 l 2,18,19
 848 1405 848 1405 960 1368 c 128,-1,20
 1072 1331 1072 1331 1133 1226 c 1,21,22
 1181 1141 1181 1141 1181 1022 c 1,23,24
 1179 909 1179 909 1116 819 c 0,25,26
 1062 742 1062 742 962.5 704.5 c 128,-1,27
 863 667 863 667 781 667 c 2,28,-1
 414 667 l 1,29,-1
 414 146 l 2,0,1
414 1321 m 1,30,-1
 414 737 l 1,31,-1
 646 737 l 2,32,33
 715 737 715 737 786 757 c 128,-1,34
 857 777 857 777 908 828 c 1,35,36
 988 905 988 905 988 1032 c 0,37,38
 988 1154 988 1154 905 1236 c 1,39,40
 816 1321 816 1321 666 1321 c 2,41,-1
 414 1321 l 1,30,-1
EndSplineSet
Validated: 1
EndChar

StartChar: Q
Encoding: 81 81 42
Width: 1610
Flags: W
HStem: -141 187<705.215 827.854> 1358 88<560.837 1037.11>
VStem: 48 209<436.5 958.462> 1358 212<477.768 970.656>
LayerCount: 2
Fore
SplineSet
808 1446 m 1,0,-1
 818 1446 l 2,1,2
 1141 1446 1141 1446 1363 1248 c 0,3,4
 1570 1063 1570 1063 1570 760 c 0,5,6
 1570 738 1570 738 1568 705 c 0,7,8
 1547 361 1547 361 1330 172 c 0,9,10
 1121 -10 1121 -10 831 -33 c 1,11,12
 912 -51 912 -51 1031 -104 c 0,13,14
 1211 -184 1211 -184 1304 -184 c 0,15,16
 1338 -184 1338 -184 1404 -165 c 1,17,-1
 1404 -215 l 1,18,19
 1307 -271 1307 -271 1262 -320 c 1,20,21
 1139 -304 1139 -304 940.5 -222.5 c 128,-1,22
 742 -141 742 -141 675 -141 c 0,23,24
 637 -141 637 -141 525 -215 c 1,25,-1
 525 -152 l 1,26,27
 635 -67 635 -67 670 -47 c 0,28,29
 684 -39 684 -39 699 -34 c 1,30,31
 458 -15 458 -15 268 156 c 0,32,33
 66 337 66 337 48 669 c 0,34,35
 47 687 47 687 48 705 c 0,36,37
 60 1046 60 1046 269 1244 c 128,-1,38
 478 1442 478 1442 808 1446 c 1,0,-1
808 1358 m 0,39,40
 501 1357 501 1357 379 1164.5 c 128,-1,41
 257 972 257 972 257 702 c 0,42,43
 257 431 257 431 410 239.5 c 128,-1,44
 563 48 563 48 808 46 c 1,45,-1
 813 46 l 2,46,47
 1052 46 1052 46 1206 250 c 0,48,49
 1358 452 1358 452 1358 696 c 2,50,-1
 1358 702 l 1,51,52
 1356 951 1356 951 1228 1154.5 c 128,-1,53
 1100 1358 1100 1358 808 1358 c 0,39,40
EndSplineSet
Validated: 1
EndChar

StartChar: R
Encoding: 82 82 43
Width: 1368
Flags: W
HStem: 0 63.5<136.747 222.269 425.731 511.253> 0 45<1269.33 1363.9> 667 70<414 601.264> 1321 84<414 843.418> 1339 66<136.747 223.014>
VStem: 234 180<65.873 667 737 1320.12> 988 193<870.535 1188.4>
LayerCount: 2
Fore
SplineSet
1263 72 m 1,0,1
 1291 49 1291 49 1336 45 c 0,2,3
 1364 42 1364 42 1364 24 c 2,4,-1
 1364 21 l 1,5,6
 1361 0 1361 0 1343 0 c 2,7,-1
 1076 0 l 2,8,9
 1067 0 1067 0 1008 78 c 128,-1,10
 949 156 949 156 871 264 c 128,-1,11
 793 372 793 372 711 485 c 128,-1,12
 629 598 629 598 574 667 c 1,13,-1
 414 667 l 1,14,-1
 414 146 l 2,15,16
 414 81 414 81 464 63.5 c 128,-1,17
 514 46 514 46 514 21 c 0,18,19
 514 0 514 0 494 0 c 2,20,-1
 155 0 l 2,21,22
 134 0 134 0 134 21 c 0,23,24
 134 46 134 46 184 63.5 c 128,-1,25
 234 81 234 81 234 146 c 2,26,-1
 234 1257 l 2,27,28
 234 1321 234 1321 184 1339 c 128,-1,29
 134 1357 134 1357 134 1383 c 0,30,31
 134 1405 134 1405 155 1405 c 2,32,-1
 745 1405 l 2,33,34
 848 1405 848 1405 960 1368 c 128,-1,35
 1072 1331 1072 1331 1133 1226 c 1,36,37
 1181 1141 1181 1141 1181 1022 c 1,38,39
 1179 909 1179 909 1116 819 c 0,40,41
 1066 748 1066 748 977 710 c 128,-1,42
 888 672 888 672 808 667 c 1,43,-1
 1263 72 l 1,0,1
414 1321 m 1,44,-1
 414 737 l 1,45,-1
 646 737 l 2,46,47
 715 737 715 737 786 757 c 128,-1,48
 857 777 857 777 908 828 c 1,49,50
 988 905 988 905 988 1032 c 0,51,52
 988 1154 988 1154 905 1236 c 1,53,54
 816 1321 816 1321 666 1321 c 2,55,-1
 414 1321 l 1,44,-1
EndSplineSet
Validated: 1
EndChar

StartChar: S
Encoding: 83 83 44
Width: 1075
Flags: W
HStem: -39 92<266.74 683.414> 1359 90<385.6 720.396>
VStem: 76 171<928.232 1213.44> 857 174<260.5 531.704>
LayerCount: 2
Fore
SplineSet
857 388 m 2,0,-1
 857 399 l 1,1,2
 854 512 854 512 771 572 c 0,3,4
 733 600 733 600 653 622.5 c 128,-1,5
 573 645 573 645 462.5 657 c 128,-1,6
 352 669 352 669 258 714 c 128,-1,7
 164 759 164 759 120 840.5 c 128,-1,8
 76 922 76 922 76 1018 c 0,9,10
 76 1206 76 1206 208.5 1327.5 c 128,-1,11
 341 1449 341 1449 545 1449 c 2,12,-1
 575 1449 l 1,13,14
 798 1439 798 1439 954 1338 c 1,15,-1
 930 1128 l 2,16,17
 928 1110 928 1110 911 1110 c 2,18,-1
 907 1110 l 1,19,20
 894 1111 894 1111 882 1138 c 0,21,22
 839 1228 839 1228 757 1291.5 c 128,-1,23
 675 1355 675 1355 580 1359 c 1,24,-1
 564 1359 l 2,25,26
 472 1359 472 1359 412.5 1330.5 c 128,-1,27
 353 1302 353 1302 326 1273.5 c 128,-1,28
 299 1245 299 1245 281 1208 c 128,-1,29
 263 1171 263 1171 255 1133 c 128,-1,30
 247 1095 247 1095 247 1061 c 128,-1,31
 247 1027 247 1027 259 994 c 1,32,33
 280 927 280 927 325 894.5 c 128,-1,34
 370 862 370 862 405.5 853 c 128,-1,35
 441 844 441 844 477 837.5 c 128,-1,36
 513 831 513 831 561 823.5 c 128,-1,37
 609 816 609 816 672.5 806.5 c 128,-1,38
 736 797 736 797 816 772 c 128,-1,39
 896 747 896 747 938.5 700 c 128,-1,40
 981 653 981 653 1006 595.5 c 128,-1,41
 1031 538 1031 538 1031 459 c 0,42,43
 1031 240 1031 240 857 103 c 0,44,45
 767 32 767 32 668 0 c 0,46,47
 570 -32 570 -32 509 -35.5 c 128,-1,48
 448 -39 448 -39 427 -39 c 0,49,50
 288 -39 288 -39 161 0 c 1,51,-1
 66 264 l 2,52,53
 64 269 64 269 64 276.5 c 128,-1,54
 64 284 64 284 71.5 295.5 c 128,-1,55
 79 307 79 307 92 307 c 1,56,57
 104 304 104 304 117 278 c 0,58,59
 181 139 181 139 269.5 96 c 128,-1,60
 358 53 358 53 481 53 c 0,61,62
 507 53 507 53 561.5 56.5 c 128,-1,63
 616 60 616 60 690.5 97.5 c 128,-1,64
 765 135 765 135 811 208.5 c 128,-1,65
 857 282 857 282 857 388 c 2,0,-1
EndSplineSet
Validated: 1
EndChar

StartChar: T
Encoding: 84 84 45
Width: 1255
Flags: W
LayerCount: 2
Fore
SplineSet
1215 1147 m 2,0,1
 1215 1126 1215 1126 1194 1126 c 0,2,3
 1185 1126 1185 1126 1156 1166 c 0,4,5
 1105 1235 1105 1235 1068.5 1273 c 128,-1,6
 1032 1311 1032 1311 972 1311 c 2,7,-1
 721 1311 l 1,8,-1
 721 146 l 2,9,10
 721 81 721 81 771 63 c 128,-1,11
 821 45 821 45 821 20 c 0,12,13
 821 0 821 0 801 0 c 2,14,-1
 462 0 l 2,15,16
 441 0 441 0 441 20 c 0,17,18
 441 45 441 45 491 63 c 128,-1,19
 541 81 541 81 541 146 c 2,20,-1
 541 1311 l 1,21,-1
 286 1311 l 2,22,23
 226 1311 226 1311 188.5 1273 c 128,-1,24
 151 1235 151 1235 101 1166 c 0,25,26
 73 1126 73 1126 64 1126 c 0,27,28
 43 1126 43 1126 43 1147 c 2,29,-1
 43 1332 l 2,30,31
 43 1386 43 1386 61.5 1397.5 c 128,-1,32
 80 1409 80 1409 157 1409 c 2,33,-1
 1101 1409 l 2,34,35
 1184 1409 1184 1409 1199.5 1399 c 128,-1,36
 1215 1389 1215 1389 1215 1332 c 2,37,-1
 1215 1147 l 2,0,1
EndSplineSet
Validated: 1
EndChar

StartChar: U
Encoding: 85 85 46
Width: 1554
Flags: W
HStem: -39 125<598.792 1045.61> 1340 65<136.481 223.014 426.061 511.847 1166.48 1253.01 1371.77 1457.61>
VStem: 234 182<291.814 1337.57> 1264 97<354.716 1337.57>
LayerCount: 2
Fore
SplineSet
234 588 m 2,0,-1
 234 1258 l 2,1,2
 234 1322 234 1322 184 1340 c 128,-1,3
 134 1358 134 1358 134 1383 c 0,4,5
 134 1405 134 1405 155 1405 c 2,6,-1
 494 1405 l 2,7,8
 514 1405 514 1405 514 1383 c 0,9,10
 514 1356 514 1356 465 1340 c 128,-1,11
 416 1324 416 1324 416 1260 c 2,12,-1
 416 721 l 2,13,14
 416 568 416 568 426 450 c 128,-1,15
 436 332 436 332 478 251 c 0,16,17
 519 170 519 170 604 128 c 128,-1,18
 689 86 689 86 839 86 c 0,19,20
 1103 86 1103 86 1197 294 c 0,21,22
 1264 440 1264 440 1264 721 c 2,23,-1
 1264 1257 l 2,24,25
 1264 1322 1264 1322 1214 1340 c 128,-1,26
 1164 1358 1164 1358 1164 1383 c 0,27,28
 1164 1405 1164 1405 1185 1405 c 2,29,-1
 1440 1405 l 2,30,31
 1460 1405 1460 1405 1460 1383 c 0,32,33
 1460 1358 1460 1358 1410 1340 c 0,34,35
 1361 1322 1361 1322 1361 1257 c 2,36,-1
 1361 588 l 1,37,38
 1360 439 1360 439 1333.5 315.5 c 128,-1,39
 1307 192 1307 192 1236 108 c 1,40,41
 1109 -39 1109 -39 839 -39 c 0,42,43
 668 -39 668 -39 548 -7 c 128,-1,44
 428 25 428 25 356 109 c 0,45,46
 234 250 234 250 234 588 c 2,0,-1
EndSplineSet
Validated: 1
EndChar

StartChar: V
Encoding: 86 86 47
Width: 1479
Flags: W
HStem: 0 21G<682 842> 1402 3G<67 414.5 1302.5 1312>
VStem: 1283 154<1121.55 1281.5>
LayerCount: 2
Fore
SplineSet
392 1263 m 1,0,-1
 816 177 l 1,1,-1
 1270 1107 l 2,2,3
 1283 1133 1283 1133 1283 1154 c 0,4,5
 1283 1172 1283 1172 1274 1186 c 0,6,7
 1255 1216 1255 1216 1215 1264 c 2,8,-1
 1166 1321 l 1,9,-1
 1290 1415 l 2,10,11
 1298 1422 1298 1422 1307 1422 c 0,12,13
 1317 1422 1317 1422 1329 1412 c 1,14,-1
 1411 1328 l 2,15,16
 1437 1301 1437 1301 1437 1262 c 0,17,18
 1437 1240 1437 1240 1429 1215 c 0,19,20
 1405 1144 1405 1144 1358 1048 c 2,21,-1
 868 32 l 1,22,23
 861 15 861 15 854 6 c 1,24,25
 846 0 846 0 838 0 c 2,26,-1
 687 0 l 2,27,28
 677 0 677 0 671 8 c 0,29,30
 668 11 668 11 660.5 31 c 128,-1,31
 653 51 653 51 650 60 c 2,32,-1
 272 1110 l 1,33,34
 232 1216 232 1216 214 1258 c 1,35,36
 196 1295 196 1295 155 1325 c 1,37,38
 131 1340 131 1340 108.5 1349.5 c 128,-1,39
 86 1359 86 1359 72 1369 c 1,40,41
 63 1374 63 1374 60 1383 c 1,42,43
 57 1387 57 1387 57 1392 c 0,44,45
 57 1394 57 1394 59 1398 c 0,46,47
 63 1405 63 1405 71 1405 c 2,48,-1
 410 1405 l 2,49,50
 419 1405 419 1405 428 1398 c 1,51,52
 437 1390 437 1390 440 1383 c 0,53,54
 441 1380 441 1380 441 1378 c 0,55,56
 441 1368 441 1368 430 1358 c 0,57,58
 420 1349 420 1349 407.5 1338.5 c 128,-1,59
 395 1328 395 1328 389 1313 c 0,60,61
 385 1303 385 1303 385 1292 c 0,62,63
 385 1278 385 1278 392 1263 c 1,0,-1
EndSplineSet
Validated: 1
EndChar

StartChar: X
Encoding: 88 88 48
Width: 1366
Flags: W
HStem: 0 21G<43 314 1005.5 1354.5> 1200 211<1115.54 1254.13>
LayerCount: 2
Fore
SplineSet
332 78 m 1,0,-1
 341 39 l 1,1,2
 341 27 341 27 331 13.5 c 128,-1,3
 321 0 321 0 307 0 c 2,4,-1
 49 0 l 2,5,6
 37 0 37 0 36 6 c 1,7,-1
 36 11 l 2,8,9
 36 27 36 27 68 41 c 2,10,-1
 120 62 l 1,11,12
 195 94 195 94 233 146 c 2,13,-1
 627 698 l 1,14,-1
 264 1258 l 1,15,16
 225 1316 225 1316 134 1350 c 1,17,18
 109 1358 109 1358 95 1366 c 0,19,20
 71 1380 71 1380 71 1394 c 2,21,-1
 71 1398 l 1,22,23
 72 1405 72 1405 81 1405 c 2,24,-1
 420 1405 l 2,25,26
 437 1405 437 1405 448 1391.5 c 128,-1,27
 459 1378 459 1378 459 1372 c 256,28,29
 459 1366 459 1366 452 1357.5 c 128,-1,30
 445 1349 445 1349 435 1338.5 c 128,-1,31
 425 1328 425 1328 424 1313 c 1,32,-1
 424 1308 l 2,33,34
 424 1285 424 1285 440 1263 c 1,35,-1
 721 831 l 1,36,-1
 988 1204 l 2,37,38
 1058 1301 1058 1301 1105 1355 c 0,39,40
 1154 1411 1154 1411 1188 1411 c 0,41,42
 1192 1411 1192 1411 1195 1410 c 0,43,44
 1205 1408 1205 1408 1215 1405 c 2,45,-1
 1314 1376 l 1,46,47
 1331 1369 1331 1369 1331 1359 c 0,48,49
 1331 1348 1331 1348 1329 1341 c 2,50,-1
 1287 1171 l 1,51,-1
 1222 1186 l 2,52,53
 1168 1198 1168 1198 1135 1200 c 1,54,-1
 1132 1200 l 2,55,56
 1100 1200 1100 1200 1068 1153 c 2,57,-1
 779 742 l 1,58,-1
 1166 146 l 2,59,60
 1198 95 1198 95 1296 54 c 0,61,62
 1320 44 1320 44 1334 36 c 0,63,64
 1360 21 1360 21 1360 11 c 0,65,66
 1360 0 1360 0 1349 0 c 2,67,-1
 1010 0 l 2,68,69
 1001 0 1001 0 990 6 c 0,70,71
 971 16 971 16 971 27 c 256,72,73
 971 38 971 38 987.5 58 c 128,-1,74
 1004 78 1004 78 1006 91 c 1,75,-1
 1006 98 l 2,76,77
 1006 118 1006 118 993 141 c 1,78,-1
 685 609 l 1,79,-1
 361 147 l 2,80,81
 332 106 332 106 332 78 c 1,0,-1
EndSplineSet
Validated: 1
EndChar

StartChar: Y
Encoding: 89 89 49
Width: 1366
Flags: W
HStem: 0 63.5<519.747 605.269 809.731 895.253> 1385 20G<52.5 400 1142 1151.5>
VStem: 617 181<65.873 684.188>
LayerCount: 2
Fore
SplineSet
589 677 m 2,0,-1
 240 1258 l 1,1,2
 217 1292 217 1292 163 1325 c 1,3,4
 135 1340 135 1340 110 1350 c 0,5,6
 79 1361 79 1361 68 1369 c 128,-1,7
 57 1377 57 1377 51 1385 c 0,8,9
 47 1391 47 1391 47 1394 c 2,10,-1
 47 1398 l 1,11,12
 48 1405 48 1405 57 1405 c 2,13,-1
 396 1405 l 2,14,15
 404 1405 404 1405 415 1398 c 0,16,17
 429 1389 429 1389 432 1385 c 0,18,19
 435 1380 435 1380 435 1373 c 128,-1,20
 435 1366 435 1366 428 1358 c 0,21,22
 421 1349 421 1349 411 1338.5 c 128,-1,23
 401 1328 401 1328 400 1313 c 1,24,-1
 400 1308 l 2,25,26
 400 1286 400 1286 416 1263 c 1,27,-1
 753 729 l 1,28,-1
 1012 1124 l 2,29,30
 1042 1168 1042 1168 1047 1200 c 0,31,32
 1048 1205 1048 1205 1047 1210 c 0,33,34
 1037 1260 1037 1260 1023 1288 c 2,35,-1
 989 1356 l 1,36,-1
 1132 1418 l 2,37,38
 1139 1421 1139 1421 1145 1421 c 0,39,40
 1158 1421 1158 1421 1169 1405 c 1,41,-1
 1229 1304 l 2,42,43
 1240 1285 1240 1285 1240 1266 c 0,44,45
 1240 1232 1240 1232 1206 1197 c 0,46,47
 1153 1141 1153 1141 1093 1054 c 2,48,-1
 827 666 l 2,49,50
 809 639 809 639 803.5 590 c 128,-1,51
 798 541 798 541 798 497 c 2,52,-1
 798 146 l 2,53,54
 798 81 798 81 848 63.5 c 128,-1,55
 898 46 898 46 898 21 c 0,56,57
 898 0 898 0 877 0 c 2,58,-1
 538 0 l 2,59,60
 517 0 517 0 517 21 c 0,61,62
 517 46 517 46 567 63.5 c 128,-1,63
 617 81 617 81 617 146 c 2,64,-1
 617 573 l 2,65,66
 617 631 617 631 589 677 c 2,0,-1
EndSplineSet
Validated: 1
EndChar

StartChar: Z
Encoding: 90 90 50
Width: 1366
Flags: W
LayerCount: 2
Fore
SplineSet
190 1126 m 0,0,1
 169 1126 169 1126 169 1147 c 2,2,-1
 169 1332 l 2,3,4
 169 1386 169 1386 188 1397.5 c 128,-1,5
 207 1409 207 1409 283 1409 c 2,6,-1
 1207 1409 l 2,7,8
 1291 1409 1291 1409 1302 1397 c 0,9,10
 1314 1384 1314 1384 1314 1369 c 0,11,12
 1315 1352 1315 1352 1299 1332 c 1,13,-1
 317 98 l 1,14,-1
 1098 99 l 2,15,16
 1158 99 1158 99 1195 136.5 c 128,-1,17
 1232 174 1232 174 1271.5 228.5 c 128,-1,18
 1311 283 1311 283 1320 283 c 0,19,20
 1341 283 1341 283 1341 262 c 2,21,-1
 1341 77 l 2,22,23
 1341 19 1341 19 1325.5 9.5 c 128,-1,24
 1310 0 1310 0 1228 0 c 2,25,-1
 157 0 l 2,26,27
 74 0 74 0 52 6 c 1,28,29
 10 22 10 22 48 61 c 1,30,-1
 1020 1312 l 1,31,-1
 412 1311 l 2,32,33
 352 1311 352 1311 315 1273 c 128,-1,34
 278 1235 278 1235 239 1180.5 c 128,-1,35
 200 1126 200 1126 190 1126 c 0,0,1
EndSplineSet
Validated: 1
EndChar

StartChar: bracketleft
Encoding: 91 91 51
Width: 682
Flags: W
LayerCount: 2
Fore
SplineSet
483 -367 m 2,0,1
 500 -367 500 -367 500 -394 c 0,2,3
 500 -420 500 -420 488 -420 c 2,4,-1
 241 -420 l 2,5,6
 220 -420 220 -420 220 -400 c 2,7,-1
 220 1436 l 2,8,9
 220 1466 220 1466 241 1466 c 2,10,-1
 488 1466 l 2,11,12
 500 1466 500 1466 500 1438 c 0,13,14
 500 1409 500 1409 483 1409 c 2,15,-1
 338 1409 l 1,16,-1
 338 -367 l 1,17,-1
 483 -367 l 2,0,1
EndSplineSet
Validated: 1
EndChar

StartChar: asciicircum
Encoding: 94 94 52
Width: 1100
Flags: W
LayerCount: 2
Fore
SplineSet
496 1430 m 1,0,-1
 604 1430 l 1,1,-1
 916 912 l 1,2,-1
 860 912 l 1,3,-1
 550 1312 l 1,4,-1
 238 912 l 1,5,-1
 184 912 l 1,6,-1
 496 1430 l 1,0,-1
EndSplineSet
Validated: 1
EndChar

StartChar: underscore
Encoding: 95 95 53
Width: 1100
Flags: W
LayerCount: 2
Fore
SplineSet
0 -218 m 1,0,-1
 1100 -218 l 1,1,-1
 1100 -336 l 1,2,-1
 0 -336 l 1,3,-1
 0 -218 l 1,0,-1
EndSplineSet
Validated: 1
EndChar

StartChar: a
Encoding: 97 97 54
Width: 1155
Flags: W
HStem: -25 100<414.93 612.234> 0 63.5<989.731 1075.94> 874 82<506.133 701.154>
VStem: 62 181<264.426 663.878> 797 181<128.75 803.417>
LayerCount: 2
Fore
SplineSet
469 -25 m 2,0,-1
 428 -25 l 1,1,2
 286 -18 286 -18 183 91 c 256,3,4
 62 219 62 219 62 440 c 0,5,6
 62 492 62 492 71.5 559 c 128,-1,7
 81 626 81 626 121 690.5 c 128,-1,8
 161 755 161 755 203.5 786.5 c 128,-1,9
 246 818 246 818 273 830 c 1,10,11
 609 956 609 956 627 956 c 2,12,-1
 632 956 l 1,13,14
 696 953 696 953 745.5 937 c 128,-1,15
 795 921 795 921 825 908.5 c 128,-1,16
 855 896 855 896 879.5 897 c 128,-1,17
 904 898 904 898 933 937 c 0,18,19
 938 944 938 944 944.5 943 c 128,-1,20
 951 942 951 942 964.5 937 c 128,-1,21
 978 932 978 932 978 920 c 2,22,-1
 978 146 l 2,23,24
 978 81 978 81 1028 63.5 c 128,-1,25
 1078 46 1078 46 1078 23 c 128,-1,26
 1078 0 1078 0 1057 0 c 2,27,-1
 814 0 l 2,28,29
 797 0 797 0 797 13 c 2,30,-1
 797 87 l 1,31,-1
 522 -14 l 2,32,33
 490 -25 490 -25 469 -25 c 2,0,-1
566 874 m 2,34,35
 545 874 545 874 482 850 c 128,-1,36
 419 826 419 826 388.5 814.5 c 128,-1,37
 358 803 358 803 343 787 c 0,38,39
 281 721 281 721 262 638.5 c 128,-1,40
 243 556 243 556 243 532 c 2,41,-1
 243 505 l 2,42,43
 243 502 243 502 243 500 c 0,44,45
 243 313 243 313 316 214 c 0,46,47
 419 75 419 75 568 75 c 0,48,49
 607 75 607 75 654.5 92 c 128,-1,50
 702 109 702 109 797 146 c 1,51,-1
 797 769 l 1,52,53
 756 807 756 807 689 839.5 c 128,-1,54
 622 872 622 872 570 874 c 1,55,-1
 566 874 l 2,34,35
EndSplineSet
Validated: 1
EndChar

StartChar: b
Encoding: 98 98 55
Width: 1139
Flags: W
HStem: -25 81<437.264 613> 937 20G<658.5 674.5> 1339 66<64.7466 150.664> 1443 20G<310.5 343>
VStem: 162 181<124.744 801.484 843 1336.57> 896 181<268.963 664.386>
LayerCount: 2
Fore
SplineSet
343 161 m 1,0,1
 383 122 383 122 449.5 89.5 c 128,-1,2
 516 57 516 57 570 56 c 1,3,-1
 576 56 l 2,4,5
 592 56 592 56 613 64 c 0,6,7
 649 77 649 77 685 90 c 128,-1,8
 721 103 721 103 757 117 c 0,9,10
 779 125 779 125 797 143 c 0,11,12
 858 208 858 208 880 302 c 1,13,14
 892 355 892 355 896 448 c 0,15,16
 897 469 897 469 896 489 c 0,17,18
 885 632 885 632 817 723 c 256,19,20
 749 814 749 814 649 844 c 1,21,22
 628 850 628 850 568 855 c 0,23,24
 557 856 557 856 546 855 c 0,25,26
 523 852 523 852 494 841 c 1,27,28
 471 832 471 832 422 814 c 128,-1,29
 373 796 373 796 343 785 c 1,30,-1
 343 161 l 1,0,1
343 10 m 0,31,32
 320 19 320 19 288 30 c 0,33,34
 274 34 274 34 263 34 c 0,35,36
 248 34 248 34 237 25 c 0,37,38
 215 6 215 6 207 -4 c 0,39,40
 202 -11 202 -11 194 -11 c 0,41,42
 189 -11 189 -11 184 -9 c 0,43,44
 162 -1 162 -1 162 11 c 2,45,-1
 162 1257 l 2,46,47
 162 1321 162 1321 112 1339 c 128,-1,48
 62 1357 62 1357 62 1383 c 0,49,50
 62 1405 62 1405 83 1405 c 0,51,52
 149 1408 149 1408 213.5 1424.5 c 128,-1,53
 278 1441 278 1441 343 1463 c 1,54,-1
 343 843 l 1,55,-1
 618 945 l 2,56,57
 647 955 647 955 670 957 c 0,58,59
 679 957 679 957 689.5 956.5 c 128,-1,60
 700 956 700 956 712 956 c 0,61,62
 854 949 854 949 956 840 c 1,63,64
 1058 729 1058 729 1073 571 c 0,65,66
 1077 529 1077 529 1077 489 c 0,67,68
 1077 437 1077 437 1070 388 c 0,69,70
 1058 303 1058 303 1005 219 c 0,71,72
 976 172 976 172 916 127 c 0,73,74
 893 110 893 110 866 100 c 0,75,76
 785 70 785 70 705 40 c 128,-1,77
 625 10 625 10 545 -19 c 0,78,79
 526 -25 526 -25 511 -25 c 2,80,-1
 507 -25 l 1,81,82
 444 -22 444 -22 352 6 c 0,83,84
 346 8 346 8 343 10 c 0,31,32
EndSplineSet
Validated: 1
EndChar

StartChar: c
Encoding: 99 99 56
Width: 925
Flags: W
LayerCount: 2
Fore
SplineSet
576 956 m 2,0,1
 739 956 739 956 876 868 c 1,2,-1
 859 699 l 2,3,4
 857 686 857 686 847 686 c 0,5,6
 846 686 846 686 845 686 c 0,7,8
 833 687 833 687 825 706 c 0,9,10
 785 793 785 793 720.5 831.5 c 128,-1,11
 656 870 656 870 564 870 c 2,12,-1
 540 870 l 1,13,14
 430 864 430 864 374 810 c 0,15,16
 267 709 267 709 267 519 c 0,17,18
 267 490 267 490 270 458 c 0,19,20
 280 309 280 309 351 214 c 0,21,22
 444 90 444 90 559 72 c 1,23,24
 579 70 579 70 598 70 c 0,25,26
 697 70 697 70 770.5 114.5 c 128,-1,27
 844 159 844 159 860.5 159 c 128,-1,28
 877 159 877 159 882 158 c 1,29,30
 884 153 884 153 884 142 c 128,-1,31
 884 131 884 131 870.5 106.5 c 128,-1,32
 857 82 857 82 838 65 c 1,33,34
 727 -25 727 -25 541 -25 c 128,-1,35
 355 -25 355 -25 228 78 c 1,36,37
 79 204 79 204 79 446 c 0,38,39
 79 501 79 501 87 563 c 1,40,41
 130 784 130 784 316 891 c 0,42,43
 420 950 420 950 555 956 c 1,44,-1
 576 956 l 2,0,1
EndSplineSet
Validated: 1
EndChar

StartChar: d
Encoding: 100 100 57
Width: 1231
Flags: W
HStem: -25 100<434.773 632.234> 0 63.5<1009.73 1095.25> 874 82<521.511 722.555> 1339 66<719.747 805.664> 1443 20G<965.5 998>
VStem: 82 181<269 660.531> 817 181<130.492 805 920 1336.57>
LayerCount: 2
Fore
SplineSet
817 87 m 1,0,-1
 542 -14 l 2,1,2
 510 -25 510 -25 489 -25 c 2,3,-1
 448 -25 l 1,4,5
 306 -18 306 -18 203 91 c 256,6,7
 100 200 100 200 86 359 c 0,8,9
 82 401 82 401 82 440 c 0,10,11
 82 492 82 492 89 541 c 0,12,13
 101 626 101 626 155 711 c 1,14,15
 181 755 181 755 244 803 c 1,16,17
 266 818 266 818 293 830 c 1,18,19
 373 860 373 860 453.5 890 c 128,-1,20
 534 920 534 920 615 950 c 0,21,22
 632 956 632 956 647 956 c 2,23,-1
 652 956 l 1,24,25
 716 953 716 953 807 924 c 0,26,27
 815 921 815 921 817 920 c 1,28,-1
 817 1257 l 2,29,30
 817 1321 817 1321 767 1339 c 128,-1,31
 717 1357 717 1357 717 1383 c 0,32,33
 717 1405 717 1405 738 1405 c 0,34,35
 804 1408 804 1408 868.5 1424.5 c 128,-1,36
 933 1441 933 1441 998 1463 c 1,37,-1
 998 146 l 2,38,39
 998 81 998 81 1048 63.5 c 128,-1,40
 1098 46 1098 46 1098 21 c 0,41,42
 1098 0 1098 0 1077 0 c 2,43,-1
 834 0 l 2,44,45
 817 0 817 0 817 13 c 2,46,-1
 817 87 l 1,0,-1
817 770 m 1,47,48
 772 811 772 811 706.5 841.5 c 128,-1,49
 641 872 641 872 590 874 c 1,50,-1
 586 874 l 2,51,52
 566 874 566 874 546 866 c 0,53,54
 510 853 510 853 474.5 839.5 c 128,-1,55
 439 826 439 826 403 813 c 0,56,57
 378 803 378 803 363 787 c 0,58,59
 301 721 301 721 280 627 c 1,60,61
 263 556 263 556 263 486 c 0,62,63
 263 464 263 464 265 441 c 0,64,65
 276 297 276 297 343 207 c 1,66,67
 410 114 410 114 511 86 c 0,68,69
 549 75 549 75 588 75 c 0,70,71
 600 75 600 75 613 76 c 0,72,73
 635 78 635 78 665 89 c 0,74,75
 688 97 688 97 737 115.5 c 128,-1,76
 786 134 786 134 817 146 c 1,77,-1
 817 770 l 1,47,48
EndSplineSet
Validated: 1
EndChar

StartChar: e
Encoding: 101 101 58
Width: 1004
Flags: W
LayerCount: 2
Fore
SplineSet
537 960 m 2,0,1
 734 960 734 960 838 847 c 128,-1,2
 942 734 942 734 942 551 c 1,3,4
 941 511 941 511 939 494.5 c 128,-1,5
 937 478 937 478 898 478 c 2,6,-1
 261 478 l 1,7,8
 264 316 264 316 343 209.5 c 128,-1,9
 422 103 422 103 542 79 c 0,10,11
 577 71 577 71 613 71 c 0,12,13
 708 71 708 71 787.5 114 c 128,-1,14
 867 157 867 157 879.5 157 c 128,-1,15
 892 157 892 157 895 154.5 c 128,-1,16
 898 152 898 152 898 142.5 c 128,-1,17
 898 133 898 133 885.5 109 c 128,-1,18
 873 85 873 85 865.5 77 c 128,-1,19
 858 69 858 69 852 63 c 0,20,21
 743 -31 743 -31 556 -31 c 1,22,23
 294 -29 294 -29 163 137 c 0,24,25
 62 265 62 265 62 441 c 0,26,27
 62 494 62 494 71 551 c 0,28,29
 99 736 99 736 218.5 847 c 128,-1,30
 338 958 338 958 533 960 c 1,31,-1
 537 960 l 2,0,1
788 551 m 1,32,33
 788 673 788 673 734 772.5 c 128,-1,34
 680 872 680 872 539 872 c 2,35,-1
 528 872 l 1,36,37
 387 868 387 868 326 770 c 128,-1,38
 265 672 265 672 261 551 c 1,39,-1
 788 551 l 1,32,33
EndSplineSet
Validated: 1
EndChar

StartChar: f
Encoding: 102 102 59
Width: 683
Flags: W
LayerCount: 2
Fore
SplineSet
388 1027 m 2,0,-1
 388 948 l 1,1,-1
 627 953 l 2,2,3
 642 953 642 953 642 933 c 128,-1,4
 642 913 642 913 638 893 c 0,5,6
 628 846 628 846 593 846 c 2,7,-1
 388 847 l 1,8,-1
 388 146 l 2,9,10
 388 81 388 81 438 63.5 c 128,-1,11
 488 46 488 46 488 23 c 128,-1,12
 488 0 488 0 467 0 c 2,13,-1
 128 0 l 2,14,15
 107 0 107 0 107 23 c 128,-1,16
 107 46 107 46 157 63.5 c 128,-1,17
 207 81 207 81 207 146 c 2,18,-1
 207 845 l 1,19,-1
 88 840 l 2,20,21
 69 840 69 840 68 860 c 1,22,-1
 68 862 l 2,23,24
 68 878 68 878 87 887 c 0,25,26
 107 896 107 896 146 917 c 128,-1,27
 185 938 185 938 193.5 941.5 c 128,-1,28
 202 945 202 945 207 945 c 1,29,-1
 207 1027 l 2,30,31
 207 1154 207 1154 226 1219.5 c 128,-1,32
 245 1285 245 1285 265.5 1310.5 c 128,-1,33
 286 1336 286 1336 311 1345 c 2,34,-1
 566 1440 l 1,35,-1
 604 1445 l 1,36,37
 626 1445 626 1445 649 1429.5 c 128,-1,38
 672 1414 672 1414 679 1401 c 128,-1,39
 686 1388 686 1388 686 1374 c 128,-1,40
 686 1360 686 1360 684.5 1332 c 128,-1,41
 683 1304 683 1304 672 1301 c 1,42,-1
 669 1301 l 2,43,44
 658 1301 658 1301 623.5 1324 c 128,-1,45
 589 1347 589 1347 551.5 1347 c 128,-1,46
 514 1347 514 1347 487 1336 c 0,47,48
 403 1300 403 1300 393 1199 c 0,49,50
 389 1161 389 1161 388.5 1117 c 128,-1,51
 388 1073 388 1073 388 1027 c 2,0,-1
EndSplineSet
Validated: 1
EndChar

StartChar: g
Encoding: 103 103 60
Width: 1103
Flags: W
HStem: -573 102<414.863 612.234> -25 100<414.93 612.234> 874 82<502.416 701.043>
VStem: 62 181<264.078 660.531> 797 181<-383.316 87 128.75 803.417>
LayerCount: 2
Fore
SplineSet
566 874 m 2,0,1
 545 874 545 874 482 850 c 128,-1,2
 419 826 419 826 388.5 814.5 c 128,-1,3
 358 803 358 803 343 787 c 0,4,5
 281 721 281 721 262 638.5 c 128,-1,6
 243 556 243 556 243 532 c 2,7,-1
 243 505 l 2,8,9
 243 502 243 502 243 500 c 0,10,11
 243 313 243 313 316 214 c 0,12,13
 419 75 419 75 568 75 c 0,14,15
 607 75 607 75 654.5 92 c 128,-1,16
 702 109 702 109 797 146 c 1,17,-1
 797 769 l 1,18,19
 756 807 756 807 689 839.5 c 128,-1,20
 622 872 622 872 570 874 c 1,21,-1
 566 874 l 2,0,1
797 87 m 1,22,-1
 522 -14 l 1,23,24
 490 -25 490 -25 469 -25 c 1,25,-1
 428 -25 l 1,26,27
 286 -18 286 -18 183 91 c 256,28,29
 81 199 81 199 66 359 c 0,30,31
 62 402 62 402 62 440 c 0,32,33
 62 492 62 492 69 541 c 0,34,35
 81 626 81 626 135 711 c 1,36,37
 161 755 161 755 224 803 c 1,38,39
 246 818 246 818 273 830 c 1,40,41
 353 860 353 860 434 890 c 0,42,43
 586 947 586 947 595 950 c 0,44,45
 613 956 613 956 627 956 c 2,46,-1
 632 956 l 1,47,48
 712 952 712 952 787 924 c 0,49,50
 795 921 795 921 797 920 c 0,51,52
 830 906 830 906 851 900 c 0,53,54
 865 896 865 896 875 896 c 0,55,56
 894 896 894 896 903 905 c 0,57,58
 924 925 924 925 933 937 c 0,59,60
 937 943 937 943 946 942 c 0,61,62
 950 942 950 942 956 940 c 0,63,64
 978 931 978 931 978 920 c 2,65,-1
 978 -180 l 1,66,67
 978 -345 978 -345 931 -386 c 0,68,69
 885 -426 885 -426 797 -459 c 2,70,-1
 522 -562 l 2,71,72
 496 -572 496 -572 469 -573 c 0,73,74
 443 -574 443 -574 428 -573 c 0,75,76
 287 -568 287 -568 183 -456 c 0,77,78
 130 -398 130 -398 97 -315 c 1,79,80
 184 -281 184 -281 275 -248 c 1,81,82
 293 -299 293 -299 323 -340 c 0,83,84
 393 -435 393 -435 491 -461 c 0,85,86
 529 -471 529 -471 566 -471 c 0,87,88
 580 -471 580 -471 593 -470 c 0,89,90
 623 -467 623 -467 645 -458 c 0,91,92
 659 -452 659 -452 676 -446 c 0,93,94
 695 -439 695 -439 717 -431 c 1,95,96
 765 -407 765 -407 781 -334 c 128,-1,97
 797 -261 797 -261 797 -237 c 1,98,-1
 797 87 l 1,22,-1
EndSplineSet
Validated: 1
EndChar

StartChar: h
Encoding: 104 104 61
Width: 1207
Flags: W
HStem: 0 63.5<84.063 170.269 373.731 459.937 1047.73 1133.94> 871 91<533.064 797> 1339 66<84.7466 170.664> 1443 20G<330 362>
VStem: 182 180<65.873 810.566 853 1336.57> 856 180<65.873 746.073>
LayerCount: 2
Fore
SplineSet
362 146 m 2,0,1
 362 81 362 81 412 63.5 c 128,-1,2
 462 46 462 46 462 23 c 128,-1,3
 462 0 462 0 442 0 c 2,4,-1
 103 0 l 2,5,6
 82 0 82 0 82 23 c 128,-1,7
 82 46 82 46 132 63.5 c 128,-1,8
 182 81 182 81 182 146 c 2,9,-1
 182 1257 l 2,10,11
 182 1321 182 1321 132 1339 c 128,-1,12
 82 1357 82 1357 82 1383 c 0,13,14
 82 1405 82 1405 103 1405 c 0,15,16
 169 1408 169 1408 233.5 1424.5 c 128,-1,17
 298 1441 298 1441 362 1463 c 1,18,-1
 362 853 l 1,19,20
 417 874 417 874 459 890 c 128,-1,21
 501 906 501 906 566 928.5 c 128,-1,22
 631 951 631 951 686.5 956.5 c 128,-1,23
 742 962 742 962 755 962 c 0,24,25
 839 962 839 962 915 905 c 1,26,27
 1036 812 1036 812 1036 506 c 2,28,-1
 1036 146 l 2,29,30
 1036 81 1036 81 1086 63.5 c 128,-1,31
 1136 46 1136 46 1136 23 c 128,-1,32
 1136 0 1136 0 1116 0 c 2,33,-1
 873 0 l 2,34,35
 856 0 856 0 856 13 c 2,36,-1
 856 506 l 2,37,38
 856 725 856 725 765 814 c 0,39,40
 707 871 707 871 623 871 c 0,41,42
 575 871 575 871 535.5 857.5 c 128,-1,43
 496 844 496 844 462.5 831.5 c 128,-1,44
 429 819 429 819 405 810 c 256,45,46
 381 801 381 801 362 794 c 1,47,-1
 362 146 l 2,0,1
EndSplineSet
Validated: 1
EndChar

StartChar: k
Encoding: 107 107 62
Width: 1163
Flags: W
HStem: 0 63.5<104.747 190.269 393.731 479.253> 60 39<1128 1135.78> 782 147<801.707 976.516> 1339 66<104.747 190.664> 1443 20G<350 382>
VStem: 202 180<65.873 466.748 551 1336.57>
LayerCount: 2
Fore
SplineSet
382 443 m 1,0,-1
 382 146 l 2,1,2
 382 81 382 81 432 63.5 c 128,-1,3
 482 46 482 46 482 21 c 0,4,5
 482 0 482 0 462 0 c 2,6,-1
 123 0 l 2,7,8
 102 0 102 0 102 21 c 0,9,10
 102 46 102 46 152 63.5 c 128,-1,11
 202 81 202 81 202 146 c 2,12,-1
 202 1257 l 2,13,14
 202 1321 202 1321 152 1339 c 128,-1,15
 102 1357 102 1357 102 1383 c 0,16,17
 102 1405 102 1405 123 1405 c 0,18,19
 189 1405 189 1405 253.5 1423 c 128,-1,20
 318 1441 318 1441 382 1463 c 1,21,-1
 382 551 l 1,22,-1
 736 834 l 2,23,24
 797 884 797 884 844 913 c 0,25,26
 871 929 871 929 895 929 c 0,27,28
 913 929 913 929 930 920 c 1,29,-1
 1004 874 l 2,30,31
 1016 866 1016 866 1016 856 c 0,32,33
 1016 851 1016 851 1013 846 c 2,34,-1
 966 741 l 1,35,-1
 916 767 l 2,36,37
 886 782 886 782 858 782 c 0,38,39
 824 782 824 782 794 760 c 0,40,41
 649 651 649 651 538 565 c 1,42,-1
 886 225 l 2,43,44
 994 120 994 120 1026 106 c 0,45,46
 1049 95 1049 95 1073 95 c 0,47,48
 1083 95 1083 95 1094 97 c 0,49,50
 1102 99 1102 99 1109 99 c 0,51,52
 1129 99 1129 99 1136 84 c 0,53,54
 1138 78 1138 78 1138 74 c 0,55,56
 1138 64 1138 64 1128 60 c 2,57,-1
 1064 29 l 1,58,59
 1012 6 1012 6 967 6 c 0,60,61
 938 6 938 6 912 17 c 0,62,63
 847 43 847 43 793 96 c 2,64,-1
 412 467 l 1,65,66
 404 459 404 459 382 443 c 1,0,-1
EndSplineSet
Validated: 1
EndChar

StartChar: l
Encoding: 108 108 63
Width: 597
Flags: W
HStem: 0 63.5<104.747 190.269 393.731 479.253> 1339 66<104.747 190.664> 1443 20G<350 382>
VStem: 202 180<65.873 1336.57>
LayerCount: 2
Fore
SplineSet
382 146 m 2,0,1
 382 81 382 81 432 63.5 c 128,-1,2
 482 46 482 46 482 21 c 0,3,4
 482 0 482 0 462 0 c 2,5,-1
 123 0 l 2,6,7
 102 0 102 0 102 21 c 0,8,9
 102 46 102 46 152 63.5 c 128,-1,10
 202 81 202 81 202 146 c 2,11,-1
 202 1257 l 2,12,13
 202 1321 202 1321 152 1339 c 128,-1,14
 102 1357 102 1357 102 1383 c 0,15,16
 102 1405 102 1405 123 1405 c 0,17,18
 189 1405 189 1405 253.5 1423 c 128,-1,19
 318 1441 318 1441 382 1463 c 1,20,-1
 382 146 l 2,0,1
EndSplineSet
Validated: 1
EndChar

StartChar: m
Encoding: 109 109 64
Width: 1797
Flags: W
LayerCount: 2
Fore
SplineSet
751 962 m 0,0,1
 835 962 835 962 911 905 c 1,2,3
 937 884 937 884 953 863 c 1,4,5
 998 880 998 880 1034.5 893.5 c 128,-1,6
 1071 907 1071 907 1133.5 929 c 128,-1,7
 1196 951 1196 951 1251.5 956.5 c 128,-1,8
 1307 962 1307 962 1320 962 c 0,9,10
 1403 962 1403 962 1479 905 c 0,11,12
 1601 812 1601 812 1601 506 c 2,13,-1
 1601 146 l 2,14,15
 1601 81 1601 81 1651 63.5 c 128,-1,16
 1701 46 1701 46 1701 23 c 128,-1,17
 1701 0 1701 0 1680 0 c 2,18,-1
 1437 0 l 2,19,20
 1421 0 1421 0 1421 13 c 2,21,-1
 1421 506 l 2,22,23
 1421 725 1421 725 1330 814 c 0,24,25
 1272 871 1272 871 1188 871 c 0,26,27
 1140 871 1140 871 1101.5 858 c 128,-1,28
 1063 845 1063 845 1034.5 834.5 c 128,-1,29
 1006 824 1006 824 982 815 c 1,30,31
 1032 712 1032 712 1032 506 c 2,32,-1
 1032 146 l 2,33,34
 1032 81 1032 81 1082 63.5 c 128,-1,35
 1132 46 1132 46 1132 23 c 128,-1,36
 1132 0 1132 0 1112 0 c 2,37,-1
 773 0 l 2,38,39
 752 0 752 0 752 23 c 128,-1,40
 752 46 752 46 802 63.5 c 128,-1,41
 852 81 852 81 852 146 c 2,42,-1
 852 506 l 2,43,44
 852 725 852 725 761 814 c 0,45,46
 703 871 703 871 619 871 c 0,47,48
 571 871 571 871 525 855.5 c 128,-1,49
 479 840 479 840 445.5 827 c 128,-1,50
 412 814 412 814 379 802 c 1,51,-1
 379 146 l 2,52,53
 379 81 379 81 429 63.5 c 128,-1,54
 479 46 479 46 479 23 c 128,-1,55
 479 0 479 0 459 0 c 2,56,-1
 120 0 l 2,57,58
 99 0 99 0 99 23 c 128,-1,59
 99 46 99 46 149 63.5 c 128,-1,60
 199 81 199 81 199 146 c 2,61,-1
 199 786 l 2,62,63
 199 849 199 849 149 867 c 128,-1,64
 99 885 99 885 99 911 c 0,65,66
 99 932 99 932 120 932 c 0,67,68
 186 935 186 935 250.5 952.5 c 128,-1,69
 315 970 315 970 379 992 c 1,70,-1
 379 861 l 1,71,72
 426 879 426 879 463.5 893 c 128,-1,73
 501 907 501 907 564 929 c 128,-1,74
 627 951 627 951 682.5 956.5 c 128,-1,75
 738 962 738 962 751 962 c 0,0,1
EndSplineSet
Validated: 1
EndChar

StartChar: n
Encoding: 110 110 65
Width: 1191
Flags: W
LayerCount: 2
Fore
SplineSet
755 962 m 0,0,1
 839 962 839 962 915 905 c 1,2,3
 1036 812 1036 812 1036 506 c 2,4,-1
 1036 146 l 2,5,6
 1036 81 1036 81 1086 63.5 c 128,-1,7
 1136 46 1136 46 1136 23 c 128,-1,8
 1136 0 1136 0 1116 0 c 2,9,-1
 873 0 l 2,10,11
 856 0 856 0 856 13 c 2,12,-1
 856 506 l 2,13,14
 856 725 856 725 765 814 c 0,15,16
 707 871 707 871 623 871 c 0,17,18
 575 871 575 871 535.5 857.5 c 128,-1,19
 496 844 496 844 462.5 831.5 c 128,-1,20
 429 819 429 819 405 810 c 256,21,22
 381 801 381 801 362 794 c 1,23,-1
 362 146 l 2,24,25
 362 81 362 81 412 63.5 c 128,-1,26
 462 46 462 46 462 23 c 128,-1,27
 462 0 462 0 442 0 c 2,28,-1
 103 0 l 2,29,30
 82 0 82 0 82 23 c 128,-1,31
 82 46 82 46 132 63.5 c 128,-1,32
 182 81 182 81 182 146 c 2,33,-1
 182 786 l 2,34,35
 182 849 182 849 132 867 c 128,-1,36
 82 885 82 885 82 911 c 0,37,38
 82 932 82 932 103 932 c 0,39,40
 169 935 169 935 233.5 952.5 c 128,-1,41
 298 970 298 970 362 992 c 1,42,-1
 362 853 l 1,43,44
 417 874 417 874 459 890 c 128,-1,45
 501 906 501 906 566 928.5 c 128,-1,46
 631 951 631 951 686.5 956.5 c 128,-1,47
 742 962 742 962 755 962 c 0,0,1
EndSplineSet
Validated: 1
EndChar

StartChar: o
Encoding: 111 111 66
Width: 1107
Flags: W
HStem: -25 68<445.052 681.899> 889 67<450.82 659.441>
VStem: 62 192<257.895 672.233> 856 189<258.493 664.964>
LayerCount: 2
Fore
SplineSet
1045 459 m 2,0,1
 1045 259 1045 259 902.5 120 c 128,-1,2
 760 -19 760 -19 553 -25 c 1,3,-1
 537 -25 l 2,4,5
 345 -25 345 -25 203.5 119 c 128,-1,6
 62 263 62 263 62 462 c 2,7,-1
 62 465 l 1,8,9
 63 684 63 684 227 833 c 0,10,11
 246 851 246 851 283.5 864 c 128,-1,12
 321 877 321 877 380 898 c 128,-1,13
 439 919 439 919 490.5 937 c 128,-1,14
 542 955 542 955 574 956 c 2,15,-1
 577 956 l 1,16,17
 772 948 772 948 907 805.5 c 128,-1,18
 1042 663 1042 663 1045 465 c 1,19,-1
 1045 459 l 2,0,1
544 889 m 2,20,21
 427 889 427 889 340.5 772.5 c 128,-1,22
 254 656 254 656 254 481 c 256,23,24
 254 306 254 306 341.5 177.5 c 128,-1,25
 429 49 429 49 554 43 c 1,26,-1
 568 43 l 2,27,28
 684 43 684 43 770 159 c 128,-1,29
 856 275 856 275 856 450 c 256,30,31
 856 625 856 625 768 753.5 c 128,-1,32
 680 882 680 882 556 889 c 1,33,-1
 544 889 l 2,20,21
EndSplineSet
Validated: 1
EndChar

StartChar: p
Encoding: 112 112 67
Width: 1197
Flags: W
LayerCount: 2
Fore
SplineSet
1110 571 m 0,0,1
 1114 530 1114 530 1114 483.5 c 128,-1,2
 1114 437 1114 437 1104 370 c 128,-1,3
 1094 303 1094 303 1054 238.5 c 128,-1,4
 1014 174 1014 174 972 142.5 c 128,-1,5
 930 111 930 111 903 100 c 0,6,7
 728 34 728 34 646 4.5 c 128,-1,8
 564 -25 564 -25 548 -25 c 2,9,-1
 544 -25 l 1,10,11
 485 -22 485 -22 392 5 c 1,12,-1
 392 -441 l 2,13,14
 392 -505 392 -505 442 -523 c 128,-1,15
 492 -541 492 -541 492 -567 c 0,16,17
 492 -587 492 -587 472 -587 c 2,18,-1
 133 -587 l 2,19,20
 112 -587 112 -587 112 -567 c 0,21,22
 112 -541 112 -541 162 -523 c 128,-1,23
 212 -505 212 -505 212 -441 c 2,24,-1
 212 786 l 2,25,26
 212 849 212 849 162 867 c 128,-1,27
 112 885 112 885 112 911 c 0,28,29
 112 932 112 932 133 932 c 0,30,31
 199 935 199 935 263.5 952.5 c 128,-1,32
 328 970 328 970 392 992 c 1,33,-1
 392 848 l 1,34,-1
 655 945 l 2,35,36
 684 955 684 955 700 956 c 128,-1,37
 716 957 716 957 726 956.5 c 128,-1,38
 736 956 736 956 748 956 c 0,39,40
 889 950 889 950 993 840 c 1,41,42
 1095 729 1095 729 1110 571 c 0,0,1
613 56 m 2,43,44
 629 56 629 56 657.5 66.5 c 128,-1,45
 686 77 686 77 721.5 90 c 128,-1,46
 757 103 757 103 786.5 114 c 128,-1,47
 816 125 816 125 834 143 c 1,48,49
 894 208 894 208 913.5 290.5 c 128,-1,50
 933 373 933 373 933 420 c 128,-1,51
 933 467 933 467 931 489 c 0,52,53
 920 632 920 632 852.5 723.5 c 128,-1,54
 785 815 785 815 685 844 c 0,55,56
 645 855 645 855 619.5 855 c 128,-1,57
 594 855 594 855 577 853 c 128,-1,58
 560 851 560 851 535 842 c 128,-1,59
 510 833 510 833 467.5 817.5 c 128,-1,60
 425 802 425 802 392 790 c 1,61,-1
 392 150 l 1,62,63
 434 114 434 114 495.5 85.5 c 128,-1,64
 557 57 557 57 607 56 c 1,65,-1
 613 56 l 2,43,44
EndSplineSet
Validated: 1
EndChar

StartChar: q
Encoding: 113 113 68
Width: 1173
Flags: W
HStem: -587 64<716.125 801.269 1005.73 1090.88> -25 100<433.684 541> 874 82<523.344 719.271>
VStem: 82 180<264.605 666.637> 813 181<-520.57 86 127.333 805.479>
LayerCount: 2
Fore
SplineSet
489 -25 m 2,0,-1
 447 -25 l 1,1,2
 304 -18 304 -18 202 91 c 128,-1,3
 100 200 100 200 86 359 c 0,4,5
 82 402 82 402 82 447.5 c 128,-1,6
 82 493 82 493 91 559.5 c 128,-1,7
 100 626 100 626 141 691.5 c 128,-1,8
 182 757 182 757 223.5 788 c 128,-1,9
 265 819 265 819 319 839.5 c 128,-1,10
 373 860 373 860 453 889.5 c 128,-1,11
 533 919 533 919 582.5 937 c 128,-1,12
 632 955 632 955 648 956 c 2,13,-1
 652 956 l 1,14,15
 717 952 717 952 763.5 937 c 128,-1,16
 810 922 810 922 813 921 c 128,-1,17
 816 920 816 920 818 920 c 1,18,-1
 818 918 l 1,19,20
 841 909 841 909 862 902.5 c 128,-1,21
 883 896 883 896 895.5 896 c 128,-1,22
 908 896 908 896 924 909.5 c 128,-1,23
 940 923 940 923 947 932.5 c 128,-1,24
 954 942 954 942 960.5 942 c 128,-1,25
 967 942 967 942 980.5 937 c 128,-1,26
 994 932 994 932 994 920 c 2,27,-1
 994 -441 l 2,28,29
 994 -505 994 -505 1044 -523 c 128,-1,30
 1094 -541 1094 -541 1094 -567 c 0,31,32
 1094 -587 1094 -587 1073 -587 c 2,33,-1
 734 -587 l 2,34,35
 713 -587 713 -587 713 -567 c 0,36,37
 713 -541 713 -541 763 -523 c 128,-1,38
 813 -505 813 -505 813 -441 c 2,39,-1
 813 86 l 1,40,-1
 541 -14 l 2,41,42
 511 -25 511 -25 489 -25 c 2,0,-1
585 874 m 2,43,44
 565 874 565 874 537.5 863.5 c 128,-1,45
 510 853 510 853 474 839.5 c 128,-1,46
 438 826 438 826 408.5 815 c 128,-1,47
 379 804 379 804 362 787 c 0,48,49
 300 721 300 721 281 638.5 c 128,-1,50
 262 556 262 556 262 510 c 128,-1,51
 262 464 262 464 264 441 c 0,52,53
 275 297 275 297 341.5 206 c 128,-1,54
 408 115 408 115 510 86 c 0,55,56
 549 75 549 75 574.5 75 c 128,-1,57
 600 75 600 75 617.5 76.5 c 128,-1,58
 635 78 635 78 660.5 87.5 c 128,-1,59
 686 97 686 97 733.5 114.5 c 128,-1,60
 781 132 781 132 813 144 c 1,61,-1
 813 772 l 1,62,63
 771 809 771 809 705.5 840.5 c 128,-1,64
 640 872 640 872 589 874 c 1,65,-1
 585 874 l 2,43,44
EndSplineSet
Validated: 1
EndChar

StartChar: r
Encoding: 114 114 69
Width: 831
Flags: W
LayerCount: 2
Fore
SplineSet
403 595 m 1,0,-1
 403 146 l 2,1,2
 403 81 403 81 452.5 63.5 c 128,-1,3
 502 46 502 46 502 21 c 0,4,5
 502 0 502 0 482 0 c 2,6,-1
 143 0 l 2,7,8
 122 0 122 0 122 21 c 0,9,10
 122 46 122 46 172 63.5 c 128,-1,11
 222 81 222 81 222 146 c 2,12,-1
 222 786 l 2,13,14
 222 849 222 849 172 867 c 128,-1,15
 122 885 122 885 122 911 c 0,16,17
 122 932 122 932 143 932 c 0,18,19
 209 935 209 935 273.5 952.5 c 128,-1,20
 338 970 338 970 403 992 c 1,21,-1
 403 860 l 1,22,-1
 542 913 l 2,23,24
 619 942 619 942 662 956 c 0,25,26
 675 960 675 960 693 960 c 0,27,28
 730 960 730 960 787 940 c 1,29,-1
 765 689 l 1,30,-1
 719 689 l 1,31,32
 680 835 680 835 569 835 c 0,33,34
 558 835 558 835 547 834 c 0,35,36
 471 825 471 825 438.5 756.5 c 128,-1,37
 406 688 406 688 403 595 c 1,0,-1
EndSplineSet
Validated: 1
EndChar

StartChar: s
Encoding: 115 115 70
Width: 884
Flags: W
LayerCount: 2
Fore
SplineSet
731 679 m 2,0,-1
 728 679 l 1,1,2
 716 680 716 680 706 703 c 0,3,4
 670 778 670 778 601 828.5 c 128,-1,5
 532 879 532 879 452 882 c 1,6,-1
 448 882 l 2,7,8
 386 882 386 882 325.5 850.5 c 128,-1,9
 265 819 265 819 251 753 c 0,10,11
 246 731 246 731 246 713 c 0,12,13
 246 650 246 650 309.5 618.5 c 128,-1,14
 373 587 373 587 484.5 562 c 128,-1,15
 596 537 596 537 701.5 488 c 128,-1,16
 807 439 807 439 817 283 c 1,17,-1
 817 273 l 2,18,19
 817 199 817 199 757.5 122 c 128,-1,20
 698 45 698 45 603 12.5 c 128,-1,21
 508 -20 508 -20 419 -23 c 1,22,-1
 392 -23 l 2,23,24
 269 -23 269 -23 157 9 c 1,25,-1
 76 229 l 1,26,-1
 79 249 l 1,27,28
 80 264 80 264 97 264 c 2,29,-1
 99 264 l 1,30,31
 109 262 109 262 120 240 c 0,32,33
 166 141 166 141 232.5 99.5 c 128,-1,34
 299 58 299 58 401 55 c 1,35,-1
 413 55 l 2,36,37
 484 55 484 55 572.5 89.5 c 128,-1,38
 661 124 661 124 665 218 c 1,39,-1
 665 224 l 2,40,41
 665 332 665 332 561 361.5 c 128,-1,42
 457 391 457 391 367.5 416 c 128,-1,43
 278 441 278 441 191.5 499.5 c 128,-1,44
 105 558 105 558 105 672 c 2,45,-1
 105 677 l 1,46,47
 106 832 106 832 220 895.5 c 128,-1,48
 334 959 334 959 466 959 c 0,49,50
 478 959 478 959 490 958 c 0,51,52
 637 950 637 950 768 869 c 1,53,-1
 747 694 l 2,54,55
 745 679 745 679 731 679 c 2,0,-1
EndSplineSet
Validated: 1
EndChar

StartChar: t
Encoding: 116 116 71
Width: 682
Flags: W
HStem: 0 21G<485.5 560> 840 105<113.612 207 388 635.844> 840 47<68.0801 133.155>
VStem: 207 181<101.626 845 948 1184.88>
LayerCount: 2
Fore
SplineSet
88 840 m 2,0,1
 69 840 69 840 68 860 c 1,2,-1
 68 862 l 2,3,4
 68 878 68 878 87 887 c 0,5,6
 107 896 107 896 146 917 c 128,-1,7
 185 938 185 938 193.5 941.5 c 128,-1,8
 202 945 202 945 207 945 c 1,9,-1
 207 1116 l 2,10,11
 207 1166 207 1166 227.5 1185.5 c 128,-1,12
 248 1205 248 1205 298.5 1229 c 128,-1,13
 349 1253 349 1253 365 1253 c 0,14,15
 388 1253 388 1253 388 1227 c 2,16,-1
 388 948 l 1,17,-1
 627 953 l 2,18,19
 642 953 642 953 642 933 c 128,-1,20
 642 913 642 913 638 893 c 0,21,22
 628 846 628 846 593 846 c 2,23,-1
 388 847 l 1,24,-1
 388 220 l 2,25,26
 388 129 388 129 451.5 84 c 128,-1,27
 515 39 515 39 560 33 c 1,28,-1
 560 0 l 1,29,30
 411 0 411 0 309 28.5 c 128,-1,31
 207 57 207 57 207 250 c 2,32,-1
 207 845 l 1,33,-1
 88 840 l 2,0,1
EndSplineSet
Validated: 1
EndChar

StartChar: u
Encoding: 117 117 72
Width: 1239
Flags: W
LayerCount: 2
Fore
SplineSet
1040 146 m 2,0,1
 1040 81 1040 81 1090 63.5 c 128,-1,2
 1140 46 1140 46 1140 21 c 0,3,4
 1140 0 1140 0 1119 0 c 2,5,-1
 876 0 l 2,6,7
 859 0 859 0 859 13 c 2,8,-1
 859 78 l 1,9,10
 804 57 804 57 761.5 40.5 c 128,-1,11
 719 24 719 24 683 12 c 0,12,13
 590 -19 590 -19 492 -29 c 0,14,15
 478 -30 478 -30 465 -30 c 0,16,17
 382 -30 382 -30 307 26 c 0,18,19
 185 118 185 118 185 425 c 2,20,-1
 185 786 l 2,21,22
 185 849 185 849 135 867 c 128,-1,23
 85 885 85 885 85 911 c 0,24,25
 85 932 85 932 106 932 c 0,26,27
 172 935 172 935 236.5 952.5 c 128,-1,28
 301 970 301 970 366 992 c 1,29,-1
 366 425 l 2,30,31
 366 205 366 205 457 117 c 0,32,33
 515 60 515 60 599 60 c 0,34,35
 647 60 647 60 704 79 c 0,36,37
 725 86 725 86 759 99 c 128,-1,38
 793 112 793 112 817 121 c 0,39,40
 822 123 822 123 833.5 127 c 128,-1,41
 845 131 845 131 859 137 c 1,42,-1
 859 786 l 2,43,44
 859 849 859 849 809 867 c 128,-1,45
 759 885 759 885 759 911 c 0,46,47
 759 932 759 932 780 932 c 0,48,49
 846 935 846 935 910.5 952.5 c 128,-1,50
 975 970 975 970 1040 992 c 1,51,-1
 1040 146 l 2,0,1
EndSplineSet
Validated: 1
EndChar

StartChar: v
Encoding: 118 118 73
Width: 1036
Flags: W
HStem: -19 21G<515.5 605.5>
VStem: 856 128<707.037 845.805>
LayerCount: 2
Fore
SplineSet
355 805 m 2,0,-1
 617 166 l 1,1,-1
 847 717 l 2,2,3
 856 738 856 738 856 758 c 0,4,5
 856 793 856 793 828 826 c 2,6,-1
 795 865 l 1,7,-1
 885 937 l 2,8,9
 891 943 891 943 896 942 c 0,10,11
 905 940 905 940 911 934 c 2,12,-1
 967 877 l 2,13,14
 984 859 984 859 984 833 c 0,15,16
 984 818 984 818 978 800 c 0,17,18
 962 752 962 752 931 688 c 1,19,-1
 624 0 l 2,20,21
 619 -10 619 -10 614 -14 c 0,22,23
 608 -19 608 -19 603 -19 c 2,24,-1
 519 -19 l 2,25,26
 512 -19 512 -19 508 -13 c 0,27,28
 505 -12 505 -12 500 0 c 0,29,30
 496 12 496 12 494 21 c 2,31,-1
 167 800 l 2,32,33
 150 838 150 838 118 860 c 1,34,35
 97 873 97 873 76.5 882 c 128,-1,36
 56 891 56 891 44 900 c 1,37,38
 37 904 37 904 32 913 c 1,39,40
 31 917 31 917 31 920 c 256,41,42
 31 923 31 923 32 926 c 0,43,44
 35 931 35 931 43 931 c 2,45,-1
 371 931 l 2,46,47
 378 931 378 931 387 926 c 1,48,49
 395 919 395 919 398 913 c 0,50,51
 399 910 399 910 399 908 c 0,52,53
 399 899 399 899 389 890 c 0,54,55
 355 859 355 859 352 849 c 0,56,57
 349 840 349 840 349 830 c 0,58,59
 349 818 349 818 355 805 c 2,0,-1
EndSplineSet
Validated: 1
EndChar

StartChar: w
Encoding: 119 119 74
Width: 1647
Flags: W
HStem: -19 21G<514.5 606 1126.5 1217>
VStem: 1467 128<717 846.1>
LayerCount: 2
Fore
SplineSet
1458 717 m 2,0,1
 1467 738 1467 738 1467 765.5 c 128,-1,2
 1467 793 1467 793 1439 826 c 2,3,-1
 1406 865 l 1,4,-1
 1495 937 l 2,5,6
 1500 942 1500 942 1507 941 c 256,7,8
 1515 940 1515 940 1522 934 c 2,9,-1
 1578 877 l 2,10,11
 1595 859 1595 859 1595 838.5 c 128,-1,12
 1595 818 1595 818 1584 785 c 128,-1,13
 1573 752 1573 752 1542 688 c 1,14,-1
 1235 0 l 2,15,16
 1230 -10 1230 -10 1225 -14.5 c 128,-1,17
 1220 -19 1220 -19 1214 -19 c 2,18,-1
 1130 -19 l 2,19,20
 1123 -19 1123 -19 1120 -16 c 0,21,22
 1116 -12 1116 -12 1112 0 c 0,23,24
 1107 12 1107 12 1104 21 c 2,25,-1
 876 565 l 1,26,-1
 624 0 l 2,27,28
 619 -10 619 -10 614 -14.5 c 128,-1,29
 609 -19 609 -19 603 -19 c 2,30,-1
 519 -19 l 2,31,32
 510 -19 510 -19 508 -16 c 0,33,34
 505 -12 505 -12 500 0 c 0,35,36
 496 12 496 12 494 21 c 2,37,-1
 167 800 l 2,38,39
 150 838 150 838 123.5 855.5 c 128,-1,40
 97 873 97 873 76.5 882 c 128,-1,41
 56 891 56 891 46.5 897.5 c 128,-1,42
 37 904 37 904 34 910.5 c 128,-1,43
 31 917 31 917 31 920 c 256,44,45
 31 923 31 923 32 926 c 0,46,47
 35 931 35 931 43 931 c 2,48,-1
 371 931 l 2,49,50
 378 931 378 931 387 926 c 1,51,52
 395 919 395 919 397 914.5 c 128,-1,53
 399 910 399 910 399 904.5 c 128,-1,54
 399 899 399 899 377 879 c 128,-1,55
 355 859 355 859 352 849.5 c 128,-1,56
 349 840 349 840 349 829 c 128,-1,57
 349 818 349 818 355 805 c 2,58,-1
 617 166 l 1,59,-1
 830 676 l 1,60,-1
 778 800 l 2,61,62
 761 838 761 838 734.5 855.5 c 128,-1,63
 708 873 708 873 687.5 882 c 128,-1,64
 667 891 667 891 656 898.5 c 128,-1,65
 645 906 645 906 643.5 911.5 c 128,-1,66
 642 917 642 917 642 920 c 256,67,68
 642 923 642 923 643 926 c 0,69,70
 646 931 646 931 654 931 c 2,71,-1
 982 931 l 2,72,73
 989 931 989 931 998 926 c 1,74,75
 1006 919 1006 919 1008 914.5 c 128,-1,76
 1010 910 1010 910 1010 904.5 c 128,-1,77
 1010 899 1010 899 988 879 c 128,-1,78
 966 859 966 859 963 849.5 c 128,-1,79
 960 840 960 840 960 829 c 128,-1,80
 960 818 960 818 966 805 c 2,81,-1
 1228 166 l 1,82,-1
 1458 717 l 2,0,1
EndSplineSet
Validated: 1
EndChar

StartChar: x
Encoding: 120 120 75
Width: 1098
Flags: W
LayerCount: 2
Fore
SplineSet
163 97 m 2,0,-1
 449 447 l 1,1,-1
 184 832 l 2,2,3
 168 856 168 856 130 876 c 0,4,5
 111 886 111 886 93 892.5 c 128,-1,6
 75 899 75 899 64 906 c 0,7,8
 41 919 41 919 41 924 c 256,9,10
 41 929 41 929 56 929 c 2,11,-1
 378 929 l 2,12,13
 393 929 393 929 403 915 c 0,14,15
 406 911 406 911 406 906 c 0,16,17
 406 900 406 900 397 895 c 0,18,19
 382 886 382 886 381 868 c 0,20,21
 381 853 381 853 393 836 c 2,22,-1
 564 587 l 1,23,-1
 734 796 l 2,24,25
 825 907 825 907 850 929 c 0,26,27
 859 937 859 937 875 937 c 0,28,29
 899 937 899 937 937 917 c 2,30,-1
 1001 883 l 2,31,32
 1010 878 1010 878 1010 869 c 0,33,34
 1010 864 1010 864 1007 858 c 2,35,-1
 956 754 l 1,36,37
 919 774 919 774 888 789 c 0,38,39
 880 793 880 793 872 793 c 0,40,41
 848 793 848 793 820 758 c 2,42,-1
 617 510 l 1,43,-1
 902 97 l 1,44,45
 920 68 920 68 961 51 c 0,46,47
 976 44 976 44 991.5 37.5 c 128,-1,48
 1007 31 1007 31 1022 23 c 0,49,50
 1045 10 1045 10 1045 5 c 256,51,52
 1045 0 1045 0 1030 0 c 2,53,-1
 708 0 l 2,54,55
 693 0 693 0 683 13 c 0,56,57
 680 18 680 18 680 22 c 0,58,59
 680 28 680 28 689 34 c 0,60,61
 703 42 703 42 705 60 c 1,62,-1
 705 62 l 2,63,64
 705 76 705 76 693 93 c 2,65,-1
 503 370 l 1,66,-1
 279 97 l 1,67,68
 260 71 260 71 260 55 c 2,69,-1
 260 52 l 2,70,71
 260 39 260 39 265 32 c 0,72,73
 266 29 266 29 266 26 c 0,74,75
 266 20 266 20 261 14 c 0,76,77
 252 0 252 0 242 0 c 2,78,-1
 34 0 l 2,79,80
 24 0 24 0 24 5 c 0,81,82
 24 9 24 9 28 14 c 0,83,84
 41 30 41 30 84 41 c 128,-1,85
 127 52 127 52 163 97 c 2,0,-1
EndSplineSet
Validated: 1
EndChar

StartChar: y
Encoding: 121 121 76
Width: 1036
Flags: W
HStem: -563 133<219.005 349.298>
VStem: 856 128<717 846.1>
LayerCount: 2
Fore
SplineSet
65 887 m 128,-1,1
 38 898 38 898 34 908 c 128,-1,2
 30 918 30 918 30 924.5 c 128,-1,3
 30 931 30 931 43 931 c 2,4,-1
 371 931 l 2,5,6
 390 931 390 931 395 920 c 128,-1,7
 400 909 400 909 400 905 c 0,8,9
 400 893 400 893 380.5 883 c 128,-1,10
 361 873 361 873 355 856.5 c 128,-1,11
 349 840 349 840 349 829 c 128,-1,12
 349 818 349 818 355 805 c 2,13,-1
 617 166 l 1,14,-1
 847 717 l 2,15,16
 856 738 856 738 856 765.5 c 128,-1,17
 856 793 856 793 828 826 c 2,18,-1
 795 865 l 1,19,-1
 885 937 l 2,20,21
 891 943 891 943 897 942.5 c 128,-1,22
 903 942 903 942 911 934 c 2,23,-1
 967 877 l 2,24,25
 984 859 984 859 984 838.5 c 128,-1,26
 984 818 984 818 973 785 c 128,-1,27
 962 752 962 752 931 688 c 1,28,-1
 436 -414 l 2,29,30
 406 -480 406 -480 382 -523 c 128,-1,31
 358 -566 358 -566 321 -566 c 1,32,-1
 238 -563 l 1,33,34
 219 -560 219 -560 219 -544 c 2,35,-1
 213 -430 l 1,36,-1
 264 -429 l 2,37,38
 331 -427 331 -427 359 -370 c 2,39,-1
 528 -19 l 1,40,41
 512 -19 512 -19 509 -16 c 0,42,43
 505 -12 505 -12 500 0 c 0,44,45
 496 12 496 12 494 21 c 2,46,-1
 167 800 l 2,47,48
 150 838 150 838 121 857 c 128,-1,0
 92 876 92 876 65 887 c 128,-1,1
EndSplineSet
Validated: 1
EndChar

StartChar: z
Encoding: 122 122 77
Width: 1019
Flags: W
HStem: 0 79<294 818.406> 861 84<254.844 699>
LayerCount: 2
Fore
SplineSet
932 880 m 2,0,-1
 294 79 l 1,1,-1
 728 79 l 1,2,3
 779 81 779 81 814 114 c 128,-1,4
 849 147 849 147 892 207 c 0,5,6
 917 241 917 241 924 241 c 0,7,8
 942 241 942 241 942 223 c 2,9,-1
 942 65 l 2,10,11
 942 16 942 16 929 8 c 128,-1,12
 916 0 916 0 845 0 c 2,13,-1
 160 0 l 1,14,15
 88 1 88 1 63 8 c 0,16,17
 51 11 51 11 51 21 c 0,18,19
 51 32 51 32 67 51 c 2,20,-1
 699 861 l 1,21,-1
 347 861 l 2,22,23
 295 861 295 861 263 828 c 128,-1,24
 231 795 231 795 189 736 c 1,25,26
 164 703 164 703 157 703 c 0,27,28
 138 703 138 703 138 720 c 2,29,-1
 138 879 l 2,30,31
 138 926 138 926 154 937 c 0,32,33
 166 945 166 945 212 945 c 0,34,35
 221 946 221 946 236 945 c 2,36,-1
 858 945 l 2,37,38
 947 945 947 945 947 913 c 0,39,40
 947 899 947 899 932 880 c 2,0,-1
EndSplineSet
Validated: 1
EndChar

StartChar: braceleft
Encoding: 123 123 78
Width: 1024
Flags: W
LayerCount: 2
Fore
SplineSet
158 613 m 0,0,1
 142 614 142 614 136 624 c 1,2,3
 130 631 130 631 130 643 c 0,4,5
 130 647 130 647 131 652 c 0,6,7
 134 670 134 670 158 673 c 0,8,9
 310 686 310 686 366 746 c 0,10,11
 399 782 399 782 409.5 843 c 128,-1,12
 420 904 420 904 420 961 c 2,13,-1
 420 1173 l 2,14,15
 420 1245 420 1245 434.5 1321.5 c 128,-1,16
 449 1398 449 1398 496 1443 c 0,17,18
 570 1516 570 1516 774 1516 c 0,19,20
 794 1516 794 1516 802 1507 c 1,21,22
 812 1492 812 1492 812 1482 c 0,23,24
 812 1466 812 1466 782 1466 c 0,25,26
 649 1464 649 1464 602 1411 c 1,27,28
 571 1378 571 1378 562.5 1317.5 c 128,-1,29
 554 1257 554 1257 554 1204 c 2,30,-1
 554 1061 l 2,31,32
 554 984 554 984 543.5 895.5 c 128,-1,33
 533 807 533 807 497 755 c 0,34,35
 440 673 440 673 286 642 c 1,36,37
 439 611 439 611 497 529 c 0,38,39
 533 477 533 477 543.5 389 c 128,-1,40
 554 301 554 301 554 223 c 2,41,-1
 554 80 l 2,42,43
 554 -73 554 -73 602 -126 c 0,44,45
 650 -178 650 -178 782 -180 c 0,46,47
 798 -180 798 -180 804 -195 c 0,48,49
 806 -201 806 -201 806 -207 c 0,50,51
 806 -215 806 -215 800 -223 c 0,52,53
 793 -231 793 -231 774 -231 c 0,54,55
 572 -231 572 -231 496 -158 c 0,56,57
 449 -113 449 -113 434.5 -37 c 128,-1,58
 420 39 420 39 420 112 c 2,59,-1
 420 323 l 2,60,61
 420 380 420 380 409 441.5 c 128,-1,62
 398 503 398 503 365 541 c 1,63,64
 330 577 330 577 271.5 593 c 128,-1,65
 213 609 213 609 158 613 c 0,0,1
EndSplineSet
Validated: 1
EndChar

StartChar: bar
Encoding: 124 124 79
Width: 1024
Flags: W
LayerCount: 2
Fore
SplineSet
450 1490 m 1,0,-1
 591 1490 l 1,1,-1
 591 -227 l 1,2,-1
 450 -227 l 1,3,-1
 450 1490 l 1,0,-1
EndSplineSet
Validated: 1
EndChar

StartChar: asciitilde
Encoding: 126 126 80
Width: 1024
Flags: W
LayerCount: 2
Fore
SplineSet
963 729 m 0,0,1
 902 616 902 616 847 565 c 0,2,3
 787 510 787 510 722 510 c 0,4,5
 609 510 609 510 474 594 c 0,6,7
 399 640 399 640 332 640 c 0,8,9
 280 640 280 640 233 611 c 0,10,11
 221 603 221 603 204 592.5 c 128,-1,12
 187 582 187 582 167 564 c 0,13,14
 132 531 132 531 106 491 c 0,15,16
 99 481 99 481 89 481 c 0,17,18
 81 481 81 481 71 487 c 0,19,20
 58 494 58 494 58 506 c 0,21,22
 58 516 58 516 66 529 c 0,23,24
 113 601 113 601 161.5 677 c 128,-1,25
 210 753 210 753 312 753 c 0,26,27
 438 753 438 753 567 666 c 0,28,29
 636 619 636 619 704 619 c 0,30,31
 763 619 763 619 821 654 c 1,32,33
 876 686 876 686 917 761 c 0,34,35
 924 773 924 773 938 773 c 0,36,37
 941 773 941 773 944 772 c 0,38,39
 963 769 963 769 966 751 c 0,40,41
 967 748 967 748 967 745 c 0,42,43
 967 738 967 738 963 729 c 0,0,1
EndSplineSet
Validated: 1
EndChar

StartChar: cent
Encoding: 162 162 81
Width: 925
Flags: W
HStem: 869 85<395.854 528 612 724.074>
VStem: 79 188<281.485 679.941> 528 84<-212 -25 79 869 951.366 1115>
LayerCount: 2
Fore
SplineSet
528 1115 m 1,0,-1
 612 1115 l 1,1,-1
 612 955 l 1,2,3
 754 947 754 947 876 869 c 1,4,-1
 859 699 l 2,5,6
 857 686 857 686 847 686 c 0,7,8
 846 686 846 686 845 686 c 0,9,10
 834 687 834 687 825 706 c 0,11,12
 787 789 787 789 720 832 c 0,13,14
 674 862 674 862 612 869 c 1,15,-1
 612 70 l 1,16,17
 702 73 702 73 770 114 c 0,18,19
 844 159 844 159 860.5 159 c 128,-1,20
 877 159 877 159 882 158 c 1,21,22
 884 153 884 153 884 142 c 128,-1,23
 884 131 884 131 870.5 106.5 c 128,-1,24
 857 82 857 82 838 65 c 1,25,26
 749 -7 749 -7 612 -21 c 1,27,-1
 612 -212 l 1,28,-1
 528 -212 l 1,29,-1
 528 -25 l 1,30,31
 351 -21 351 -21 228 78 c 1,32,33
 79 204 79 204 79 446 c 0,34,35
 79 501 79 501 87 563 c 1,36,37
 130 785 130 785 316 891 c 0,38,39
 409 944 409 944 528 954 c 1,40,-1
 528 1115 l 1,0,-1
528 869 m 1,41,42
 427 861 427 861 374 810 c 0,43,44
 267 707 267 707 267 519 c 0,45,46
 267 503 267 503 270 458 c 0,47,48
 280 309 280 309 351 214 c 0,49,50
 431 107 431 107 528 79 c 1,51,-1
 528 869 l 1,41,42
EndSplineSet
Validated: 1
EndChar

StartChar: sterling
Encoding: 163 163 82
Width: 1024
Flags: W
LayerCount: 2
Fore
SplineSet
72 108 m 0,0,1
 72 29 72 29 135 29 c 0,2,3
 191 29 191 29 213.5 74.5 c 128,-1,4
 236 120 236 120 250 164 c 1,5,6
 213 201 213 201 174 201 c 0,7,8
 72 201 72 201 72 108 c 0,0,1
64 784 m 2,9,-1
 240 784 l 1,10,11
 232 862 232 862 232 928 c 0,12,13
 232 985 232 985 238 1033 c 0,14,15
 251 1152 251 1152 295 1238 c 0,16,17
 402 1443 402 1443 638 1443 c 0,18,19
 708 1443 708 1443 774 1408 c 128,-1,20
 840 1373 840 1373 873 1308 c 1,21,22
 888 1276 888 1276 891 1237 c 1,23,-1
 891 1230 l 2,24,25
 891 1195 891 1195 866 1170 c 0,26,27
 839 1143 839 1143 811 1143 c 0,28,29
 786 1143 786 1143 759 1165 c 1,30,31
 733 1184 733 1184 727 1228.5 c 128,-1,32
 721 1273 721 1273 717 1302 c 1,33,34
 705 1371 705 1371 627 1383 c 0,35,36
 609 1385 609 1385 593 1385 c 0,37,38
 538 1385 538 1385 503 1355 c 0,39,40
 440 1301 440 1301 423.5 1229 c 128,-1,41
 407 1157 407 1157 407 1079 c 0,42,43
 407 1004 407 1004 413.5 930.5 c 128,-1,44
 420 857 420 857 426 784 c 1,45,-1
 687 784 l 2,46,47
 702 784 702 784 702 769 c 2,48,-1
 702 699 l 2,49,50
 702 684 702 684 687 684 c 2,51,-1
 432 684 l 1,52,53
 434 650 434 650 434 615 c 256,54,55
 434 580 434 580 432 545 c 0,56,57
 426 463 426 463 407 389 c 128,-1,58
 388 315 388 315 372 237 c 1,59,60
 426 218 426 218 480 199.5 c 128,-1,61
 534 181 534 181 590 167 c 0,62,63
 651 152 651 152 703 152 c 0,64,65
 745 152 745 152 782 162 c 0,66,67
 858 183 858 183 902 249 c 0,68,69
 916 270 916 270 919 292 c 128,-1,70
 922 314 922 314 950 314 c 0,71,72
 970 314 970 314 970 291 c 0,73,74
 970 258 970 258 958.5 228.5 c 128,-1,75
 947 199 947 199 936 170 c 0,76,77
 899 75 899 75 818 17 c 1,78,79
 746 -31 746 -31 667 -31 c 0,80,81
 656 -31 656 -31 646 -30 c 0,82,83
 555 -23 555 -23 478 29 c 0,84,85
 459 42 459 42 404.5 76.5 c 128,-1,86
 350 111 350 111 329 129 c 1,87,88
 273 43 273 43 205 -10 c 1,89,90
 175 -32 175 -32 140 -32 c 0,91,92
 120 -32 120 -32 99 -25 c 0,93,94
 40 -5 40 -5 18 45 c 0,95,96
 9 65 9 65 9 90 c 0,97,98
 9 114 9 114 18 143 c 0,99,100
 35 201 35 201 68 228 c 0,101,102
 116 266 116 266 157 266 c 2,103,-1
 163 266 l 1,104,105
 205 263 205 263 262 259 c 1,106,107
 268 309 268 309 268 357 c 2,108,-1
 268 387 l 1,109,110
 265 449 265 449 263 511 c 1,111,112
 259 585 259 585 249 684 c 1,113,-1
 64 684 l 2,114,115
 49 684 49 684 49 699 c 2,116,-1
 49 769 l 2,117,118
 49 784 49 784 64 784 c 2,9,-1
EndSplineSet
Validated: 1
EndChar

StartChar: currency
Encoding: 164 164 83
Width: 1024
Flags: W
LayerCount: 2
Fore
SplineSet
513 732 m 0,0,1
 406 732 406 732 331 656.5 c 128,-1,2
 256 581 256 581 256 475 c 256,3,4
 256 369 256 369 331 294 c 128,-1,5
 406 219 406 219 513 219 c 0,6,7
 618 219 618 219 693.5 294 c 128,-1,8
 769 369 769 369 769 475 c 256,9,10
 769 581 769 581 693.5 656.5 c 128,-1,11
 618 732 618 732 513 732 c 0,0,1
513 822 m 256,12,13
 629 822 629 822 723 751 c 1,14,-1
 867 895 l 2,15,16
 873 901 873 901 878 901 c 256,17,18
 883 901 883 901 887 896 c 2,19,-1
 934 850 l 2,20,21
 938 845 938 845 938 840 c 256,22,23
 938 835 938 835 933 830 c 2,24,-1
 788 685 l 1,25,26
 859 593 859 593 859 476 c 0,27,28
 859 358 859 358 788 267 c 1,29,-1
 933 123 l 2,30,31
 938 117 938 117 938 112 c 256,32,33
 938 107 938 107 934 102 c 2,34,-1
 887 56 l 2,35,36
 882 51 882 51 877 51 c 256,37,38
 872 51 872 51 867 57 c 2,39,-1
 723 201 l 1,40,41
 630 131 630 131 513 131 c 256,42,43
 396 131 396 131 304 201 c 1,44,-1
 160 57 l 2,45,46
 154 51 154 51 149 51 c 256,47,48
 144 51 144 51 139 56 c 2,49,-1
 93 102 l 2,50,51
 88 107 88 107 88 112 c 256,52,53
 88 117 88 117 94 123 c 2,54,-1
 238 267 l 1,55,56
 168 359 168 359 168 476 c 0,57,58
 168 592 168 592 238 685 c 1,59,-1
 94 830 l 2,60,61
 88 835 88 835 88 840 c 256,62,63
 88 845 88 845 93 850 c 2,64,-1
 139 896 l 2,65,66
 144 901 144 901 149 901 c 256,67,68
 154 901 154 901 160 895 c 2,69,-1
 304 751 l 1,70,71
 397 822 397 822 513 822 c 256,12,13
EndSplineSet
Validated: 1
EndChar

StartChar: yen
Encoding: 165 165 84
Width: 1366
Flags: W
HStem: 0 63.5<519.747 605.269 809.731 895.253> 421 79<315 617 798 1139> 642 79<315 563 865 1139> 1385 20G<52.5 400 1142 1151.5>
VStem: 617 181<65.873 421 500 640.999>
LayerCount: 2
Fore
SplineSet
1139 500 m 1,0,-1
 1139 421 l 1,1,-1
 798 421 l 1,2,-1
 798 146 l 2,3,4
 798 81 798 81 848 63.5 c 128,-1,5
 898 46 898 46 898 21 c 0,6,7
 898 0 898 0 877 0 c 2,8,-1
 538 0 l 2,9,10
 517 0 517 0 517 21 c 0,11,12
 517 46 517 46 567 63.5 c 128,-1,13
 617 81 617 81 617 146 c 2,14,-1
 617 421 l 1,15,-1
 315 421 l 1,16,-1
 315 500 l 1,17,-1
 617 500 l 1,18,-1
 617 573 l 2,19,20
 617 610 617 610 606 642 c 1,21,-1
 315 642 l 1,22,-1
 315 721 l 1,23,-1
 563 721 l 1,24,-1
 240 1258 l 1,25,26
 217 1292 217 1292 163 1325 c 1,27,28
 135 1340 135 1340 110 1350 c 0,29,30
 80 1360 80 1360 68 1369 c 128,-1,31
 56 1378 56 1378 51 1385 c 0,32,33
 47 1391 47 1391 47 1394 c 2,34,-1
 47 1398 l 1,35,36
 48 1405 48 1405 57 1405 c 2,37,-1
 396 1405 l 2,38,39
 404 1405 404 1405 415 1398 c 0,40,41
 429 1389 429 1389 432 1385 c 0,42,43
 435 1380 435 1380 435 1373 c 128,-1,44
 435 1366 435 1366 428 1358 c 0,45,46
 421 1349 421 1349 411 1338.5 c 128,-1,47
 401 1328 401 1328 400 1313 c 1,48,-1
 400 1308 l 2,49,50
 400 1286 400 1286 416 1263 c 1,51,-1
 753 729 l 1,52,-1
 1012 1124 l 2,53,54
 1042 1168 1042 1168 1047 1200 c 0,55,56
 1048 1205 1048 1205 1047 1210 c 0,57,58
 1037 1260 1037 1260 1023 1288 c 2,59,-1
 989 1356 l 1,60,-1
 1132 1418 l 2,61,62
 1139 1421 1139 1421 1145 1421 c 0,63,64
 1158 1421 1158 1421 1169 1405 c 1,65,-1
 1229 1304 l 2,66,67
 1240 1285 1240 1285 1240 1266 c 0,68,69
 1240 1232 1240 1232 1206 1197 c 0,70,71
 1153 1141 1153 1141 1093 1054 c 2,72,-1
 865 721 l 1,73,-1
 1139 721 l 1,74,-1
 1139 642 l 1,75,-1
 815 642 l 1,76,77
 809 624 809 624 804 590 c 0,78,79
 798 545 798 545 798 500 c 1,80,-1
 1139 500 l 1,0,-1
EndSplineSet
Validated: 1
EndChar

StartChar: brokenbar
Encoding: 166 166 85
Width: 1024
Flags: W
LayerCount: 2
Fore
SplineSet
340 1490 m 1,0,-1
 472 1490 l 1,1,-1
 472 813 l 1,2,-1
 340 813 l 1,3,-1
 340 1490 l 1,0,-1
340 -223 m 1,4,-1
 340 453 l 1,5,-1
 472 453 l 1,6,-1
 472 -223 l 1,7,-1
 340 -223 l 1,4,-1
EndSplineSet
Validated: 1
EndChar

StartChar: section
Encoding: 167 167 86
Width: 1024
Flags: W
LayerCount: 2
Fore
SplineSet
499 -365 m 0,0,1
 574 -359 574 -359 643 -325 c 128,-1,2
 712 -291 712 -291 754 -224 c 0,3,4
 797 -154 797 -154 797 -58 c 2,5,-1
 797 -47 l 1,6,7
 794 56 794 56 718 111 c 0,8,9
 682 137 682 137 632 152 c 1,10,11
 534 179 534 179 432.5 190 c 128,-1,12
 331 201 331 201 239 246 c 0,13,14
 157 285 157 285 116.5 360 c 128,-1,15
 76 435 76 435 76 524 c 0,16,17
 76 692 76 692 190 802 c 1,18,19
 76 889 76 889 76 1051 c 0,20,21
 76 1224 76 1224 196 1335 c 0,22,23
 321 1450 321 1450 508 1450 c 0,24,25
 522 1450 522 1450 536 1449 c 0,26,27
 742 1440 742 1440 887 1347 c 1,28,-1
 864 1153 l 2,29,30
 862 1135 862 1135 849 1135 c 0,31,32
 846 1135 846 1135 843 1136 c 0,33,34
 830 1137 830 1137 820 1162 c 1,35,36
 781 1245 781 1245 704.5 1303.5 c 128,-1,37
 628 1362 628 1362 541 1366 c 1,38,-1
 526 1366 l 2,39,40
 441 1366 441 1366 375 1335 c 0,41,42
 333 1315 333 1315 305 1286 c 0,43,44
 280 1261 280 1261 263 1222 c 1,45,46
 247 1188 247 1188 240 1152 c 0,47,48
 234 1122 234 1122 234 1094 c 0,49,50
 234 1059 234 1059 244 1029 c 0,51,52
 263 967 263 967 311 933 c 1,53,54
 343 908 343 908 389 896 c 0,55,56
 413 890 413 890 446 884.5 c 128,-1,57
 479 879 479 879 515 873 c 0,58,59
 567 864 567 864 626 855 c 128,-1,60
 685 846 685 846 740 830 c 1,61,62
 834 799 834 799 878 751 c 0,63,64
 911 716 911 716 933 668 c 1,65,66
 958 607 958 607 958 534 c 0,67,68
 958 371 958 371 848 252 c 1,69,70
 864 240 864 240 878 225 c 0,71,72
 912 187 912 187 933 141 c 1,73,74
 958 80 958 80 958 7 c 0,75,76
 958 -188 958 -188 797 -321 c 1,77,78
 715 -387 715 -387 613 -422 c 1,79,80
 537 -447 537 -447 440 -453 c 0,81,82
 421 -454 421 -454 402 -454 c 0,83,84
 272 -454 272 -454 153 -417 c 1,85,-1
 66 -172 l 2,86,87
 64 -167 64 -167 64 -163 c 0,88,89
 64 -153 64 -153 71 -144 c 1,90,91
 77 -133 77 -133 87 -133 c 2,92,-1
 90 -133 l 1,93,94
 100 -134 100 -134 113 -159 c 1,95,96
 173 -287 173 -287 263 -330 c 1,97,98
 337 -367 337 -367 450 -367 c 0,99,100
 474 -367 474 -367 499 -365 c 0,0,1
752 299 m 1,101,-1
 754 301 l 1,102,103
 797 370 797 370 797 468 c 2,104,-1
 797 479 l 1,105,106
 794 583 794 583 718 638 c 0,107,108
 679 665 679 665 632 679 c 1,109,110
 549 701 549 701 463 711.5 c 128,-1,111
 377 722 377 722 296 749 c 1,112,113
 276 727 276 727 263 696 c 1,114,115
 247 663 247 663 240 625 c 0,116,117
 234 595 234 595 234 567 c 0,118,119
 234 532 234 532 244 502 c 0,120,121
 264 439 264 439 311 407 c 1,122,123
 342 381 342 381 389 370 c 0,124,125
 425 361 425 361 515 346 c 0,126,127
 567 337 567 337 626 328 c 128,-1,128
 685 319 685 319 740 303 c 0,129,130
 743 302 743 302 746 300.5 c 128,-1,131
 749 299 749 299 752 299 c 1,101,-1
EndSplineSet
Validated: 1
EndChar

StartChar: copyright
Encoding: 169 169 87
Width: 1532
Flags: W
LayerCount: 2
Fore
SplineSet
767 1452 m 256,0,1
 1076 1452 1076 1452 1295 1234 c 128,-1,2
 1514 1016 1514 1016 1514 708 c 0,3,4
 1514 399 1514 399 1295 181.5 c 128,-1,5
 1076 -36 1076 -36 767 -36 c 256,6,7
 458 -36 458 -36 239 181.5 c 128,-1,8
 20 399 20 399 20 708 c 0,9,10
 20 1016 20 1016 239 1234 c 128,-1,11
 458 1452 458 1452 767 1452 c 256,0,1
767 1372 m 256,12,13
 491 1372 491 1372 296 1177.5 c 128,-1,14
 101 983 101 983 101 708 c 0,15,16
 101 432 101 432 296 238 c 128,-1,17
 491 44 491 44 767 44 c 256,18,19
 1043 44 1043 44 1238.5 238 c 128,-1,20
 1434 432 1434 432 1434 708 c 0,21,22
 1434 983 1434 983 1238.5 1177.5 c 128,-1,23
 1043 1372 1043 1372 767 1372 c 256,12,13
823 1137 m 2,24,25
 963 1137 963 1137 1081 1062 c 1,26,-1
 1066 916 l 2,27,28
 1064 905 1064 905 1056 905 c 0,29,30
 1055 905 1055 905 1054 905 c 0,31,32
 1044 906 1044 906 1037 922 c 0,33,34
 1003 997 1003 997 947.5 1030 c 128,-1,35
 892 1063 892 1063 812 1063 c 2,36,-1
 792 1063 l 1,37,38
 697 1058 697 1058 649 1012 c 0,39,40
 557 925 557 925 557 762 c 0,41,42
 557 737 557 737 560 709 c 0,43,44
 569 581 569 581 629 499 c 0,45,46
 709 392 709 392 808 377 c 1,47,48
 825 375 825 375 842 375 c 0,49,50
 927 375 927 375 990 413.5 c 128,-1,51
 1053 452 1053 452 1067.5 452 c 128,-1,52
 1082 452 1082 452 1086 451 c 1,53,54
 1088 447 1088 447 1088 437.5 c 128,-1,55
 1088 428 1088 428 1076 407 c 128,-1,56
 1064 386 1064 386 1048 371 c 1,57,58
 953 294 953 294 793 294 c 128,-1,59
 633 294 633 294 523 382 c 1,60,61
 395 490 395 490 395 699 c 0,62,63
 395 746 395 746 402 799 c 1,64,65
 439 989 439 989 599 1081 c 0,66,67
 688 1132 688 1132 805 1137 c 1,68,-1
 823 1137 l 2,24,25
EndSplineSet
Validated: 1
EndChar

StartChar: logicalnot
Encoding: 172 172 88
Width: 1100
Flags: W
LayerCount: 2
Fore
SplineSet
1034 341 m 1,0,-1
 917 341 l 1,1,-1
 917 775 l 1,2,-1
 66 775 l 1,3,-1
 66 887 l 1,4,-1
 1034 887 l 1,5,-1
 1034 341 l 1,0,-1
EndSplineSet
Validated: 1
EndChar

StartChar: uni00AD
Encoding: 173 173 89
Width: 680
Flags: W
LayerCount: 2
Fore
SplineSet
161 409 m 2,0,1
 121 409 121 409 121 437 c 2,2,-1
 121 520 l 2,3,4
 121 549 121 549 162 549 c 2,5,-1
 518 549 l 2,6,7
 559 549 559 549 559 520 c 2,8,-1
 559 437 l 2,9,10
 559 409 559 409 519 409 c 2,11,-1
 161 409 l 2,0,1
EndSplineSet
Validated: 1
EndChar

StartChar: macron
Encoding: 175 175 90
Width: 1000
Flags: W
LayerCount: 2
Fore
SplineSet
200 1347 m 2,0,-1
 800 1347 l 2,1,2
 810 1347 810 1347 810 1337 c 2,3,-1
 810 1251 l 2,4,5
 810 1240 810 1240 800 1240 c 2,6,-1
 200 1240 l 2,7,8
 190 1240 190 1240 190 1251 c 2,9,-1
 190 1337 l 2,10,11
 190 1347 190 1347 200 1347 c 2,0,-1
EndSplineSet
Validated: 1
EndChar

StartChar: degree
Encoding: 176 176 91
Width: 819
Flags: W
LayerCount: 2
Fore
SplineSet
406 1387 m 0,0,1
 534 1387 534 1387 624.5 1296.5 c 128,-1,2
 715 1206 715 1206 715 1078 c 256,3,4
 715 950 715 950 624.5 859.5 c 128,-1,5
 534 769 534 769 406 769 c 0,6,7
 277 769 277 769 187 859.5 c 128,-1,8
 97 950 97 950 97 1078 c 256,9,10
 97 1206 97 1206 187 1296.5 c 128,-1,11
 277 1387 277 1387 406 1387 c 0,0,1
406 1305 m 0,12,13
 312 1305 312 1305 246 1238 c 128,-1,14
 180 1171 180 1171 180 1078 c 0,15,16
 180 984 180 984 246 918 c 128,-1,17
 312 852 312 852 406 852 c 0,18,19
 499 852 499 852 565.5 918 c 128,-1,20
 632 984 632 984 632 1078 c 0,21,22
 632 1171 632 1171 565.5 1238 c 128,-1,23
 499 1305 499 1305 406 1305 c 0,12,13
EndSplineSet
Validated: 1
EndChar

StartChar: uni00B5
Encoding: 181 181 92
Width: 1325
Flags: W
HStem: 0 61.5<1081.32 1170.74> 833 65<790.802 877.888>
VStem: 195 193<202.562 843.388> 195 80<-280.969 139> 890 180<143 830.574>
LayerCount: 2
Fore
SplineSet
890 752 m 2,0,1
 890 815 890 815 839 833 c 128,-1,2
 788 851 788 851 788 877 c 0,3,4
 788 898 788 898 809 898 c 0,5,6
 864 900 864 900 924 915 c 1,7,8
 993 930 993 930 1070 958 c 1,9,-1
 1070 142 l 2,10,11
 1070 77 1070 77 1121.5 61.5 c 128,-1,12
 1173 46 1173 46 1173 21 c 0,13,14
 1173 0 1173 0 1152 0 c 2,15,-1
 890 0 l 1,16,-1
 890 87 l 1,17,-1
 682 6 l 2,18,19
 651 -6 651 -6 563 -17 c 0,20,21
 547 -19 547 -19 531 -17 c 0,22,23
 456 -9 456 -9 400 24 c 0,24,25
 308 78 308 78 275 139 c 1,26,27
 275 85 275 85 280 22 c 2,28,-1
 327 -532 l 1,29,-1
 327 -534 l 2,30,31
 327 -553 327 -553 307 -553 c 2,32,-1
 215 -553 l 2,33,34
 195 -553 195 -553 195 -532 c 2,35,-1
 195 811 l 1,36,37
 171 835 171 835 142 847 c 128,-1,38
 113 859 113 859 113 877 c 0,39,40
 113 898 113 898 134 898 c 1,41,42
 193 901 193 901 250 916 c 1,43,44
 286 926 286 926 319 937 c 128,-1,45
 352 948 352 948 388 958 c 1,46,-1
 388 424 l 2,47,48
 388 246 388 246 468 149 c 0,49,50
 535 67 535 67 633 67 c 0,51,52
 684 67 684 67 744 89 c 2,53,-1
 890 143 l 1,54,-1
 890 752 l 2,0,1
EndSplineSet
Validated: 1
EndChar

StartChar: paragraph
Encoding: 182 182 93
Width: 1266
Flags: W
HStem: -300 66<408.206 501.464 677 937 1112.54 1205.79> 781 624<279.988 527.5> 1337 68<677 937 1111.27 1205.79>
VStem: 135 542<926.935 1258.14> 529 148<-214.705 797> 937 148<-214.705 1318.71>
LayerCount: 2
Fore
SplineSet
677 1337 m 1,0,-1
 677 -234 l 1,1,-1
 937 -234 l 1,2,-1
 937 1337 l 1,3,-1
 677 1337 l 1,0,-1
529 797 m 1,4,5
 481 781 481 781 433 781 c 0,6,7
 309 781 309 781 222 872.5 c 128,-1,8
 135 964 135 964 135 1093 c 0,9,10
 135 1221 135 1221 222 1312.5 c 128,-1,11
 309 1404 309 1404 432 1405 c 1,12,-1
 1181 1405 l 2,13,14
 1207 1405 1207 1405 1207 1379 c 0,15,16
 1207 1348 1207 1348 1146 1326 c 128,-1,17
 1085 1304 1085 1304 1085 1226 c 2,18,-1
 1085 -122 l 2,19,20
 1085 -200 1085 -200 1146 -222 c 128,-1,21
 1207 -244 1207 -244 1207 -275 c 0,22,23
 1207 -300 1207 -300 1181 -300 c 2,24,-1
 433 -300 l 2,25,26
 407 -300 407 -300 407 -275 c 0,27,28
 407 -244 407 -244 468 -222 c 128,-1,29
 529 -200 529 -200 529 -122 c 2,30,-1
 529 797 l 1,4,5
EndSplineSet
Validated: 1
EndChar

StartChar: periodcentered
Encoding: 183 183 94
Width: 512
Flags: W
LayerCount: 2
Fore
SplineSet
255 496 m 256,0,1
 204 496 204 496 168.5 531.5 c 128,-1,2
 133 567 133 567 133 617.5 c 128,-1,3
 133 668 133 668 168.5 704 c 128,-1,4
 204 740 204 740 255 740 c 256,5,6
 306 740 306 740 341.5 704 c 128,-1,7
 377 668 377 668 377 617.5 c 128,-1,8
 377 567 377 567 341.5 531.5 c 128,-1,9
 306 496 306 496 255 496 c 256,0,1
EndSplineSet
Validated: 1
EndChar

StartChar: AE
Encoding: 198 198 95
Width: 1933
Flags: W
HStem: 0 94<1089 1643.97> 0 63.5<810.747 896.269> 489 81<449 908> 677 91<1089 1395.5> 1311 94<849.138 908 1089 1618.29> 1355 50<681.281 782.783>
VStem: 908 181<94.1757 489 570 677 768 1311>
LayerCount: 2
Fore
SplineSet
1089 94 m 1,0,-1
 1517 94 l 2,1,2
 1609 94 1609 94 1673.5 165.5 c 128,-1,3
 1738 237 1738 237 1771 277 c 0,4,5
 1789 299 1789 299 1799 299 c 0,6,7
 1820 299 1820 299 1820 278 c 0,8,9
 1820 265 1820 265 1818 257 c 2,10,-1
 1745 0 l 1,11,-1
 826 0 l 2,12,13
 808 0 808 0 808 21 c 0,14,15
 808 46 808 46 858 63.5 c 128,-1,16
 908 81 908 81 908 146 c 2,17,-1
 908 489 l 1,18,-1
 403 489 l 1,19,20
 355 403 355 403 306.5 317.5 c 128,-1,21
 258 232 258 232 210 147 c 0,22,23
 201 131 201 131 195 111 c 0,24,25
 191 100 191 100 191 88 c 0,26,27
 191 83 191 83 192 78 c 0,28,29
 194 65 194 65 199 56.5 c 128,-1,30
 204 48 204 48 206 39 c 0,31,32
 207 36 207 36 207 33 c 0,33,34
 207 31 207 31 206 28 c 0,35,36
 205 26 205 26 204 24 c 128,-1,37
 203 22 203 22 203 21 c 0,38,39
 192 0 192 0 178 0 c 2,40,-1
 -79 0 l 2,41,42
 -90 0 -90 0 -93 6 c 1,43,-1
 -93 11 l 2,44,45
 -93 15 -93 15 -90 21 c 1,46,47
 -82 32 -82 32 -53 47 c 1,48,49
 -36 54 -36 54 -17.5 62.5 c 128,-1,50
 1 71 1 71 20 83 c 0,51,52
 60 109 60 109 83 146 c 1,53,-1
 784 1336 l 1,54,55
 745 1345 745 1345 713 1355 c 128,-1,56
 681 1365 681 1365 681 1383 c 0,57,58
 681 1405 681 1405 702 1405 c 2,59,-1
 1757 1405 l 1,60,-1
 1757 1147 l 2,61,62
 1757 1126 1757 1126 1736 1126 c 0,63,64
 1726 1126 1726 1126 1699 1166 c 1,65,66
 1649 1235 1649 1235 1612.5 1273 c 128,-1,67
 1576 1311 1576 1311 1517 1311 c 2,68,-1
 1089 1311 l 1,69,-1
 1089 768 l 1,70,-1
 1318 768 l 2,71,72
 1382 768 1382 768 1402 819.5 c 128,-1,73
 1422 871 1422 871 1448 871 c 0,74,75
 1468 871 1468 871 1468 850 c 2,76,-1
 1468 596 l 2,77,78
 1468 575 1468 575 1448 575 c 0,79,80
 1422 575 1422 575 1399 626 c 128,-1,81
 1376 677 1376 677 1312 677 c 2,82,-1
 1089 677 l 1,83,-1
 1089 94 l 1,0,-1
911 570 m 1,84,-1
 908 1325 l 1,85,-1
 880 1325 l 1,86,87
 794 1173 794 1173 664 947.5 c 128,-1,88
 534 722 534 722 449 570 c 1,89,-1
 911 570 l 1,84,-1
EndSplineSet
Validated: 1
EndChar

StartChar: Eth
Encoding: 208 208 96
Width: 1585
Flags: W
HStem: -9 85<402.935 908.241> -9 65<110.063 197.014> -6 106<399 635.435> 685 78<25 208 399 736> 1334 79<111.955 203.593 403.03 936.486>
VStem: 208 191<92.5212 685 763 1319.29> 1290 212<474.922 1008.61>
LayerCount: 2
Fore
SplineSet
214 1405 m 2,0,-1
 527 1413 l 1,1,2
 548 1413 548 1413 569 1413 c 0,3,4
 581 1413 581 1413 593 1413 c 0,5,6
 700 1413 700 1413 849 1405 c 0,7,8
 1017 1396 1017 1396 1160 1334 c 128,-1,9
 1303 1272 1303 1272 1394 1144 c 0,10,11
 1499 996 1499 996 1502 727 c 1,12,13
 1502 561 1502 561 1434 416 c 0,14,15
 1367 272 1367 272 1235 169 c 0,16,17
 1012 -5 1012 -5 689 -9 c 1,18,-1
 609 -9 l 2,19,20
 551 -9 551 -9 500 -6 c 1,21,-1
 383 -6 l 2,22,23
 300 -6 300 -6 257 -3 c 1,24,-1
 233 -3 l 2,25,26
 193 -3 193 -3 129 -9 c 1,27,28
 108 -9 108 -9 108 14.5 c 128,-1,29
 108 38 108 38 158 56 c 128,-1,30
 208 74 208 74 208 139 c 2,31,-1
 208 685 l 1,32,-1
 46 685 l 2,33,34
 25 685 25 685 25 704 c 2,35,-1
 25 743 l 2,36,37
 25 763 25 763 46 763 c 2,38,-1
 208 763 l 1,39,-1
 208 1262 l 2,40,41
 208 1326 208 1326 158 1343.5 c 128,-1,42
 108 1361 108 1361 108 1387 c 0,43,44
 108 1410 108 1410 129 1408 c 0,45,46
 171 1405 171 1405 214 1405 c 2,0,-1
399 100 m 1,47,48
 525 76 525 76 639 76 c 0,49,50
 682 76 682 76 724 79 c 0,51,52
 1074 109 1074 109 1216 380 c 0,53,54
 1290 520 1290 520 1290 736 c 2,55,-1
 1290 769 l 1,56,57
 1277 1082 1277 1082 1091 1216 c 1,58,59
 934 1334 934 1334 677 1334 c 0,60,61
 664 1334 664 1334 651 1334 c 0,62,63
 528 1334 528 1334 399 1313 c 1,64,-1
 399 763 l 1,65,-1
 716 763 l 2,66,67
 736 763 736 763 736 743 c 2,68,-1
 736 704 l 2,69,70
 736 685 736 685 716 685 c 2,71,-1
 399 685 l 1,72,-1
 399 100 l 1,47,48
EndSplineSet
Validated: 1
EndChar

StartChar: Oslash
Encoding: 216 216 97
Width: 1610
Flags: W
LayerCount: 2
Fore
SplineSet
808 1446 m 1,0,-1
 818 1446 l 2,1,2
 1141 1446 1141 1446 1363 1248 c 0,3,4
 1364.5 1246.66 1364.5 1246.66 1365.98 1245.32 c 1,5,-1
 1561 1430 l 2,6,7
 1567 1435 1567 1435 1573 1435 c 0,8,9
 1580 1435 1580 1435 1587 1429 c 1,10,-1
 1622 1391 l 1,11,12
 1629 1385 1629 1385 1629 1378 c 0,13,14
 1629 1372 1629 1372 1622 1365 c 2,15,-1
 1427.73 1181.29 l 1,16,17
 1570 1011.19 1570 1011.19 1570 760 c 0,18,19
 1570 733 1570 733 1568 705 c 0,20,21
 1547 361 1547 361 1329.5 171.5 c 128,-1,22
 1112 -18 1112 -18 806 -35 c 0,23,24
 783 -36 783 -36 760 -36 c 0,25,26
 507.562 -36 507.562 -36 307.896 122.314 c 1,27,-1
 150 -27 l 2,28,29
 144 -33 144 -33 137 -33 c 0,30,31
 131 -33 131 -33 124 -26 c 2,32,-1
 89 10 l 2,33,34
 83 16 83 16 83 23 c 128,-1,35
 83 30 83 30 89 36 c 2,36,-1
 241.715 180.622 l 1,37,38
 48 371.54 48 371.54 48 669 c 0,39,40
 48 687 48 687 49 705 c 0,41,42
 61 1046 61 1046 269.5 1244 c 128,-1,43
 478 1442 478 1442 808 1446 c 1,0,-1
808 1358 m 0,44,45
 501 1357 501 1357 379 1164.5 c 128,-1,46
 257 972 257 972 257 702 c 0,47,48
 257 472.083 257 472.083 367.127 299.389 c 1,49,-1
 1243.34 1129.17 l 1,50,51
 1235.91 1141.92 1235.91 1141.92 1228 1154.5 c 0,52,53
 1100 1358 1100 1358 808 1358 c 0,44,45
419.521 227.873 m 1,54,55
 570.553 47.9384 570.553 47.9384 808 46 c 1,56,-1
 813 46 l 2,57,58
 1052 46 1052 46 1206 250 c 0,59,60
 1358 452 1358 452 1358 696 c 2,61,-1
 1358 702 l 1,62,63
 1356.51 886.951 1356.51 886.951 1285.51 1046.8 c 1,64,-1
 419.521 227.873 l 1,54,55
EndSplineSet
Validated: 1
EndChar

StartChar: Thorn
Encoding: 222 222 98
Width: 1151
Flags: W
HStem: 0 63.5<73.7466 159.269 362.731 448.253> 351 70<351 741.797> 1005 83<351 759.418> 1339 66<73.7466 160.014 361.986 448.253>
VStem: 171 180<65.873 351 421 1005 1088 1336.57> 904 193<554.535 871.15>
LayerCount: 2
Fore
SplineSet
351 1257 m 2,0,-1
 351 1088 l 1,1,-1
 661 1088 l 2,2,3
 764 1088 764 1088 876 1051.5 c 128,-1,4
 988 1015 988 1015 1049 910 c 1,5,6
 1097 825 1097 825 1097 706 c 1,7,8
 1095 593 1095 593 1032 503 c 0,9,10
 978 426 978 426 878.5 388.5 c 128,-1,11
 779 351 779 351 697 351 c 2,12,-1
 351 351 l 1,13,-1
 351 146 l 2,14,15
 351 81 351 81 401 63.5 c 128,-1,16
 451 46 451 46 451 21 c 0,17,18
 451 0 451 0 430 0 c 2,19,-1
 91 0 l 2,20,21
 71 0 71 0 71 21 c 0,22,23
 71 46 71 46 121 63.5 c 128,-1,24
 171 81 171 81 171 146 c 2,25,-1
 171 1257 l 2,26,27
 171 1321 171 1321 121 1339 c 128,-1,28
 71 1357 71 1357 71 1383 c 0,29,30
 71 1405 71 1405 92 1405 c 2,31,-1
 430 1405 l 2,32,33
 451 1405 451 1405 451 1383 c 0,34,35
 451 1357 451 1357 401 1339 c 128,-1,36
 351 1321 351 1321 351 1257 c 2,0,-1
351 421 m 1,37,-1
 562 421 l 2,38,39
 631 421 631 421 702 441 c 128,-1,40
 773 461 773 461 824 512 c 1,41,42
 904 589 904 589 904 716 c 1,43,44
 902 839 902 839 821 920 c 1,45,46
 732 1005 732 1005 582 1005 c 2,47,-1
 351 1005 l 1,48,-1
 351 421 l 1,37,-1
EndSplineSet
Validated: 1
EndChar

StartChar: germandbls
Encoding: 223 223 99
Width: 1269
Flags: W
LayerCount: 2
Fore
SplineSet
432 1278 m 0,0,1
 397 1232 397 1232 392.5 1163 c 128,-1,2
 388 1094 388 1094 388 1027 c 2,3,-1
 388 146 l 2,4,5
 388 81 388 81 438 63.5 c 128,-1,6
 488 46 488 46 488 21 c 0,7,8
 488 0 488 0 467 0 c 2,9,-1
 128 0 l 2,10,11
 107 0 107 0 107 21 c 0,12,13
 107 46 107 46 157 63.5 c 128,-1,14
 207 81 207 81 207 146 c 2,15,-1
 207 1027 l 2,16,17
 207 1117 207 1117 229.5 1202.5 c 128,-1,18
 252 1288 252 1288 308 1351 c 0,19,20
 409 1466 409 1466 555 1466 c 0,21,22
 587 1466 587 1466 622 1460 c 0,23,24
 796 1430 796 1430 880 1265 c 0,25,26
 912 1200 912 1200 912 1140 c 0,27,28
 912 1046 912 1046 833 962 c 0,29,30
 779 904 779 904 715.5 859.5 c 128,-1,31
 652 815 652 815 638 751 c 0,32,33
 633 729 633 729 633 711 c 0,34,35
 633 648 633 648 689 621 c 1,36,37
 760 585 760 585 854 564 c 0,38,39
 983 535 983 535 1089 486 c 128,-1,40
 1195 437 1195 437 1204 281 c 1,41,-1
 1204 269 l 2,42,43
 1204 196 1204 196 1147 123 c 0,44,45
 1085 43 1085 43 968 2 c 1,46,47
 895 -22 895 -22 806 -25 c 1,48,-1
 779 -25 l 2,49,50
 657 -25 657 -25 544 7 c 1,51,-1
 464 227 l 1,52,-1
 466 247 l 2,53,54
 467 262 467 262 484 262 c 2,55,-1
 486 262 l 1,56,57
 496 260 496 260 507 238 c 0,58,59
 553 139 553 139 619.5 97.5 c 128,-1,60
 686 56 686 56 788 53 c 1,61,-1
 800 53 l 2,62,63
 872 53 872 53 957 86 c 0,64,65
 1049 122 1049 122 1052 216 c 1,66,-1
 1052 222 l 2,67,68
 1052 330 1052 330 950 359 c 0,69,70
 844 389 844 389 764 412 c 1,71,72
 665 439 665 439 578 498 c 0,73,74
 492 556 492 556 492 672 c 2,75,-1
 492 675 l 2,76,77
 492 774 492 774 558 824.5 c 128,-1,78
 624 875 624 875 687 934 c 0,79,80
 752 994 752 994 765 1093 c 0,81,82
 767 1113 767 1113 767 1133 c 0,83,84
 767 1206 767 1206 729 1261 c 1,85,86
 682 1326 682 1326 583 1336 c 0,87,88
 570 1337 570 1337 558 1337 c 0,89,90
 476 1337 476 1337 432 1278 c 0,0,1
EndSplineSet
Validated: 1
EndChar

StartChar: ae
Encoding: 230 230 100
Width: 1762
Flags: W
HStem: -31 102<423.572 601.219 1183.45 1513.38> 478 73<998 1526> 872 88<506.316 709.303 1118.52 1423.67>
VStem: 62 181<268.407 664.036> 797 201<273.796 478 551 732.441> 1526 153<551 752.406>
LayerCount: 2
Fore
SplineSet
1274 960 m 2,0,1
 1471 960 1471 960 1575 847 c 128,-1,2
 1679 734 1679 734 1679 551 c 0,3,4
 1679 511 1679 511 1676.5 494.5 c 128,-1,5
 1674 478 1674 478 1636 478 c 2,6,-1
 998 478 l 1,7,8
 1002 316 1002 316 1081 209.5 c 128,-1,9
 1160 103 1160 103 1279 79 c 0,10,11
 1314 71 1314 71 1350 71 c 0,12,13
 1446 71 1446 71 1526 114 c 128,-1,14
 1606 157 1606 157 1618 157 c 128,-1,15
 1630 157 1630 157 1632.5 154.5 c 128,-1,16
 1635 152 1635 152 1635 142.5 c 128,-1,17
 1635 133 1635 133 1620.5 105.5 c 128,-1,18
 1606 78 1606 78 1589 63 c 0,19,20
 1480 -31 1480 -31 1294 -31 c 1,21,22
 1047 -29 1047 -29 912 123 c 1,23,-1
 522 -14 l 2,24,25
 490 -25 490 -25 469 -25 c 2,26,-1
 428 -25 l 1,27,28
 286 -18 286 -18 183 91 c 256,29,30
 80 200 80 200 66 359 c 0,31,32
 62 401 62 401 62 446.5 c 128,-1,33
 62 492 62 492 71.5 559 c 128,-1,34
 81 626 81 626 121 690.5 c 128,-1,35
 161 755 161 755 203.5 786.5 c 128,-1,36
 246 818 246 818 273 830 c 1,37,38
 353 860 353 860 433.5 889.5 c 128,-1,39
 514 919 514 919 563 937 c 128,-1,40
 612 955 612 955 627 956 c 2,41,-1
 632 956 l 1,42,43
 696 953 696 953 787 924 c 1,44,45
 897 883 897 883 962 852 c 1,46,47
 1082 958 1082 958 1270 960 c 1,48,-1
 1274 960 l 2,0,1
566 872 m 2,49,50
 546 872 546 872 518 862.5 c 128,-1,51
 490 853 490 853 454.5 839.5 c 128,-1,52
 419 826 419 826 388.5 814.5 c 128,-1,53
 358 803 358 803 343 787 c 0,54,55
 281 721 281 721 262 638.5 c 128,-1,56
 243 556 243 556 243 510 c 128,-1,57
 243 464 243 464 245 441 c 0,58,59
 256 297 256 297 323 205.5 c 128,-1,60
 390 114 390 114 491 86 c 0,61,62
 529 75 529 75 554.5 75 c 128,-1,63
 580 75 580 75 597.5 76.5 c 128,-1,64
 615 78 615 78 641.5 87.5 c 128,-1,65
 668 97 668 97 717 115.5 c 128,-1,66
 766 134 766 134 797 146 c 1,67,-1
 797 769 l 1,68,69
 756 807 756 807 689 838.5 c 128,-1,70
 622 870 622 870 570 872 c 1,71,-1
 566 872 l 2,49,50
1526 551 m 1,72,73
 1526 673 1526 673 1471.5 772.5 c 128,-1,74
 1417 872 1417 872 1276 872 c 2,75,-1
 1265 872 l 1,76,77
 1124 868 1124 868 1063 770 c 128,-1,78
 1002 672 1002 672 998 551 c 1,79,-1
 1526 551 l 1,72,73
EndSplineSet
Validated: 1
EndChar

StartChar: eth
Encoding: 240 240 101
Width: 1105
Flags: W
LayerCount: 2
Fore
SplineSet
562 893 m 1,0,-1
 550 893 l 2,1,2
 433 893 433 893 349 778 c 0,3,4
 261 656 261 656 261 478 c 2,5,-1
 261 474 l 2,6,7
 261 297 261 297 348 167 c 0,8,9
 436 36 436 36 561 30 c 1,10,-1
 574 30 l 2,11,12
 690 30 690 30 774 145 c 0,13,14
 862 266 862 266 863 446 c 0,15,16
 863 624 863 624 775 755.5 c 128,-1,17
 687 887 687 887 562 893 c 1,0,-1
303 1077 m 1,18,19
 294 1091 294 1091 285 1105 c 128,-1,20
 276 1119 276 1119 267 1134 c 1,21,22
 406 1188 406 1188 538 1265 c 1,23,24
 447 1346 447 1346 322 1414 c 0,25,26
 302 1425 302 1425 302 1435 c 0,27,28
 302 1438 302 1438 304 1441 c 0,29,30
 312 1454 312 1454 324 1476 c 0,31,32
 334 1494 334 1494 351 1494 c 0,33,34
 360 1494 360 1494 371 1489 c 1,35,36
 521 1400 521 1400 624 1317 c 1,37,38
 752 1402 752 1402 861 1499 c 1,39,40
 873 1486 873 1486 884.5 1473 c 128,-1,41
 896 1460 896 1460 908 1448 c 1,42,43
 804 1347 804 1347 683 1267 c 1,44,45
 853 1113 853 1113 950.5 916.5 c 128,-1,46
 1048 720 1048 720 1051 461 c 1,47,-1
 1051 455 l 2,48,49
 1051 251 1051 251 910 110 c 0,50,51
 767 -34 767 -34 560 -40 c 1,52,-1
 547 -40 l 2,53,54
 352 -40 352 -40 212 105 c 0,55,56
 68 254 68 254 68 458 c 2,57,-1
 68 461 l 1,58,59
 69 685 69 685 234 837 c 0,60,61
 253 855 253 855 290.5 868 c 128,-1,62
 328 881 328 881 402 910 c 1,63,64
 446 926 446 926 499 945 c 0,65,66
 549 963 549 963 580 963 c 2,67,-1
 583 963 l 1,68,69
 698 958 698 958 798 901 c 1,70,71
 750 992 750 992 701.5 1068 c 128,-1,72
 653 1144 653 1144 593 1210 c 1,73,74
 460 1133 460 1133 303 1077 c 1,18,19
EndSplineSet
Validated: 1
EndChar

StartChar: oslash
Encoding: 248 248 102
Width: 1107
Flags: W
HStem: -25 68<447.987 681.899> 889 67<450.82 661.438>
VStem: 62 192<265.068 672.233> 856 189<258.493 661.698>
LayerCount: 2
Fore
SplineSet
544 889 m 2,0,1
 427 889 427 889 340.5 772.5 c 128,-1,2
 254 656 254 656 254 481 c 0,3,4
 254 360 254 360 296 262 c 1,5,-1
 779 737 l 1,6,7
 774 745 774 745 768 754 c 0,8,9
 677 882 677 882 556 889 c 1,10,-1
 544 889 l 2,0,1
1045 459 m 2,11,12
 1045 259 1045 259 902.5 120 c 128,-1,13
 760 -19 760 -19 553 -25 c 1,14,-1
 537 -25 l 2,15,16
 364 -25 364 -25 232 92 c 1,17,-1
 99 -38 l 2,18,19
 95 -42 95 -42 91 -42 c 128,-1,20
 87 -42 87 -42 83 -38 c 2,21,-1
 45 0 l 2,22,23
 41 4 41 4 41 8 c 0,24,25
 41 14 41 14 47 18 c 1,26,-1
 178 147 l 1,27,28
 62 282 62 282 62 462 c 2,29,-1
 62 465 l 1,30,31
 63 684 63 684 227 833 c 0,32,33
 246 851 246 851 283.5 864 c 128,-1,34
 321 877 321 877 380 898 c 128,-1,35
 439 919 439 919 490.5 937 c 128,-1,36
 542 955 542 955 574 956 c 2,37,-1
 577 956 l 1,38,39
 752 949 752 949 878 834 c 1,40,-1
 1016 969 l 2,41,42
 1019 972 1019 972 1024.5 972 c 128,-1,43
 1030 972 1030 972 1033 969 c 2,44,-1
 1070 930 l 2,45,46
 1075 925 1075 925 1075 922 c 128,-1,47
 1075 919 1075 919 1070 914 c 2,48,-1
 931 778 l 1,49,50
 1042 644 1042 644 1045 465 c 1,51,-1
 1045 459 l 2,11,12
333 191 m 1,52,53
 337 184 337 184 342 178 c 0,54,55
 431 49 431 49 554 43 c 1,56,-1
 568 43 l 2,57,58
 684 43 684 43 770 159 c 128,-1,59
 856 275 856 275 856 450 c 0,60,61
 856 568 856 568 816 665 c 1,62,-1
 333 191 l 1,52,53
EndSplineSet
Validated: 1
EndChar

StartChar: thorn
Encoding: 254 254 103
Width: 1180
Flags: W
HStem: -466 64<115.156 201.152> -25 81<479.68 680.045> 1339 66<114.774 201.664> 1443 20G<361 393>
VStem: 213 180<-399.57 6 120.064 800.248 845 1336.57> 938 181<266.228 664.105>
LayerCount: 2
Fore
SplineSet
1115 571 m 0,0,1
 1119 530 1119 530 1119 483.5 c 128,-1,2
 1119 437 1119 437 1109 370 c 128,-1,3
 1099 303 1099 303 1058 237.5 c 128,-1,4
 1017 172 1017 172 975.5 141.5 c 128,-1,5
 934 111 934 111 908 100 c 1,6,7
 827 70 827 70 746.5 40 c 128,-1,8
 666 10 666 10 617.5 -7.5 c 128,-1,9
 569 -25 569 -25 553 -25 c 2,10,-1
 548 -25 l 1,11,12
 490 -22 490 -22 400 6 c 1,13,-1
 393 6 l 1,14,-1
 393 -526 l 1,15,16
 329 -504 329 -504 264.5 -486.5 c 128,-1,17
 200 -469 200 -469 134 -466 c 0,18,19
 112 -466 112 -466 112 -446 c 0,20,21
 112 -420 112 -420 162.5 -402 c 128,-1,22
 213 -384 213 -384 213 -320 c 2,23,-1
 213 1257 l 2,24,25
 213 1321 213 1321 162.5 1339 c 128,-1,26
 112 1357 112 1357 112 1383 c 0,27,28
 112 1405 112 1405 134 1405 c 0,29,30
 200 1408 200 1408 264.5 1424.5 c 128,-1,31
 329 1441 329 1441 393 1463 c 1,32,-1
 393 845 l 1,33,-1
 659 945 l 1,34,35
 690 955 690 955 705 956 c 128,-1,36
 720 957 720 957 730.5 956.5 c 128,-1,37
 741 956 741 956 753 956 c 0,38,39
 895 949 895 949 997.5 838 c 128,-1,40
 1100 727 1100 727 1115 571 c 0,0,1
617 56 m 2,41,42
 633 56 633 56 661.5 66.5 c 128,-1,43
 690 77 690 77 726 90 c 128,-1,44
 762 103 762 103 792 114.5 c 128,-1,45
 822 126 822 126 838 143 c 0,46,47
 899 208 899 208 918 292 c 0,48,49
 938 379 938 379 938 422 c 0,50,51
 938 450 938 450 938 450 c 0,52,53
 939 476 939 476 938 489 c 0,54,55
 927 632 927 632 858 723 c 0,56,57
 777 830 777 830 615 855 c 0,58,59
 602 857 602 857 582.5 855 c 128,-1,60
 563 853 563 853 537.5 842.5 c 128,-1,61
 512 832 512 832 468 813 c 128,-1,62
 424 794 424 794 393 782 c 1,63,-1
 393 155 l 1,64,65
 434 117 434 117 496.5 87 c 128,-1,66
 559 57 559 57 611 56 c 1,67,-1
 617 56 l 2,41,42
EndSplineSet
Validated: 1
EndChar

StartChar: kgreenlandic
Encoding: 312 312 107
Width: 1150
Flags: W
LayerCount: 2
Fore
SplineSet
393 1011 m 1,0,-1
 393 555 l 1,1,-1
 741 834 l 2,2,3
 808 888 808 888 849 913 c 0,4,5
 875 929 875 929 900 929 c 0,6,7
 918 929 918 929 935 920 c 1,8,-1
 1010 874 l 1,9,10
 1022 865 1022 865 1022 855 c 0,11,12
 1022 853 1022 853 1019 846 c 2,13,-1
 971 741 l 1,14,-1
 922 767 l 2,15,16
 894 782 894 782 864 782 c 0,17,18
 830 782 830 782 800 760 c 0,19,20
 664 660 664 660 543 565 c 1,21,-1
 892 225 l 2,22,23
 1000 119 1000 119 1032 106 c 1,24,25
 1054 95 1054 95 1079 95 c 0,26,27
 1086 95 1086 95 1100 97 c 0,28,29
 1107 98 1107 98 1114 98 c 0,30,31
 1136 98 1136 98 1142 84 c 0,32,33
 1144 79 1144 79 1144 75 c 0,34,35
 1144 65 1144 65 1133 60 c 2,36,-1
 1070 29 l 1,37,38
 1017 6 1017 6 973 6 c 0,39,40
 943 6 943 6 917 17 c 0,41,42
 854 42 854 42 799 96 c 2,43,-1
 418 467 l 1,44,45
 412 462 412 462 393 447 c 1,46,-1
 393 146 l 2,47,48
 393 81 393 81 443 63.5 c 128,-1,49
 493 46 493 46 493 21 c 0,50,51
 493 0 493 0 473 0 c 2,52,-1
 134 0 l 2,53,54
 113 0 113 0 113 21 c 0,55,56
 113 46 113 46 163 64 c 0,57,58
 213 81 213 81 213 146 c 2,59,-1
 213 799 l 2,60,61
 213 863 213 863 163 883.5 c 128,-1,62
 113 904 113 904 113 930 c 0,63,64
 113 951 113 951 134 951 c 0,65,66
 200 954 200 954 264.5 971 c 128,-1,67
 329 988 329 988 393 1011 c 1,0,-1
EndSplineSet
Validated: 1
EndChar

StartChar: lcaron
Encoding: 318 318 108
Width: 665
Flags: W
LayerCount: 2
Fore
SplineSet
463 1463 m 1,0,-1
 463 1071 l 1,1,2
 645 1200 645 1200 696 1254.5 c 128,-1,3
 747 1309 747 1309 754 1355 c 1,4,-1
 744 1355 l 2,5,6
 643 1355 643 1355 642 1439 c 1,7,-1
 640 1521 l 1,8,-1
 640 1524 l 2,9,10
 640 1608 640 1608 748 1610 c 1,11,-1
 755 1610 l 2,12,13
 856 1610 856 1610 860 1526 c 1,14,-1
 861 1444 l 2,15,16
 861 1423 861 1423 852.5 1394 c 128,-1,17
 844 1365 844 1365 838 1346 c 0,18,19
 819 1287 819 1287 757.5 1215 c 128,-1,20
 696 1143 696 1143 480 995 c 0,21,22
 475 992 475 992 471 989.5 c 128,-1,23
 467 987 467 987 463 984 c 1,24,-1
 463 146 l 2,25,26
 463 81 463 81 513 63.5 c 128,-1,27
 563 46 563 46 563 21 c 0,28,29
 563 0 563 0 543 0 c 2,30,-1
 204 0 l 2,31,32
 183 0 183 0 183 21 c 0,33,34
 183 46 183 46 233 63.5 c 128,-1,35
 283 81 283 81 283 146 c 2,36,-1
 283 852 l 1,37,38
 169 761 169 761 169 738 c 0,39,40
 169 732 169 732 177 730 c 0,41,42
 203 724 203 724 227 708.5 c 128,-1,43
 251 693 251 693 252 664 c 2,44,-1
 253 598 l 1,45,-1
 253 596 l 2,46,47
 253 529 253 529 167 526 c 1,48,-1
 162 526 l 2,49,50
 79 526 79 526 78 594 c 2,51,-1
 77 659 l 1,52,-1
 77 664 l 2,53,54
 77 679 77 679 83 699 c 0,55,56
 89 722 89 722 95 738 c 0,57,58
 107 774 107 774 142 815.5 c 128,-1,59
 177 857 177 857 283 939 c 1,60,-1
 283 1257 l 2,61,62
 283 1321 283 1321 233 1339 c 128,-1,63
 183 1357 183 1357 183 1383 c 0,64,65
 183 1404 183 1404 204 1404 c 0,66,67
 270 1407 270 1407 334.5 1424 c 128,-1,68
 399 1441 399 1441 463 1463 c 1,0,-1
EndSplineSet
Validated: 1
EndChar

StartChar: Lslash
Encoding: 321 321 109
Width: 1251
Flags: W
HStem: 0 94<436 990.917> 0 63.5<157.747 243.269> 781 76<14.7852 78.9507> 955 76<639.396 697.841> 1339 66<157.747 244.014 445.986 532.253>
VStem: 255 180<94.1757 838 967 1336.57>
LayerCount: 2
Fore
SplineSet
436 94 m 1,0,-1
 863 94 l 2,1,2
 956 94 956 94 1020.5 165.5 c 128,-1,3
 1085 237 1085 237 1118 277 c 0,4,5
 1136 299 1136 299 1146 299 c 0,6,7
 1167 299 1167 299 1167 278 c 0,8,9
 1167 265 1167 265 1165 257 c 2,10,-1
 1092 0 l 1,11,-1
 176 0 l 2,12,13
 155 0 155 0 155 21 c 0,14,15
 155 46 155 46 205 63.5 c 128,-1,16
 255 81 255 81 255 146 c 2,17,-1
 255 838 l 1,18,-1
 46 781 l 2,19,20
 41 780 41 780 37 781 c 0,21,22
 24 784 24 784 21 795 c 2,23,-1
 11 833 l 2,24,25
 10 837 10 837 10 840 c 0,26,27
 10 852 10 852 26 857 c 2,28,-1
 255 919 l 1,29,-1
 255 1257 l 2,30,31
 255 1321 255 1321 205 1339 c 128,-1,32
 155 1357 155 1357 155 1383 c 0,33,34
 155 1405 155 1405 176 1405 c 2,35,-1
 515 1405 l 2,36,37
 535 1405 535 1405 535 1383 c 0,38,39
 535 1357 535 1357 485 1339 c 128,-1,40
 435 1321 435 1321 435 1257 c 0,41,42
 435 1112 435 1112 435 967 c 1,43,-1
 673 1031 l 1,44,-1
 678 1031 l 2,45,46
 693 1031 693 1031 698 1017 c 1,47,-1
 708 979 l 2,48,49
 709 975 709 975 709 972 c 0,50,51
 709 959 709 959 693 955 c 2,52,-1
 435 886 l 1,53,-1
 436 94 l 1,0,-1
EndSplineSet
Validated: 1
EndChar

StartChar: lslash
Encoding: 322 322 110
Width: 752
Flags: W
HStem: 0 63.5<104.747 190.269 393.731 479.253> 781 76<14.7852 79.6837> 955 76<639.283 697.841> 1339 66<104.747 190.664> 1443 20G<350 382>
VStem: 202 180<65.873 824 955 1336.57>
LayerCount: 2
Fore
SplineSet
382 146 m 2,0,1
 382 81 382 81 432 63.5 c 128,-1,2
 482 46 482 46 482 21 c 0,3,4
 482 0 482 0 462 0 c 2,5,-1
 123 0 l 2,6,7
 102 0 102 0 102 21 c 0,8,9
 102 46 102 46 152 63.5 c 128,-1,10
 202 81 202 81 202 146 c 2,11,-1
 202 824 l 1,12,-1
 46 781 l 2,13,14
 41 780 41 780 37 781 c 0,15,16
 24 784 24 784 21 795 c 2,17,-1
 11 833 l 2,18,19
 10 837 10 837 10 840 c 0,20,21
 10 852 10 852 26 857 c 2,22,-1
 202 904 l 1,23,-1
 202 1257 l 2,24,25
 202 1321 202 1321 152 1339 c 128,-1,26
 102 1357 102 1357 102 1383 c 0,27,28
 102 1405 102 1405 123 1405 c 0,29,30
 189 1408 189 1408 253.5 1424.5 c 128,-1,31
 318 1441 318 1441 382 1463 c 1,32,-1
 382 955 l 1,33,-1
 673 1031 l 1,34,-1
 678 1031 l 2,35,36
 693 1031 693 1031 698 1017 c 1,37,-1
 708 979 l 2,38,39
 709 975 709 975 709 972 c 0,40,41
 709 959 709 959 693 955 c 2,42,-1
 382 872 l 1,43,-1
 382 146 l 2,0,1
EndSplineSet
Validated: 1
EndChar

StartChar: Eng
Encoding: 330 330 111
Width: 1578
Flags: W
HStem: 0 63.5<136.747 222.269 341.731 427.253> 1340 65<136.481 223.014 1205.81 1292.01 1433.99 1520.25>
VStem: 234 96<65.873 1189> 1303 120<-192.79 -3 287 1337.57>
LayerCount: 2
Fore
SplineSet
1303 287 m 1,0,-1
 1303 1258 l 2,1,2
 1303 1322 1303 1322 1253 1340 c 128,-1,3
 1203 1358 1203 1358 1203 1384 c 0,4,5
 1203 1405 1203 1405 1223 1405 c 2,6,-1
 1502 1405 l 2,7,8
 1523 1405 1523 1405 1523 1384 c 0,9,10
 1523 1358 1523 1358 1473 1340 c 128,-1,11
 1423 1322 1423 1322 1423 1258 c 2,12,-1
 1423 180 l 2,13,14
 1423 -4 1423 -4 1404 -107 c 128,-1,15
 1385 -210 1385 -210 1325 -277 c 1,16,17
 1269 -350 1269 -350 1163 -399 c 1,18,-1
 1163 -349 l 1,19,20
 1202 -325 1202 -325 1236 -287.5 c 128,-1,21
 1270 -250 1270 -250 1289 -189 c 0,22,23
 1303 -145 1303 -145 1303 -3 c 1,24,-1
 1288 0 l 1,25,-1
 330 1189 l 1,26,-1
 330 146 l 2,27,28
 330 81 330 81 380 63.5 c 128,-1,29
 430 46 430 46 430 21 c 0,30,31
 430 0 430 0 409 0 c 2,32,-1
 155 0 l 2,33,34
 134 0 134 0 134 21 c 0,35,36
 134 46 134 46 184 63.5 c 128,-1,37
 234 81 234 81 234 146 c 2,38,-1
 234 1257 l 2,39,40
 234 1322 234 1322 184 1340 c 128,-1,41
 134 1358 134 1358 134 1383 c 0,42,43
 134 1405 134 1405 155 1405 c 2,44,-1
 412 1405 l 1,45,-1
 1303 287 l 1,0,-1
EndSplineSet
Validated: 1
EndChar

StartChar: eng
Encoding: 331 331 112
Width: 1195
Flags: W
LayerCount: 2
Fore
SplineSet
1036 12 m 2,0,1
 1036 -185 1036 -185 1010 -281 c 128,-1,2
 984 -377 984 -377 919 -445 c 0,3,4
 828 -539 828 -539 716 -567 c 1,5,-1
 716 -517 l 1,6,7
 811 -460 811 -460 843 -357 c 0,8,9
 855 -316 855 -316 855.5 -242 c 128,-1,10
 856 -168 856 -168 856 6 c 2,11,-1
 856 506 l 2,12,13
 856 725 856 725 765 814 c 0,14,15
 707 871 707 871 623 871 c 0,16,17
 575 871 575 871 518 852 c 0,18,19
 496 844 496 844 462.5 831.5 c 128,-1,20
 429 819 429 819 405 810 c 256,21,22
 381 801 381 801 362 794 c 1,23,-1
 362 146 l 2,24,25
 362 81 362 81 412 63.5 c 128,-1,26
 462 46 462 46 462 21 c 0,27,28
 462 0 462 0 442 0 c 2,29,-1
 103 0 l 2,30,31
 82 0 82 0 82 21 c 0,32,33
 82 46 82 46 132 63.5 c 128,-1,34
 182 81 182 81 182 146 c 2,35,-1
 182 786 l 2,36,37
 182 849 182 849 132 867 c 128,-1,38
 82 885 82 885 82 911 c 0,39,40
 82 932 82 932 103 932 c 0,41,42
 169 935 169 935 233.5 952.5 c 128,-1,43
 298 970 298 970 362 992 c 1,44,-1
 362 853 l 1,45,46
 417 874 417 874 459 890 c 128,-1,47
 501 906 501 906 539 919 c 0,48,49
 631 951 631 951 730 961 c 0,50,51
 742 962 742 962 755 962 c 0,52,53
 839 962 839 962 915 905 c 1,54,55
 1036 812 1036 812 1036 506 c 2,56,-1
 1036 12 l 2,0,1
EndSplineSet
Validated: 1
EndChar

StartChar: OE
Encoding: 338 338 113
Width: 2044
Flags: W
HStem: -37 83<629.608 1022.04> 0 94<1312 1867.27> 677 91<1312 1618.32> 1311 94<1312 1841.79> 1358 88<583.127 1051.78>
VStem: 69 209<436.5 958.462> 1131 181<122.175 677 768 1271.87>
LayerCount: 2
Fore
SplineSet
830 1446 m 0,0,1
 858 1446 858 1446 873 1446 c 2,2,-1
 891 1446 l 2,3,4
 1009 1446 1009 1446 1125 1405 c 1,5,-1
 1981 1405 l 1,6,-1
 1981 1147 l 2,7,8
 1981 1126 1981 1126 1960 1126 c 0,9,10
 1950 1126 1950 1126 1911.5 1180.5 c 128,-1,11
 1873 1235 1873 1235 1836 1273 c 128,-1,12
 1799 1311 1799 1311 1740 1311 c 2,13,-1
 1312 1311 l 1,14,-1
 1312 768 l 1,15,-1
 1542 768 l 2,16,17
 1606 768 1606 768 1625.5 819.5 c 128,-1,18
 1645 871 1645 871 1671 871 c 0,19,20
 1692 871 1692 871 1692 850 c 2,21,-1
 1692 596 l 2,22,23
 1692 575 1692 575 1671 575 c 0,24,25
 1645 575 1645 575 1622 626 c 128,-1,26
 1599 677 1599 677 1535 677 c 2,27,-1
 1312 677 l 1,28,-1
 1312 94 l 1,29,-1
 1740 94 l 2,30,31
 1832 94 1832 94 1897 165.5 c 128,-1,32
 1962 237 1962 237 1987.5 268 c 128,-1,33
 2013 299 2013 299 2023 299 c 0,34,35
 2044 299 2044 299 2044 278 c 0,36,37
 2044 265 2044 265 2042 257 c 2,38,-1
 1969 0 l 1,39,-1
 1043 0 l 1,40,41
 915 -37 915 -37 807 -37 c 0,42,43
 792 -37 792 -37 781 -37 c 0,44,45
 503 -37 503 -37 288 156 c 0,46,47
 88 336 88 336 69 669 c 0,48,49
 68 687 68 687 69 705 c 0,50,51
 81 1046 81 1046 290 1244 c 0,52,53
 503 1446 503 1446 830 1446 c 0,0,1
1131 1272 m 1,54,55
 1005 1358 1005 1358 829 1358 c 0,56,57
 523 1358 523 1358 400 1164 c 0,58,59
 278 972 278 972 278 702 c 0,60,61
 278 431 278 431 431 239.5 c 128,-1,62
 584 48 584 48 829 46 c 1,63,-1
 835 46 l 2,64,65
 997 46 997 46 1131 153 c 1,66,-1
 1131 1257 l 1,67,68
 1132 1268 1132 1268 1131 1272 c 1,54,55
EndSplineSet
Validated: 1
EndChar

StartChar: Tbar
Encoding: 358 358 114
Width: 1255
Flags: W
LayerCount: 2
Fore
SplineSet
1215 1147 m 2,0,1
 1215 1126 1215 1126 1194 1126 c 0,2,3
 1185 1126 1185 1126 1156 1166 c 0,4,5
 1105 1235 1105 1235 1068.5 1273 c 128,-1,6
 1032 1311 1032 1311 972 1311 c 2,7,-1
 721 1311 l 1,8,-1
 721 941 l 1,9,-1
 1155 941 l 2,10,11
 1187 941 1187 941 1187 921 c 2,12,-1
 1187 882 l 2,13,14
 1187 863 1187 863 1155 863 c 2,15,-1
 721 863 l 1,16,-1
 721 146 l 2,17,18
 721 81 721 81 771 63 c 128,-1,19
 821 45 821 45 821 20 c 0,20,21
 821 0 821 0 801 0 c 2,22,-1
 462 0 l 2,23,24
 441 0 441 0 441 20 c 0,25,26
 441 45 441 45 491 63 c 128,-1,27
 541 81 541 81 541 146 c 2,28,-1
 541 863 l 1,29,-1
 103 863 l 2,30,31
 70 863 70 863 70 882 c 2,32,-1
 70 921 l 2,33,34
 70 941 70 941 103 941 c 2,35,-1
 541 941 l 1,36,-1
 541 1311 l 1,37,-1
 286 1311 l 2,38,39
 226 1311 226 1311 188.5 1273 c 128,-1,40
 151 1235 151 1235 101 1166 c 0,41,42
 73 1126 73 1126 64 1126 c 0,43,44
 43 1126 43 1126 43 1147 c 2,45,-1
 43 1332 l 2,46,47
 43 1386 43 1386 61.5 1397.5 c 128,-1,48
 80 1409 80 1409 157 1409 c 2,49,-1
 1101 1409 l 2,50,51
 1184 1409 1184 1409 1199.5 1399 c 128,-1,52
 1215 1389 1215 1389 1215 1332 c 2,53,-1
 1215 1147 l 2,0,1
EndSplineSet
Validated: 1
EndChar

StartChar: tbar
Encoding: 359 359 115
Width: 663
Flags: W
HStem: 0 21G<485.5 560> 528 76<72 207 388 611> 840 105<113.612 207 388 635.844> 840 47<68.0801 133.155>
VStem: 207 181<101.626 528 604 845 948 1184.88>
LayerCount: 2
Fore
SplineSet
88 840 m 2,0,1
 69 840 69 840 68 860 c 1,2,-1
 68 862 l 2,3,4
 68 878 68 878 87 887 c 0,5,6
 107 896 107 896 146 917 c 128,-1,7
 185 938 185 938 193.5 941.5 c 128,-1,8
 202 945 202 945 207 945 c 1,9,-1
 207 1116 l 2,10,11
 207 1166 207 1166 227.5 1185.5 c 128,-1,12
 248 1205 248 1205 298.5 1229 c 128,-1,13
 349 1253 349 1253 365 1253 c 0,14,15
 388 1253 388 1253 388 1227 c 2,16,-1
 388 948 l 1,17,-1
 627 953 l 2,18,19
 642 953 642 953 642 933 c 128,-1,20
 642 913 642 913 638 893 c 0,21,22
 628 846 628 846 593 846 c 2,23,-1
 388 847 l 1,24,-1
 388 604 l 1,25,-1
 595 604 l 2,26,27
 611 604 611 604 611 585 c 2,28,-1
 611 547 l 2,29,30
 611 528 611 528 595 528 c 0,31,32
 492 528 492 528 388 528 c 1,33,-1
 388 220 l 2,34,35
 388 129 388 129 451.5 84 c 128,-1,36
 515 39 515 39 560 33 c 1,37,-1
 560 0 l 1,38,39
 411 0 411 0 309 28.5 c 128,-1,40
 207 57 207 57 207 250 c 2,41,-1
 207 528 l 1,42,-1
 88 528 l 2,43,44
 72 528 72 528 72 547 c 2,45,-1
 72 585 l 2,46,47
 72 604 72 604 87 604 c 2,48,-1
 207 604 l 1,49,-1
 207 845 l 1,50,-1
 88 840 l 2,0,1
EndSplineSet
Validated: 1
EndChar

StartChar: longs
Encoding: 383 383 116
Width: 625
Flags: W
LayerCount: 2
Fore
SplineSet
207 845 m 1,0,1
 169 844 169 844 93 840 c 1,2,-1
 88 840 l 2,3,4
 69 840 69 840 68 860 c 1,5,-1
 68 862 l 2,6,7
 68 878 68 878 87 887 c 0,8,9
 107 896 107 896 170 930 c 0,10,11
 185 938 185 938 199 944 c 0,12,13
 202 945 202 945 207 945 c 1,14,-1
 207 1027 l 2,15,16
 207 1154 207 1154 230 1234 c 0,17,18
 245 1285 245 1285 273 1319 c 0,19,20
 286 1336 286 1336 311 1345 c 2,21,-1
 566 1440 l 2,22,23
 575 1443 575 1443 600 1445 c 1,24,-1
 604 1445 l 2,25,26
 626 1445 626 1445 645 1433 c 1,27,28
 672 1414 672 1414 680 1400 c 0,29,30
 686 1388 686 1388 686 1368 c 0,31,32
 686 1360 686 1360 685 1351 c 0,33,34
 683 1304 683 1304 672 1301 c 1,35,-1
 669 1301 l 2,36,37
 658 1301 658 1301 637 1316 c 1,38,39
 589 1347 589 1347 542 1347 c 0,40,41
 514 1347 514 1347 487 1336 c 0,42,43
 403 1300 403 1300 393 1199 c 0,44,45
 389 1161 389 1161 388.5 1117 c 128,-1,46
 388 1073 388 1073 388 1027 c 2,47,-1
 388 146 l 2,48,49
 388 81 388 81 438 63.5 c 128,-1,50
 488 46 488 46 488 21 c 0,51,52
 488 0 488 0 467 0 c 2,53,-1
 128 0 l 2,54,55
 107 0 107 0 107 21 c 0,56,57
 107 46 107 46 157 63.5 c 128,-1,58
 207 81 207 81 207 146 c 2,59,-1
 207 845 l 1,0,1
EndSplineSet
Validated: 1
EndChar

StartChar: florin
Encoding: 402 402 117
Width: 722
Flags: W
LayerCount: 2
Fore
SplineSet
388 12 m 2,0,1
 388 -185 388 -185 361.5 -281 c 128,-1,2
 335 -377 335 -377 270 -445 c 0,3,4
 179 -539 179 -539 67 -567 c 1,5,-1
 67 -517 l 1,6,7
 162 -460 162 -460 194 -357 c 0,8,9
 206 -316 206 -316 206.5 -242 c 128,-1,10
 207 -168 207 -168 207 6 c 2,11,-1
 207 845 l 1,12,13
 169 844 169 844 93 840 c 1,14,-1
 88 840 l 2,15,16
 69 840 69 840 68 860 c 1,17,-1
 68 862 l 2,18,19
 68 878 68 878 87 887 c 0,20,21
 107 896 107 896 170 930 c 0,22,23
 185 938 185 938 199 944 c 0,24,25
 202 945 202 945 207 945 c 1,26,-1
 207 1027 l 2,27,28
 207 1168 207 1168 229 1230 c 128,-1,29
 251 1292 251 1292 273 1319 c 0,30,31
 286 1336 286 1336 311 1345 c 2,32,-1
 566 1440 l 2,33,34
 575 1443 575 1443 600 1445 c 1,35,-1
 604 1445 l 2,36,37
 626 1445 626 1445 645 1433 c 1,38,39
 685 1405 685 1405 685 1358 c 2,40,-1
 685 1351 l 1,41,42
 682 1304 682 1304 662 1304 c 0,43,44
 652 1304 652 1304 637 1316 c 0,45,46
 598 1345 598 1345 546 1345 c 2,47,-1
 538 1345 l 1,48,49
 481 1342 481 1342 451 1330 c 0,50,51
 404 1310 404 1310 396 1222.5 c 128,-1,52
 388 1135 388 1135 388 1027 c 2,53,-1
 388 948 l 1,54,-1
 626 953 l 1,55,-1
 627 953 l 2,56,57
 642 953 642 953 642 927 c 0,58,59
 642 913 642 913 638 893 c 0,60,61
 628 846 628 846 593 846 c 2,62,-1
 388 847 l 1,63,-1
 388 12 l 2,0,1
EndSplineSet
Validated: 1
EndChar

StartChar: uni0256
Encoding: 598 598 118
Width: 1140
Flags: W
LayerCount: 2
Fore
SplineSet
775 141 m 1,0,-1
 775 748 l 1,1,2
 731 788 731 788 667.5 818 c 128,-1,3
 604 848 604 848 554 850 c 0,4,5
 533 850 533 850 512 842 c 0,6,7
 476 829 476 829 441.5 816 c 128,-1,8
 407 803 407 803 372 791 c 1,9,10
 347 781 347 781 333 765 c 0,11,12
 273 701 273 701 252 610 c 0,13,14
 236 541 236 541 236 473 c 0,15,16
 236 451 236 451 238 428 c 0,17,18
 249 289 249 289 314 201 c 0,19,20
 380 111 380 111 477 84 c 0,21,22
 515 73 515 73 552 73 c 0,23,24
 565 73 565 73 577 74 c 0,25,26
 599 76 599 76 628 87 c 0,27,28
 649 94 649 94 697 112 c 0,29,30
 742 129 742 129 775 141 c 1,0,-1
775 85 m 1,31,-1
 507 -14 l 2,32,33
 480 -23 480 -23 456 -25 c 1,34,35
 431 -25 431 -25 416 -24 c 0,36,37
 278 -19 278 -19 178 88 c 0,38,39
 77 196 77 196 65 349 c 0,40,41
 61 391 61 391 61 430 c 0,42,43
 61 480 61 480 68 526 c 0,44,45
 79 608 79 608 131 691 c 1,46,47
 156 733 156 733 217 780 c 0,48,49
 239 797 239 797 266 807 c 0,50,51
 344 836 344 836 422 865 c 128,-1,52
 500 894 500 894 578 923 c 0,53,54
 594 930 594 930 615 930 c 0,55,56
 678 927 678 927 765 898 c 0,57,58
 771 896 771 896 775 895 c 1,59,-1
 775 1423 l 1,60,61
 837 1401 837 1401 899.5 1384.5 c 128,-1,62
 962 1368 962 1368 1027 1365 c 0,63,64
 1048 1365 1048 1365 1048 1344 c 0,65,66
 1048 1320 1048 1320 999 1302.5 c 128,-1,67
 950 1285 950 1285 950 1222 c 2,68,-1
 950 6 l 2,69,70
 950 -163 950 -163 950.5 -235.5 c 128,-1,71
 951 -308 951 -308 963 -347 c 0,72,73
 994 -448 994 -448 1086 -503 c 1,74,-1
 1086 -552 l 1,75,76
 979 -525 979 -525 889 -433 c 1,77,78
 826 -367 826 -367 800.5 -273.5 c 128,-1,79
 775 -180 775 -180 775 11 c 2,80,-1
 775 85 l 1,31,-1
EndSplineSet
Validated: 1
EndChar

StartChar: uni0261
Encoding: 609 609 119
Width: 1164
Flags: W
LayerCount: 2
Fore
SplineSet
978 199 m 2,0,1
 978 100 978 100 1004 33.5 c 128,-1,2
 1030 -33 1030 -33 1070 -158 c 0,3,4
 1086 -211 1086 -211 1086 -261 c 0,5,6
 1086 -330 1086 -330 1056 -393 c 0,7,8
 1002 -504 1002 -504 886 -548 c 0,9,10
 805 -578 805 -578 713 -578 c 0,11,12
 696 -578 696 -578 678 -577 c 0,13,14
 566 -570 566 -570 452 -554.5 c 128,-1,15
 338 -539 338 -539 228 -532 c 0,16,17
 210 -531 210 -531 193 -531 c 0,18,19
 103 -531 103 -531 25 -561 c 0,20,21
 -10 -574 -10 -574 -34 -574 c 0,22,23
 -42 -574 -42 -574 -48 -573 c 0,24,25
 -53 -572 -53 -572 -53 -568 c 0,26,27
 -53 -553 -53 -553 43 -487 c 0,28,29
 135 -424 135 -424 231 -424 c 256,30,31
 327 -424 327 -424 422.5 -440 c 128,-1,32
 518 -456 518 -456 610 -466 c 0,33,34
 627 -468 627 -468 644 -468 c 0,35,36
 717 -468 717 -468 785 -433 c 0,37,38
 856 -396 856 -396 894 -344 c 0,39,40
 915 -315 915 -315 915 -276 c 0,41,42
 915 -246 915 -246 902 -210 c 2,43,-1
 797 87 l 1,44,-1
 522 -14 l 2,45,46
 490 -25 490 -25 469 -25 c 2,47,-1
 428 -25 l 1,48,49
 286 -18 286 -18 183 91 c 256,50,51
 80 200 80 200 66 359 c 0,52,53
 62 401 62 401 62 440 c 0,54,55
 62 492 62 492 69 541 c 0,56,57
 81 626 81 626 135 711 c 1,58,59
 161 755 161 755 224 803 c 1,60,61
 246 818 246 818 273 830 c 1,62,63
 353 860 353 860 433.5 890 c 128,-1,64
 514 920 514 920 595 950 c 0,65,66
 612 956 612 956 627 956 c 2,67,-1
 632 956 l 1,68,69
 696 953 696 953 787 924 c 0,70,71
 795 921 795 921 797 920 c 0,72,73
 819 911 819 911 851 900 c 0,74,75
 864 896 864 896 875 896 c 0,76,77
 891 896 891 896 903 905 c 0,78,79
 924 923 924 923 933 935 c 0,80,81
 938 942 938 942 946 942 c 0,82,83
 951 942 951 942 956 940 c 0,84,85
 978 932 978 932 978 920 c 2,86,-1
 978 199 l 2,0,1
797 145 m 1,87,-1
 796 199 l 1,88,-1
 797 199 l 1,89,-1
 797 769 l 1,90,91
 756 807 756 807 689 839.5 c 128,-1,92
 622 872 622 872 570 874 c 1,93,-1
 566 874 l 2,94,95
 546 874 546 874 526 866 c 0,96,97
 490 853 490 853 454.5 839.5 c 128,-1,98
 419 826 419 826 383 813 c 0,99,100
 358 803 358 803 343 787 c 0,101,102
 281 721 281 721 260 627 c 1,103,104
 243 556 243 556 243 486 c 0,105,106
 243 464 243 464 245 441 c 0,107,108
 256 297 256 297 323 207 c 1,109,110
 390 114 390 114 491 86 c 0,111,112
 529 75 529 75 568 75 c 0,113,114
 580 75 580 75 593 76 c 0,115,116
 615 78 615 78 645 89 c 0,117,118
 668 97 668 97 716.5 115 c 128,-1,119
 765 133 765 133 797 145 c 1,87,-1
EndSplineSet
Validated: 1
EndChar

StartChar: uni0262
Encoding: 610 610 120
Width: 1078
Flags: W
LayerCount: 2
Fore
SplineSet
598 -26 m 0,0,1
 389 -26 389 -26 228 104 c 128,-1,2
 67 234 67 234 67 463 c 0,3,4
 67 687 67 687 223.5 821.5 c 128,-1,5
 380 956 380 956 598 956 c 0,6,7
 676 956 676 956 764 939.5 c 128,-1,8
 852 923 852 923 932 873 c 1,9,-1
 916 713 l 2,10,11
 914 701 914 701 903 701 c 2,12,-1
 900 701 l 1,13,14
 890 702 890 702 883 720 c 1,15,16
 838 812 838 812 772.5 847 c 128,-1,17
 707 882 707 882 598 882 c 0,18,19
 527 882 527 882 446 840.5 c 128,-1,20
 365 799 365 799 311 707 c 1,21,22
 252 603 252 603 252 463 c 0,23,24
 252 301 252 301 359.5 181.5 c 128,-1,25
 467 62 467 62 598 53 c 0,26,27
 624 51 624 51 647 51 c 0,28,29
 711 51 711 51 749 66 c 1,30,31
 801 85 801 85 845 158 c 1,32,-1
 845 282 l 1,33,34
 843 303 843 303 823 314 c 0,35,36
 805 323 805 323 769.5 337 c 128,-1,37
 734 351 734 351 734 365 c 256,38,39
 734 379 734 379 748 379 c 2,40,-1
 1037 379 l 2,41,42
 1051 379 1051 379 1051 365 c 0,43,44
 1051 348 1051 348 1017 336 c 128,-1,45
 983 324 983 324 983 282 c 2,46,-1
 983 24 l 1,47,48
 925 21 925 21 882.5 14.5 c 128,-1,49
 840 8 840 8 786 -4 c 1,50,51
 703 -26 703 -26 598 -26 c 0,0,1
EndSplineSet
Validated: 1
EndChar

StartChar: uni026A
Encoding: 618 618 121
Width: 452
Flags: W
LayerCount: 2
Fore
SplineSet
318 146 m 2,0,1
 318 81 318 81 368 63.5 c 128,-1,2
 418 46 418 46 418 21 c 0,3,4
 418 0 418 0 398 0 c 2,5,-1
 65 0 l 2,6,7
 44 0 44 0 44 21 c 0,8,9
 44 46 44 46 94 63.5 c 128,-1,10
 144 81 144 81 144 146 c 2,11,-1
 144 785 l 2,12,13
 144 849 144 849 94 867 c 128,-1,14
 44 885 44 885 44 911 c 0,15,16
 44 931 44 931 65 931 c 2,17,-1
 398 931 l 2,18,19
 418 931 418 931 418 911 c 0,20,21
 418 885 418 885 368 867 c 128,-1,22
 318 849 318 849 318 785 c 2,23,-1
 318 146 l 2,0,1
EndSplineSet
Validated: 1
EndChar

StartChar: uni0274
Encoding: 628 628 122
Width: 1142
Flags: W
LayerCount: 2
Fore
SplineSet
892 200 m 1,0,-1
 892 784 l 2,1,2
 892 848 892 848 842 866 c 128,-1,3
 792 884 792 884 792 910 c 0,4,5
 792 931 792 931 813 931 c 2,6,-1
 1067 931 l 2,7,8
 1088 931 1088 931 1088 910 c 0,9,10
 1088 884 1088 884 1036 866 c 128,-1,11
 984 848 984 848 984 784 c 2,12,-1
 984 -43 l 1,13,-1
 828 0 l 1,14,-1
 228 716 l 1,15,-1
 228 146 l 2,16,17
 228 81 228 81 278 63.5 c 128,-1,18
 328 46 328 46 328 21 c 0,19,20
 328 0 328 0 308 0 c 2,21,-1
 53 0 l 2,22,23
 32 0 32 0 32 21 c 0,24,25
 32 46 32 46 83.5 63.5 c 128,-1,26
 135 81 135 81 135 146 c 2,27,-1
 135 784 l 2,28,29
 135 848 135 848 85 866 c 128,-1,30
 35 884 35 884 35 910 c 0,31,32
 35 931 35 931 56 931 c 2,33,-1
 292 931 l 1,34,-1
 892 200 l 1,0,-1
EndSplineSet
Validated: 1
EndChar

StartChar: uni0276
Encoding: 630 630 123
Width: 1506
Flags: W
LayerCount: 2
Fore
SplineSet
556 956 m 0,0,1
 604 956 604 956 652 943.5 c 128,-1,2
 700 931 700 931 745 931 c 2,3,-1
 1382 931 l 1,4,-1
 1382 740 l 2,5,6
 1382 719 1382 719 1366 717 c 1,7,-1
 1364 717 l 2,8,9
 1351 717 1351 717 1325 753 c 0,10,11
 1292 799 1292 799 1276.5 823.5 c 128,-1,12
 1261 848 1261 848 1222 848 c 2,13,-1
 971 848 l 1,14,-1
 971 509 l 1,15,-1
 1090 509 l 2,16,17
 1119 509 1119 509 1139 534 c 2,18,-1
 1176 578 l 1,19,20
 1190 578 1190 578 1190 564 c 2,21,-1
 1190 374 l 2,22,23
 1190 360 1190 360 1176 360 c 0,24,25
 1165 360 1165 360 1157 377.5 c 128,-1,26
 1149 395 1149 395 1134 410 c 0,27,28
 1116 428 1116 428 1090 428 c 2,29,-1
 971 428 l 1,30,-1
 971 78 l 1,31,-1
 1223 78 l 2,32,33
 1284 78 1284 78 1317 117.5 c 128,-1,34
 1350 157 1350 157 1372 184 c 1,35,36
 1393 212 1393 212 1404 212 c 2,37,-1
 1405 212 l 1,38,39
 1427 210 1427 210 1427 189 c 0,40,41
 1427 181 1427 181 1424 171 c 2,42,-1
 1376 0 l 1,43,-1
 718 0 l 2,44,45
 679 0 679 0 637 -11 c 128,-1,46
 595 -22 595 -22 555 -25 c 0,47,48
 541 -26 541 -26 527 -26 c 0,49,50
 339 -26 339 -26 195 102 c 0,51,52
 49 231 49 231 49 441 c 2,53,-1
 49 465 l 1,54,55
 57 691 57 691 196 822 c 128,-1,56
 335 953 335 953 556 956 c 0,0,1
797 191 m 1,57,-1
 797 754 l 1,58,59
 709 858 709 858 559 858 c 2,60,-1
 556 858 l 2,61,62
 370 858 370 858 296 742 c 128,-1,63
 222 626 222 626 222 464 c 0,64,65
 222 300 222 300 314.5 185 c 128,-1,66
 407 70 407 70 556 69 c 1,67,-1
 561 69 l 2,68,69
 700 69 700 69 797 191 c 1,57,-1
EndSplineSet
Validated: 1
EndChar

StartChar: uni0280
Encoding: 640 640 124
Width: 1010
Flags: W
LayerCount: 2
Fore
SplineSet
887 72 m 2,0,1
 890 68 890 68 912 57 c 128,-1,2
 934 46 934 46 960 45 c 1,3,4
 988 42 988 42 988 21 c 2,5,-1
 988 18 l 2,6,7
 988 0 988 0 968 0 c 2,8,-1
 738 0 l 2,9,10
 726 0 726 0 610.5 159 c 128,-1,11
 495 318 495 318 416 419 c 1,12,-1
 318 419 l 1,13,-1
 318 146 l 2,14,15
 318 81 318 81 368 63.5 c 128,-1,16
 418 46 418 46 418 21 c 0,17,18
 418 0 418 0 398 0 c 2,19,-1
 65 0 l 2,20,21
 44 0 44 0 44 21 c 0,22,23
 44 45 44 45 94 63 c 128,-1,24
 144 81 144 81 144 146 c 2,25,-1
 144 785 l 2,26,27
 144 849 144 849 94 867 c 128,-1,28
 44 885 44 885 44 911 c 0,29,30
 44 931 44 931 65 931 c 2,31,-1
 555 931 l 2,32,33
 625 931 625 931 701 906.5 c 128,-1,34
 777 882 777 882 819 813 c 0,35,36
 852 758 852 758 852 678 c 1,37,38
 850 603 850 603 808 543 c 0,39,40
 774 496 774 496 713 471 c 128,-1,41
 652 446 652 446 598 443 c 1,42,-1
 887 72 l 2,0,1
318 489 m 1,43,-1
 467 489 l 2,44,45
 561 489 561 489 624 549 c 0,46,47
 678 600 678 600 678 681 c 2,48,-1
 678 684 l 2,49,50
 678 766 678 766 622 819 c 0,51,52
 584 854 584 854 556.5 857.5 c 128,-1,53
 529 861 529 861 481 861 c 2,54,-1
 318 861 l 1,55,-1
 318 489 l 1,43,-1
EndSplineSet
Validated: 1
EndChar

StartChar: uni028F
Encoding: 655 655 125
Width: 940
Flags: W
LayerCount: 2
Fore
SplineSet
388 412 m 1,0,-1
 192 763 l 1,1,2
 168 799 168 799 117 828 c 0,3,4
 90 843 90 843 65 852 c 128,-1,5
 40 861 40 861 25 871 c 1,6,7
 13 877 13 877 9 885 c 0,8,9
 5 891 5 891 5 896 c 2,10,-1
 5 899 l 1,11,12
 6 905 6 905 15 905 c 2,13,-1
 344 905 l 2,14,15
 352 905 352 905 363 899 c 0,16,17
 373 894 373 894 379 885 c 0,18,19
 382 880 382 880 382 875 c 0,20,21
 382 868 382 868 376 860 c 0,22,23
 349 830 349 830 348 816 c 1,24,-1
 348 811 l 2,25,26
 348 790 348 790 364 768 c 1,27,-1
 548 463 l 1,28,-1
 656 633 l 2,29,30
 683 676 683 676 689 707 c 1,31,-1
 689 718 l 2,32,33
 689 747 689 747 667 792 c 2,34,-1
 634 858 l 1,35,-1
 773 918 l 1,36,37
 779 922 779 922 786 922 c 0,38,39
 798 922 798 922 809 906 c 1,40,-1
 867 808 l 2,41,42
 878 790 878 790 878 771 c 0,43,44
 878 737 878 737 845 703 c 0,45,46
 794 649 794 649 735 565 c 2,47,-1
 620 401 l 2,48,49
 602 376 602 376 596.5 328 c 128,-1,50
 591 280 591 280 591 237 c 2,51,-1
 591 142 l 2,52,53
 591 79 591 79 640 61.5 c 128,-1,54
 689 44 689 44 689 20 c 0,55,56
 689 0 689 0 668 0 c 2,57,-1
 339 0 l 2,58,59
 319 0 319 0 319 20 c 0,60,61
 319 44 319 44 367.5 61.5 c 128,-1,62
 416 79 416 79 416 142 c 2,63,-1
 416 311 l 2,64,65
 416 366 416 366 388 412 c 1,0,-1
EndSplineSet
Validated: 1
EndChar

StartChar: uni0299
Encoding: 665 665 126
Width: 865
Flags: W
LayerCount: 2
Fore
SplineSet
299 49 m 1,0,-1
 429 49 l 2,1,2
 477 49 477 49 526.5 63 c 128,-1,3
 576 77 576 77 612 112 c 0,4,5
 668 166 668 166 668 253 c 128,-1,6
 668 340 668 340 607 398.5 c 128,-1,7
 546 457 546 457 443 457 c 2,8,-1
 299 457 l 1,9,-1
 299 49 l 1,0,-1
299 515 m 1,10,-1
 462 515 l 1,11,12
 542 525 542 525 591 572 c 0,13,14
 638 617 638 617 638 695 c 0,15,16
 638 697 638 697 638 698 c 0,17,18
 638 778 638 778 584 830 c 128,-1,19
 530 882 530 882 435 882 c 2,20,-1
 299 882 l 1,21,-1
 299 515 l 1,10,-1
506 935 m 2,22,23
 572 935 572 935 642 912 c 0,24,25
 714 888 714 888 748 828 c 0,26,27
 781 770 781 770 781 699 c 0,28,29
 781 697 781 697 781 694 c 0,30,31
 781 622 781 622 746 572 c 128,-1,32
 711 522 711 522 652 496 c 1,33,34
 748 464 748 464 786 397 c 0,35,36
 823 332 823 332 823 254 c 0,37,38
 823 252 823 252 823 250 c 0,39,40
 823 170 823 170 781 110 c 0,41,42
 740 52 740 52 670.5 26 c 128,-1,43
 601 0 601 0 544 0 c 2,44,-1
 84 0 l 2,45,46
 71 0 71 0 71 15 c 128,-1,47
 71 30 71 30 104 42 c 128,-1,48
 137 54 137 54 137 97 c 2,49,-1
 137 837 l 2,50,51
 137 879 137 879 104 891 c 128,-1,52
 71 903 71 903 71 919 c 128,-1,53
 71 935 71 935 84 935 c 2,54,-1
 506 935 l 2,22,23
EndSplineSet
Validated: 1
EndChar

StartChar: uni029C
Encoding: 668 668 127
Width: 1169
Flags: W
LayerCount: 2
Fore
SplineSet
318 528 m 1,0,-1
 839 528 l 1,1,-1
 839 785 l 2,2,3
 839 849 839 849 789 867 c 128,-1,4
 739 885 739 885 739 911 c 0,5,6
 739 931 739 931 760 931 c 2,7,-1
 1093 931 l 2,8,9
 1114 931 1114 931 1114 911 c 0,10,11
 1114 885 1114 885 1063.5 867 c 128,-1,12
 1013 849 1013 849 1013 785 c 2,13,-1
 1013 146 l 2,14,15
 1013 81 1013 81 1063.5 63.5 c 128,-1,16
 1114 46 1114 46 1114 21 c 0,17,18
 1114 0 1114 0 1093 0 c 2,19,-1
 760 0 l 2,20,21
 739 0 739 0 739 21 c 0,22,23
 739 46 739 46 789 63.5 c 128,-1,24
 839 81 839 81 839 146 c 2,25,-1
 839 458 l 1,26,-1
 318 458 l 1,27,-1
 318 146 l 2,28,29
 318 81 318 81 368 63.5 c 128,-1,30
 418 46 418 46 418 21 c 0,31,32
 418 0 418 0 398 0 c 2,33,-1
 65 0 l 2,34,35
 44 0 44 0 44 21 c 0,36,37
 44 46 44 46 94 63.5 c 128,-1,38
 144 81 144 81 144 146 c 2,39,-1
 144 785 l 2,40,41
 144 849 144 849 94 867 c 128,-1,42
 44 885 44 885 44 911 c 0,43,44
 44 931 44 931 65 931 c 2,45,-1
 398 931 l 2,46,47
 418 931 418 931 418 911 c 0,48,49
 418 885 418 885 368 867 c 128,-1,50
 318 849 318 849 318 785 c 2,51,-1
 318 528 l 1,0,-1
EndSplineSet
Validated: 1
EndChar

StartChar: uni029F
Encoding: 671 671 128
Width: 865
Flags: W
LayerCount: 2
Fore
SplineSet
793 212 m 1,0,1
 815 212 815 212 816 189 c 0,2,3
 816 183 816 183 813 171 c 2,4,-1
 765 0 l 1,5,-1
 65 0 l 2,6,7
 44 0 44 0 44 23 c 128,-1,8
 44 46 44 46 94 63.5 c 128,-1,9
 144 81 144 81 144 146 c 2,10,-1
 144 785 l 2,11,12
 144 849 144 849 94 867 c 128,-1,13
 44 885 44 885 44 911 c 0,14,15
 44 931 44 931 65 931 c 2,16,-1
 398 931 l 2,17,18
 418 931 418 931 418 911 c 0,19,20
 418 885 418 885 368 867 c 128,-1,21
 318 849 318 849 318 785 c 2,22,-1
 318 83 l 1,23,-1
 613 83 l 2,24,25
 674 83 674 83 706.5 120 c 128,-1,26
 739 157 739 157 761 184.5 c 128,-1,27
 783 212 783 212 793 212 c 1,0,1
EndSplineSet
Validated: 1
EndChar

StartChar: circumflex
Encoding: 710 710 129
Width: 1000
Flags: W
LayerCount: 2
Fore
SplineSet
212 1096 m 1,0,-1
 442 1443 l 1,1,-1
 558 1443 l 1,2,-1
 787 1096 l 1,3,-1
 730 1096 l 1,4,-1
 500 1305 l 1,5,-1
 270 1096 l 1,6,-1
 212 1096 l 1,0,-1
EndSplineSet
Validated: 1
Colour: ffff00
EndChar

StartChar: breve
Encoding: 728 728 130
Width: 1000
Flags: W
LayerCount: 2
Fore
SplineSet
500 1115 m 0,0,1
 341 1115 341 1115 259 1227 c 1,2,3
 202 1303 202 1303 196 1412 c 1,4,-1
 196 1415 l 2,5,6
 196 1439 196 1439 223 1439 c 0,7,8
 242 1439 242 1439 250 1412 c 0,9,10
 293 1247 293 1247 499 1246 c 1,11,-1
 504 1246 l 2,12,13
 707 1246 707 1246 750 1412 c 0,14,15
 757 1439 757 1439 777 1439 c 0,16,17
 804 1439 804 1439 804 1414 c 2,18,-1
 804 1412 l 1,19,20
 797 1303 797 1303 741 1227 c 0,21,22
 658 1115 658 1115 500 1115 c 0,0,1
EndSplineSet
Validated: 1
Colour: ffff00
EndChar

StartChar: dotaccent
Encoding: 729 729 131
Width: 1000
Flags: W
LayerCount: 2
Fore
SplineSet
500 1400 m 128,-1,1
 610 1400 610 1400 610 1290 c 0,2,3
 610 1179 610 1179 500 1179 c 128,-1,4
 390 1179 390 1179 390 1290 c 0,5,0
 390 1400 390 1400 500 1400 c 128,-1,1
EndSplineSet
Validated: 1
Colour: ffff00
EndChar

StartChar: ring
Encoding: 730 730 132
Width: 1000
Flags: W
LayerCount: 2
Fore
SplineSet
500 1514 m 256,0,1
 581 1514 581 1514 638 1455 c 128,-1,2
 695 1396 695 1396 695 1313.5 c 128,-1,3
 695 1231 695 1231 638 1173 c 128,-1,4
 581 1115 581 1115 500 1115 c 256,5,6
 419 1115 419 1115 362 1173 c 128,-1,7
 305 1231 305 1231 305 1313.5 c 128,-1,8
 305 1396 305 1396 362 1455 c 128,-1,9
 419 1514 419 1514 500 1514 c 256,0,1
579 1436 m 1,10,11
 541 1486 541 1486 491.5 1486 c 128,-1,12
 442 1486 442 1486 412 1438 c 0,13,14
 381 1391 381 1391 381 1327 c 0,15,16
 381 1321 381 1321 381 1315 c 0,17,18
 384 1243 384 1243 421.5 1193 c 128,-1,19
 459 1143 459 1143 509 1143 c 256,20,21
 559 1143 559 1143 590 1191 c 1,22,23
 620 1250 620 1250 620 1306 c 0,24,25
 620 1372 620 1372 579 1436 c 1,10,11
EndSplineSet
Validated: 1
Colour: ffff00
EndChar

StartChar: tilde
Encoding: 732 732 133
Width: 1000
VWidth: 2098
Flags: W
HStem: 1187 109<541.134 725.327> 1317 113<286.939 471.719>
VStem: 183 32<1158.86 1198.71> 782 34.5<1401.48 1448.87>
LayerCount: 2
Fore
SplineSet
202 1158 m 1,0,1
 184 1162 184 1162 183 1178 c 0,2,3
 181 1194 181 1194 201 1236 c 2,4,-1
 254 1354 l 2,5,6
 288 1430 288 1430 368 1430 c 128,-1,7
 448 1430 448 1430 538 1343 c 1,8,9
 584 1296 584 1296 632 1296 c 0,10,11
 673 1296 673 1296 715 1331 c 0,12,13
 753 1363 753 1363 782 1437 c 0,14,15
 787 1451 787 1451 801 1449 c 1,16,17
 816 1445 816 1445 816.5 1429 c 128,-1,18
 817 1413 817 1413 814 1405 c 0,19,20
 772 1292 772 1292 731.5 1239.5 c 128,-1,21
 691 1187 691 1187 646 1187 c 0,22,23
 567 1187 567 1187 473 1271 c 1,24,25
 426 1317 426 1317 379 1317 c 0,26,27
 341 1317 341 1317 305 1288 c 1,28,-1
 284 1270 l 1,29,30
 245 1233 245 1233 215 1168 c 0,31,32
 210 1158 210 1158 202 1158 c 1,0,1
EndSplineSet
Validated: 1
Colour: ffff00
EndChar

StartChar: uni0305
Encoding: 773 773 134
Width: 0
Flags: W
LayerCount: 2
Fore
SplineSet
-1070 1221 m 1,0,-1
 -1070 1304 l 1,1,-1
 0 1304 l 1,2,-1
 0 1221 l 1,3,-1
 -1070 1221 l 1,0,-1
EndSplineSet
Validated: 1
EndChar

StartChar: uni031A
Encoding: 794 794 135
Width: 0
Flags: W
LayerCount: 2
Fore
SplineSet
63 891 m 1,0,-1
 -18 891 l 1,1,-1
 -18 1158 l 1,2,-1
 -473 1158 l 1,3,-1
 -473 1241 l 1,4,-1
 63 1241 l 1,5,-1
 63 891 l 1,0,-1
EndSplineSet
Validated: 1
EndChar

StartChar: uni031F
Encoding: 799 799 136
Width: 0
Flags: W
LayerCount: 2
Fore
SplineSet
-511 -74 m 1,0,-1
 -511 -263 l 1,1,-1
 -322 -263 l 1,2,-1
 -322 -346 l 1,3,-1
 -511 -346 l 1,4,-1
 -511 -534 l 1,5,-1
 -593 -534 l 1,6,-1
 -593 -346 l 1,7,-1
 -782 -346 l 1,8,-1
 -782 -263 l 1,9,-1
 -593 -263 l 1,10,-1
 -593 -74 l 1,11,-1
 -511 -74 l 1,0,-1
EndSplineSet
Validated: 1
EndChar

StartChar: uni0320
Encoding: 800 800 137
Width: 0
Flags: W
LayerCount: 2
Fore
SplineSet
-782 -263 m 1,0,-1
 -322 -263 l 1,1,-1
 -322 -346 l 1,2,-1
 -782 -346 l 1,3,-1
 -782 -263 l 1,0,-1
EndSplineSet
Validated: 1
EndChar

StartChar: uni0321
Encoding: 801 801 138
Width: 0
Flags: W
LayerCount: 2
Fore
SplineSet
-146 0 m 1,0,1
 -146 -192 -146 -192 -171.5 -279.5 c 128,-1,2
 -197 -367 -197 -367 -260 -433 c 1,3,4
 -351 -525 -351 -525 -457 -552 c 1,5,-1
 -457 -503 l 1,6,7
 -364 -447 -364 -447 -334 -347 c 0,8,9
 -322 -308 -322 -308 -321.5 -238.5 c 128,-1,10
 -321 -169 -321 -169 -321 0 c 1,11,-1
 -146 0 l 1,0,1
EndSplineSet
Validated: 1
EndChar

StartChar: uni0322
Encoding: 802 802 139
Width: 0
Flags: W
LayerCount: 2
Fore
SplineSet
-334 0 m 1,0,1
 -334 0 -334 0 -159 0 c 1,2,3
 -159 -169 -159 -169 -158.5 -238.5 c 128,-1,4
 -158 -308 -158 -308 -146 -347 c 0,5,6
 -116 -447 -116 -447 -23 -503 c 1,7,-1
 -23 -552 l 1,8,9
 -129 -525 -129 -525 -220 -433 c 1,10,11
 -283 -367 -283 -367 -308.5 -279.5 c 128,-1,12
 -334 -192 -334 -192 -334 0 c 1,0,1
EndSplineSet
Validated: 1
EndChar

StartChar: dotbelowcomb
Encoding: 803 803 140
Width: 0
VWidth: 448
Flags: W
LayerCount: 2
Fore
SplineSet
-500 -200 m 128,-1,1
 -390 -200 -390 -200 -390 -310 c 0,2,3
 -390 -421 -390 -421 -500 -421 c 128,-1,4
 -610 -421 -610 -421 -610 -310 c 0,5,0
 -610 -200 -610 -200 -500 -200 c 128,-1,1
EndSplineSet
Validated: 1
EndChar

StartChar: uni0324
Encoding: 804 804 141
Width: 0
VWidth: 448
Flags: W
LayerCount: 2
Fore
SplineSet
-290 -200 m 0,0,1
 -180 -200 -180 -200 -180 -310 c 0,2,3
 -180 -421 -180 -421 -290 -421 c 0,4,5
 -400 -421 -400 -421 -400 -310 c 0,6,7
 -400 -200 -400 -200 -290 -200 c 0,0,1
-710 -200 m 0,8,9
 -600 -200 -600 -200 -600 -310 c 0,10,11
 -600 -421 -600 -421 -710 -421 c 0,12,13
 -820 -421 -820 -421 -820 -310 c 0,14,15
 -820 -200 -820 -200 -710 -200 c 0,8,9
EndSplineSet
Validated: 1
EndChar

StartChar: uni0326
Encoding: 806 806 142
Width: 0
Flags: W
LayerCount: 2
Fore
SplineSet
-525 -91 m 1,0,-1
 -515 -91 l 2,1,2
 -416 -91 -416 -91 -411 -173 c 2,3,-1
 -407 -255 l 1,4,-1
 -407 -260 l 2,5,6
 -407 -278 -407 -278 -413 -304 c 1,7,8
 -421 -333 -421 -333 -427 -353 c 0,9,10
 -461 -468 -461 -468 -570 -550 c 0,11,12
 -605 -577 -605 -577 -629 -577 c 0,13,14
 -643 -577 -643 -577 -654 -568 c 0,15,16
 -661 -561 -661 -561 -661 -553 c 256,17,18
 -661 -545 -661 -545 -653 -535 c 0,19,20
 -638 -517 -638 -517 -615 -502 c 0,21,22
 -523 -440 -523 -440 -512 -347 c 1,23,-1
 -524 -347 l 2,24,25
 -622 -347 -622 -347 -626 -266 c 2,26,-1
 -630 -184 l 1,27,-1
 -630 -177 l 2,28,29
 -630 -98 -630 -98 -525 -91 c 1,0,-1
EndSplineSet
Validated: 1
EndChar

StartChar: uni0329
Encoding: 809 809 143
Width: 0
Flags: W
LayerCount: 2
Fore
SplineSet
-596 -501 m 1,0,-1
 -596 -112 l 1,1,-1
 -470 -112 l 1,2,-1
 -470 -501 l 1,3,-1
 -596 -501 l 1,0,-1
EndSplineSet
Validated: 1
EndChar

StartChar: uni032A
Encoding: 810 810 144
Width: 0
Flags: W
LayerCount: 2
Fore
SplineSet
-197 -168 m 1,0,-1
 -197 -442 l 1,1,-1
 -280 -442 l 1,2,-1
 -280 -251 l 1,3,-1
 -867 -251 l 1,4,-1
 -867 -442 l 1,5,-1
 -949 -442 l 1,6,-1
 -949 -168 l 1,7,-1
 -197 -168 l 1,0,-1
EndSplineSet
Validated: 1
EndChar

StartChar: uni032B
Encoding: 811 811 145
Width: 0
Flags: W
LayerCount: 2
Fore
SplineSet
-957 -208 m 2,0,-1
 -957 -206 l 1,1,-1
 -928 -206 l 1,2,3
 -929 -210 -929 -210 -929 -216 c 0,4,5
 -929 -265 -929 -265 -878 -297 c 0,6,7
 -832 -327 -832 -327 -770 -327 c 2,8,-1
 -758 -327 l 1,9,10
 -712 -324 -712 -324 -650.5 -294.5 c 128,-1,11
 -589 -265 -589 -265 -589 -208 c 2,12,-1
 -589 -206 l 1,13,-1
 -558 -206 l 1,14,-1
 -558 -208 l 2,15,16
 -558 -274 -558 -274 -503 -302 c 0,17,18
 -454 -327 -454 -327 -401 -327 c 2,19,-1
 -389 -327 l 1,20,21
 -321 -323 -321 -323 -271.5 -288 c 128,-1,22
 -222 -253 -222 -253 -218 -206 c 1,23,-1
 -190 -206 l 1,24,-1
 -190 -208 l 2,25,26
 -190 -289 -190 -289 -248 -346 c 128,-1,27
 -306 -403 -306 -403 -389 -403 c 0,28,29
 -522 -403 -522 -403 -573 -283 c 1,30,31
 -623 -403 -623 -403 -758 -403 c 0,32,33
 -840 -403 -840 -403 -898.5 -346 c 128,-1,34
 -957 -289 -957 -289 -957 -208 c 2,0,-1
EndSplineSet
Validated: 1
EndChar

StartChar: uni0332
Encoding: 818 818 146
Width: 0
Flags: W
LayerCount: 2
Fore
SplineSet
-905 -383 m 1,0,-1
 -905 -300 l 1,1,-1
 0 -300 l 1,2,-1
 0 -383 l 1,3,-1
 -905 -383 l 1,0,-1
EndSplineSet
Validated: 1
EndChar

StartChar: uni0333
Encoding: 819 819 147
Width: 0
Flags: W
LayerCount: 2
Fore
SplineSet
-1060 -216 m 1,0,-1
 0 -216 l 1,1,-1
 0 -299 l 1,2,-1
 -1060 -299 l 1,3,-1
 -1060 -216 l 1,0,-1
-1060 -385 m 1,4,-1
 0 -385 l 1,5,-1
 0 -467 l 1,6,-1
 -1060 -467 l 1,7,-1
 -1060 -385 l 1,4,-1
EndSplineSet
Validated: 1
EndChar

StartChar: uni0335
Encoding: 821 821 148
Width: 0
Flags: W
LayerCount: 2
Fore
SplineSet
-915 427 m 1,0,-1
 -915 510 l 1,1,-1
 -146 510 l 1,2,-1
 -146 427 l 1,3,-1
 -915 427 l 1,0,-1
EndSplineSet
Validated: 1
EndChar

StartChar: uni0336
Encoding: 822 822 149
Width: 0
Flags: W
LayerCount: 2
Fore
SplineSet
-1060 420 m 1,0,-1
 -1060 503 l 1,1,-1
 0 503 l 1,2,-1
 0 420 l 1,3,-1
 -1060 420 l 1,0,-1
EndSplineSet
Validated: 1
EndChar

StartChar: uni0337
Encoding: 823 823 150
Width: 0
Flags: W
LayerCount: 2
Fore
SplineSet
-836 229 m 1,0,-1
 -291 774 l 1,1,-1
 -225 708 l 1,2,-1
 -770 163 l 1,3,-1
 -836 229 l 1,0,-1
EndSplineSet
Validated: 1
EndChar

StartChar: uni0338
Encoding: 824 824 151
Width: 0
Flags: W
LayerCount: 2
Fore
SplineSet
-862 -24 m 1,0,-1
 -277 988 l 1,1,-1
 -199 942 l 1,2,-1
 -784 -70 l 1,3,-1
 -862 -24 l 1,0,-1
EndSplineSet
Validated: 1
EndChar

StartChar: uni0339
Encoding: 825 825 152
Width: 0
Flags: W
LayerCount: 2
Fore
SplineSet
-631 -107 m 2,0,1
 -550 -107 -550 -107 -492.5 -165 c 128,-1,2
 -435 -223 -435 -223 -435 -307 c 0,3,4
 -435 -389 -435 -389 -492.5 -447.5 c 128,-1,5
 -550 -506 -550 -506 -631 -506 c 2,6,-1
 -632 -506 l 1,7,-1
 -632 -477 l 1,8,9
 -584 -472 -584 -472 -549.5 -423 c 128,-1,10
 -515 -374 -515 -374 -512 -306 c 1,11,-1
 -512 -290 l 2,12,13
 -512 -229 -512 -229 -540 -185 c 0,14,15
 -572 -135 -572 -135 -623 -135 c 0,16,17
 -629 -135 -629 -135 -632 -136 c 1,18,-1
 -632 -107 l 1,19,-1
 -631 -107 l 2,0,1
EndSplineSet
Validated: 1
EndChar

StartChar: uni033A
Encoding: 826 826 153
Width: 0
Flags: W
LayerCount: 2
Fore
SplineSet
-197 -442 m 1,0,-1
 -949 -442 l 1,1,-1
 -949 -168 l 1,2,-1
 -867 -168 l 1,3,-1
 -867 -359 l 1,4,-1
 -280 -359 l 1,5,-1
 -280 -168 l 1,6,-1
 -197 -168 l 1,7,-1
 -197 -442 l 1,0,-1
EndSplineSet
Validated: 1
EndChar

StartChar: uni033B
Encoding: 827 827 154
Width: 0
Flags: W
LayerCount: 2
Fore
SplineSet
-809 -92 m 1,0,-1
 -337 -92 l 1,1,-1
 -337 -564 l 1,2,-1
 -809 -564 l 1,3,-1
 -809 -92 l 1,0,-1
-726 -175 m 1,4,-1
 -726 -481 l 1,5,-1
 -420 -481 l 1,6,-1
 -420 -175 l 1,7,-1
 -726 -175 l 1,4,-1
EndSplineSet
Validated: 1
EndChar

StartChar: uni033C
Encoding: 828 828 155
Width: 0
Flags: W
LayerCount: 2
Fore
SplineSet
-949 -180 m 1,0,1
 -804 -216 -804 -216 -692.5 -248 c 128,-1,2
 -581 -280 -581 -280 -546 -421 c 1,3,4
 -519 -281 -519 -281 -426 -252 c 128,-1,5
 -333 -223 -333 -223 -197 -176 c 1,6,-1
 -197 -231 l 1,7,8
 -305 -282 -305 -282 -390.5 -333 c 128,-1,9
 -476 -384 -476 -384 -511 -534 c 1,10,-1
 -593 -534 l 1,11,12
 -627 -408 -627 -408 -710.5 -344.5 c 128,-1,13
 -794 -281 -794 -281 -949 -231 c 1,14,-1
 -949 -180 l 1,0,1
EndSplineSet
Validated: 1
EndChar

StartChar: uni033D
Encoding: 829 829 156
Width: 0
Flags: W
LayerCount: 2
Fore
SplineSet
-688 1586 m 1,0,-1
 -555 1453 l 1,1,-1
 -421 1586 l 1,2,-1
 -363 1528 l 1,3,-1
 -496 1394 l 1,4,-1
 -363 1261 l 1,5,-1
 -421 1203 l 1,6,-1
 -555 1336 l 1,7,-1
 -688 1203 l 1,8,-1
 -746 1261 l 1,9,-1
 -613 1394 l 1,10,-1
 -746 1528 l 1,11,-1
 -688 1586 l 1,0,-1
EndSplineSet
Validated: 1
EndChar

StartChar: uni033E
Encoding: 830 830 157
Width: 0
Flags: W
LayerCount: 2
Fore
SplineSet
-520 1222 m 0,0,1
 -618 1291 -618 1291 -658 1343 c 1,2,3
 -691 1384 -691 1384 -691 1421 c 0,4,5
 -691 1431 -691 1431 -688 1441 c 0,6,7
 -667 1516 -667 1516 -562 1586 c 1,8,9
 -488 1634 -488 1634 -488 1693 c 0,10,11
 -488 1718 -488 1718 -502 1745 c 0,12,13
 -507 1754 -507 1754 -514.5 1768.5 c 128,-1,14
 -522 1783 -522 1783 -536 1801 c 0,15,16
 -560 1832 -560 1832 -595 1862 c 0,17,18
 -602 1868 -602 1868 -602 1873 c 0,19,20
 -602 1880 -602 1880 -592 1887 c 0,21,22
 -586 1891 -586 1891 -578 1891 c 0,23,24
 -566 1891 -566 1891 -551 1879 c 0,25,26
 -490 1828 -490 1828 -425 1776 c 0,27,28
 -375 1735 -375 1735 -375 1684 c 0,29,30
 -375 1670 -375 1670 -379 1655 c 0,31,32
 -402 1569 -402 1569 -509 1505 c 0,33,34
 -582 1461 -582 1461 -582 1398 c 0,35,36
 -582 1370 -582 1370 -567 1337 c 0,37,38
 -545 1291 -545 1291 -481 1245 c 1,39,40
 -473 1238 -473 1238 -473 1231 c 0,41,42
 -473 1227 -473 1227 -475 1223 c 0,43,44
 -480 1213 -480 1213 -493 1213 c 0,45,46
 -496 1213 -496 1213 -500 1214 c 0,47,48
 -510 1215 -510 1215 -520 1222 c 0,0,1
EndSplineSet
Validated: 1
EndChar

StartChar: uni033F
Encoding: 831 831 158
Width: 0
Flags: W
LayerCount: 2
Fore
SplineSet
-1050 1388 m 1,0,-1
 0 1388 l 1,1,-1
 0 1305 l 1,2,-1
 -1050 1305 l 1,3,-1
 -1050 1388 l 1,0,-1
-1050 1219 m 1,4,-1
 0 1219 l 1,5,-1
 0 1137 l 1,6,-1
 -1050 1137 l 1,7,-1
 -1050 1219 l 1,4,-1
EndSplineSet
Validated: 1
EndChar

StartChar: uni0346
Encoding: 838 838 159
Width: 0
Flags: W
LayerCount: 2
Fore
SplineSet
-197 1454 m 1,0,-1
 -197 1180 l 1,1,-1
 -280 1180 l 1,2,-1
 -280 1371 l 1,3,-1
 -867 1371 l 1,4,-1
 -867 1180 l 1,5,-1
 -949 1180 l 1,6,-1
 -949 1454 l 1,7,-1
 -197 1454 l 1,0,-1
EndSplineSet
Validated: 1
EndChar

StartChar: uni0347
Encoding: 839 839 160
Width: 0
Flags: W
LayerCount: 2
Fore
SplineSet
-781 -216 m 1,0,-1
 -280 -216 l 1,1,-1
 -280 -299 l 1,2,-1
 -781 -299 l 1,3,-1
 -781 -216 l 1,0,-1
-781 -385 m 1,4,-1
 -280 -385 l 1,5,-1
 -280 -467 l 1,6,-1
 -781 -467 l 1,7,-1
 -781 -385 l 1,4,-1
EndSplineSet
Validated: 1
EndChar

StartChar: uni0348
Encoding: 840 840 161
Width: 0
Flags: W
LayerCount: 2
Fore
SplineSet
-491 -121 m 1,0,-1
 -365 -121 l 1,1,-1
 -365 -510 l 1,2,-1
 -491 -510 l 1,3,-1
 -491 -121 l 1,0,-1
-702 -121 m 1,4,-1
 -576 -121 l 1,5,-1
 -576 -510 l 1,6,-1
 -702 -510 l 1,7,-1
 -702 -121 l 1,4,-1
EndSplineSet
Validated: 1
EndChar

StartChar: uni0349
Encoding: 841 841 162
Width: 0
Flags: W
LayerCount: 2
Fore
SplineSet
-420 -554 m 1,0,-1
 -503 -554 l 1,1,-1
 -503 -286 l 1,2,-1
 -957 -286 l 1,3,-1
 -957 -203 l 1,4,-1
 -420 -203 l 1,5,-1
 -420 -554 l 1,0,-1
EndSplineSet
Validated: 1
EndChar

StartChar: uni034A
Encoding: 842 842 163
Width: 0
Flags: W
LayerCount: 2
Fore
SplineSet
-237 1320 m 1,0,1
 -194 1296 -194 1296 -158 1296 c 0,2,3
 -119 1296 -119 1296 -87 1323 c 1,4,5
 -47 1354 -47 1354 -19 1430 c 0,6,7
 -14 1442 -14 1442 -5 1442 c 0,8,9
 -3 1442 -3 1442 -1 1441 c 0,10,11
 11 1438 11 1438 14 1420 c 1,12,-1
 14 1415 l 2,13,14
 14 1406 14 1406 11 1398 c 0,15,16
 -27 1286 -27 1286 -68 1234 c 1,17,18
 -110 1179 -110 1179 -156 1179 c 0,19,20
 -208 1179 -208 1179 -299.5 1234.5 c 128,-1,21
 -391 1290 -391 1290 -439 1318 c 0,22,23
 -488 1346 -488 1346 -508 1380 c 0,24,25
 -523 1406 -523 1406 -523 1433 c 0,26,27
 -523 1469 -523 1469 -494 1509 c 0,28,29
 -445 1576 -445 1576 -400 1641 c 0,30,31
 -386 1660 -386 1660 -371 1660 c 0,32,33
 -366 1660 -366 1660 -361 1659 c 1,34,35
 -349 1654 -349 1654 -349 1646 c 0,36,37
 -349 1642 -349 1642 -353 1636 c 0,38,39
 -381 1594 -381 1594 -394 1562 c 0,40,41
 -405 1534 -405 1534 -413 1498 c 0,42,43
 -415 1489 -415 1489 -415 1480 c 0,44,45
 -415 1424 -415 1424 -343 1378 c 1,46,-1
 -325 1368 l 1,47,48
 -306 1403 -306 1403 -278 1438 c 128,-1,49
 -250 1473 -250 1473 -226 1508 c 0,50,51
 -212 1527 -212 1527 -197 1527 c 0,52,53
 -192 1527 -192 1527 -187 1525 c 0,54,55
 -175 1520 -175 1520 -175 1512 c 0,56,57
 -175 1508 -175 1508 -179 1502 c 0,58,59
 -206 1463 -206 1463 -220 1428 c 0,60,61
 -232 1400 -232 1400 -239 1365 c 0,62,63
 -240 1360 -240 1360 -240 1353 c 0,64,65
 -240 1340 -240 1340 -237 1320 c 1,0,1
EndSplineSet
Validated: 1
EndChar

StartChar: uni034B
Encoding: 843 843 164
Width: 0
Flags: W
LayerCount: 2
Fore
SplineSet
-219 1356 m 0,0,1
 -260 1243 -260 1243 -300 1191 c 0,2,3
 -341 1137 -341 1137 -388 1137 c 0,4,5
 -466 1137 -466 1137 -560 1221 c 1,6,7
 -613 1267 -613 1267 -659 1267 c 0,8,9
 -696 1267 -696 1267 -729 1238 c 0,10,11
 -737 1230 -737 1230 -748.5 1219.5 c 128,-1,12
 -760 1209 -760 1209 -775 1191 c 1,13,14
 -800 1156 -800 1156 -818 1118 c 0,15,16
 -823 1108 -823 1108 -830 1108 c 0,17,18
 -835 1108 -835 1108 -842 1114 c 0,19,20
 -851 1121 -851 1121 -851 1134 c 0,21,22
 -851 1144 -851 1144 -846 1156 c 0,23,24
 -813 1228 -813 1228 -779 1304 c 128,-1,25
 -745 1380 -745 1380 -674 1380 c 0,26,27
 -585 1380 -585 1380 -495 1293 c 0,28,29
 -447 1246 -447 1246 -400 1246 c 0,30,31
 -359 1246 -359 1246 -319 1281 c 1,32,33
 -279 1312 -279 1312 -251 1387 c 0,34,35
 -246 1399 -246 1399 -236 1399 c 2,36,-1
 -232 1399 l 1,37,38
 -219 1396 -219 1396 -217 1378 c 0,39,40
 -216 1375 -216 1375 -216 1371 c 0,41,42
 -216 1364 -216 1364 -219 1356 c 0,0,1
-533 1144 m 0,43,44
 -491 1144 -491 1144 -491 1101 c 0,45,46
 -491 1059 -491 1059 -533 1059 c 0,47,48
 -576 1059 -576 1059 -576 1101 c 0,49,50
 -576 1144 -576 1144 -533 1144 c 0,43,44
-533 1449 m 0,51,52
 -491 1449 -491 1449 -491 1407 c 0,53,54
 -491 1364 -491 1364 -533 1364 c 0,55,56
 -576 1364 -576 1364 -576 1407 c 0,57,58
 -576 1449 -576 1449 -533 1449 c 0,51,52
EndSplineSet
Validated: 1
EndChar

StartChar: uni034C
Encoding: 844 844 165
Width: 0
Flags: W
LayerCount: 2
Fore
SplineSet
-219 1414 m 0,0,1
 -262 1339 -262 1339 -300 1309 c 1,2,3
 -341 1274 -341 1274 -388 1274 c 0,4,5
 -466 1274 -466 1274 -560 1328 c 1,6,7
 -613 1357 -613 1357 -659 1357 c 0,8,9
 -696 1357 -696 1357 -729 1339 c 1,10,11
 -737 1333 -737 1333 -748.5 1326.5 c 128,-1,12
 -760 1320 -760 1320 -775 1308 c 0,13,14
 -798 1288 -798 1288 -818 1262 c 0,15,16
 -823 1255 -823 1255 -830 1255 c 0,17,18
 -835 1255 -835 1255 -842 1259 c 0,19,20
 -851 1264 -851 1264 -851 1272 c 0,21,22
 -851 1278 -851 1278 -846 1286 c 0,23,24
 -813 1332 -813 1332 -779 1380.5 c 128,-1,25
 -745 1429 -745 1429 -674 1429 c 0,26,27
 -585 1429 -585 1429 -495 1374 c 1,28,29
 -448 1344 -448 1344 -400 1344 c 0,30,31
 -359 1344 -359 1344 -319 1366 c 1,32,33
 -278 1386 -278 1386 -251 1434 c 0,34,35
 -246 1441 -246 1441 -236 1441 c 2,36,-1
 -232 1441 l 1,37,38
 -219 1439 -219 1439 -217 1428 c 0,39,40
 -216 1425 -216 1425 -216 1423 c 0,41,42
 -216 1418 -216 1418 -219 1414 c 0,0,1
-219 1224 m 0,43,44
 -261 1152 -261 1152 -300 1119 c 0,45,46
 -341 1084 -341 1084 -388 1084 c 0,47,48
 -466 1084 -466 1084 -560 1138 c 1,49,50
 -613 1167 -613 1167 -659 1167 c 0,51,52
 -696 1167 -696 1167 -729 1149 c 1,53,54
 -754 1134 -754 1134 -775 1119 c 1,55,56
 -802 1093 -802 1093 -818 1072 c 0,57,58
 -823 1065 -823 1065 -830 1065 c 0,59,60
 -835 1065 -835 1065 -842 1069 c 0,61,62
 -851 1074 -851 1074 -851 1083 c 0,63,64
 -851 1089 -851 1089 -846 1097 c 0,65,66
 -813 1142 -813 1142 -779 1191 c 128,-1,67
 -745 1240 -745 1240 -674 1240 c 0,68,69
 -585 1240 -585 1240 -495 1184 c 0,70,71
 -447 1154 -447 1154 -400 1154 c 0,72,73
 -359 1154 -359 1154 -319 1176 c 1,74,75
 -279 1196 -279 1196 -251 1245 c 0,76,77
 -246 1252 -246 1252 -236 1252 c 2,78,-1
 -232 1252 l 1,79,80
 -219 1250 -219 1250 -217 1238 c 0,81,82
 -216 1236 -216 1236 -216 1234 c 0,83,84
 -216 1229 -216 1229 -219 1224 c 0,43,44
EndSplineSet
Validated: 1
EndChar

StartChar: uni034D
Encoding: 845 845 166
Width: 0
Flags: W
LayerCount: 2
Fore
SplineSet
-889 -300 m 1,0,-1
 -178 -300 l 1,1,-1
 -202 -226 l 1,2,-1
 -44 -342 l 1,3,-1
 -202 -457 l 1,4,-1
 -178 -383 l 1,5,-1
 -889 -383 l 1,6,-1
 -865 -457 l 1,7,-1
 -1023 -342 l 1,8,-1
 -865 -226 l 1,9,-1
 -889 -300 l 1,0,-1
EndSplineSet
Validated: 1
EndChar

StartChar: uni034E
Encoding: 846 846 167
Width: 0
Flags: W
LayerCount: 2
Fore
SplineSet
-492 -577 m 1,0,-1
 -575 -577 l 1,1,-1
 -575 -239 l 1,2,-1
 -649 -263 l 1,3,-1
 -533 -105 l 1,4,-1
 -418 -263 l 1,5,-1
 -492 -239 l 1,6,-1
 -492 -577 l 1,0,-1
EndSplineSet
Validated: 1
EndChar

StartChar: uni0350
Encoding: 848 848 168
Width: 0
Flags: W
LayerCount: 2
Fore
SplineSet
-382 1388 m 0,0,1
 -447 1334 -447 1334 -514.5 1280.5 c 128,-1,2
 -582 1227 -582 1227 -647 1176 c 0,3,4
 -650 1174 -650 1174 -653 1174 c 0,5,6
 -654 1174 -654 1174 -656 1175 c 2,7,-1
 -684 1191 l 1,8,9
 -688 1192 -688 1192 -688 1195 c 0,10,11
 -688 1196 -688 1196 -687 1198 c 2,12,-1
 -493 1396 l 1,13,-1
 -686 1592 l 2,14,15
 -688 1594 -688 1594 -688 1595 c 0,16,17
 -688 1597 -688 1597 -684 1599 c 2,18,-1
 -656 1615 l 1,19,-1
 -653 1615 l 2,20,21
 -650 1615 -650 1615 -647 1614 c 1,22,23
 -590 1566 -590 1566 -509 1506 c 128,-1,24
 -428 1446 -428 1446 -382 1402 c 1,25,26
 -377 1399 -377 1399 -377 1395 c 0,27,28
 -377 1392 -377 1392 -382 1388 c 0,0,1
EndSplineSet
Validated: 1
EndChar

StartChar: uni0351
Encoding: 849 849 169
Width: 0
Flags: W
LayerCount: 2
Fore
SplineSet
-437 1514 m 2,0,-1
 -435 1514 l 1,1,-1
 -435 1485 l 1,2,3
 -438 1486 -438 1486 -445 1486 c 0,4,5
 -494 1486 -494 1486 -526 1436 c 0,6,7
 -556 1389 -556 1389 -556 1327 c 2,8,-1
 -556 1315 l 1,9,10
 -552 1246 -552 1246 -517 1197 c 128,-1,11
 -482 1148 -482 1148 -435 1144 c 1,12,-1
 -435 1115 l 1,13,-1
 -437 1115 l 2,14,15
 -517 1115 -517 1115 -574.5 1173 c 128,-1,16
 -632 1231 -632 1231 -632 1314 c 0,17,18
 -632 1396 -632 1396 -574.5 1455 c 128,-1,19
 -517 1514 -517 1514 -437 1514 c 2,0,-1
EndSplineSet
Validated: 1
EndChar

StartChar: uni0352
Encoding: 850 850 170
Width: 0
Flags: W
LayerCount: 2
Fore
SplineSet
-533 1653 m 256,0,1
 -374 1653 -374 1653 -292 1541 c 1,2,3
 -235 1460 -235 1460 -229 1356 c 1,4,5
 -229 1329 -229 1329 -256 1329 c 0,6,7
 -275 1329 -275 1329 -283 1356 c 0,8,9
 -326 1522 -326 1522 -533 1522 c 2,10,-1
 -535 1522 l 1,11,12
 -740 1520 -740 1520 -784 1356 c 0,13,14
 -791 1329 -791 1329 -811 1329 c 0,15,16
 -837 1329 -837 1329 -837 1354 c 2,17,-1
 -837 1356 l 1,18,19
 -832 1459 -832 1459 -775 1541 c 1,20,21
 -692 1653 -692 1653 -533 1653 c 256,0,1
-533 1178 m 0,22,23
 -643 1178 -643 1178 -643 1289 c 0,24,25
 -643 1399 -643 1399 -533 1399 c 0,26,27
 -424 1399 -424 1399 -424 1289 c 0,28,29
 -424 1178 -424 1178 -533 1178 c 0,22,23
EndSplineSet
Validated: 1
EndChar

StartChar: uni0353
Encoding: 851 851 171
Width: 0
Flags: W
LayerCount: 2
Fore
SplineSet
-667 -96 m 1,0,-1
 -533 -229 l 1,1,-1
 -400 -96 l 1,2,-1
 -342 -154 l 1,3,-1
 -475 -288 l 1,4,-1
 -342 -421 l 1,5,-1
 -400 -480 l 1,6,-1
 -533 -346 l 1,7,-1
 -667 -480 l 1,8,-1
 -725 -421 l 1,9,-1
 -592 -288 l 1,10,-1
 -725 -154 l 1,11,-1
 -667 -96 l 1,0,-1
EndSplineSet
Validated: 1
EndChar

StartChar: uni0354
Encoding: 852 852 172
Width: 0
Flags: W
LayerCount: 2
Fore
SplineSet
-685 -295 m 0,0,1
 -689 -291 -689 -291 -689 -288 c 0,2,3
 -689 -284 -689 -284 -685 -280 c 0,4,5
 -638 -236 -638 -236 -557 -175.5 c 128,-1,6
 -476 -115 -476 -115 -420 -69 c 0,7,8
 -416 -67 -416 -67 -414 -67 c 256,9,10
 -412 -67 -412 -67 -411 -68 c 2,11,-1
 -382 -84 l 2,12,13
 -378 -86 -378 -86 -378 -87 c 0,14,15
 -378 -89 -378 -89 -381 -90 c 1,16,-1
 -574 -287 l 1,17,-1
 -380 -485 l 2,18,19
 -378 -487 -378 -487 -378 -488 c 0,20,21
 -378 -490 -378 -490 -382 -492 c 2,22,-1
 -411 -508 l 1,23,-1
 -413 -508 l 2,24,25
 -416 -508 -416 -508 -420 -507 c 1,26,27
 -484 -455 -484 -455 -551.5 -401.5 c 128,-1,28
 -619 -348 -619 -348 -685 -295 c 0,0,1
EndSplineSet
Validated: 1
EndChar

StartChar: uni0355
Encoding: 853 853 173
Width: 0
Flags: W
LayerCount: 2
Fore
SplineSet
-382 -295 m 0,0,1
 -447 -348 -447 -348 -514.5 -401.5 c 128,-1,2
 -582 -455 -582 -455 -647 -507 c 1,3,4
 -650 -508 -650 -508 -653 -508 c 2,5,-1
 -656 -508 l 1,6,-1
 -684 -492 l 2,7,8
 -688 -490 -688 -490 -688 -488 c 256,9,10
 -688 -486 -688 -486 -687 -485 c 2,11,-1
 -493 -287 l 1,12,-1
 -686 -90 l 2,13,14
 -689 -88 -689 -88 -689 -87 c 0,15,16
 -689 -85 -689 -85 -684 -84 c 1,17,-1
 -656 -68 l 2,18,19
 -655 -67 -655 -67 -653 -67 c 0,20,21
 -650 -67 -650 -67 -647 -69 c 0,22,23
 -590 -115 -590 -115 -509 -175.5 c 128,-1,24
 -428 -236 -428 -236 -382 -280 c 0,25,26
 -377 -284 -377 -284 -377 -288 c 0,27,28
 -377 -291 -377 -291 -382 -295 c 0,0,1
EndSplineSet
Validated: 1
EndChar

StartChar: uni0356
Encoding: 854 854 174
Width: 0
Flags: W
LayerCount: 2
Fore
SplineSet
-616 -295 m 0,0,1
 -681 -348 -681 -348 -748 -401.5 c 128,-1,2
 -815 -455 -815 -455 -880 -507 c 1,3,4
 -884 -508 -884 -508 -887 -508 c 2,5,-1
 -890 -508 l 1,6,-1
 -918 -492 l 2,7,8
 -922 -490 -922 -490 -922 -488 c 0,9,10
 -922 -487 -922 -487 -920 -485 c 2,11,-1
 -726 -287 l 1,12,-1
 -919 -90 l 2,13,14
 -921 -89 -921 -89 -921 -87 c 0,15,16
 -921 -86 -921 -86 -918 -84 c 2,17,-1
 -890 -68 l 2,18,19
 -888 -67 -888 -67 -886 -67 c 0,20,21
 -883 -67 -883 -67 -880 -69 c 0,22,23
 -823 -115 -823 -115 -742 -175.5 c 128,-1,24
 -661 -236 -661 -236 -616 -280 c 0,25,26
 -611 -284 -611 -284 -611 -288 c 256,27,28
 -611 -292 -611 -292 -616 -295 c 0,0,1
-359 -137 m 0,29,30
 -305 -202 -305 -202 -252 -269.5 c 128,-1,31
 -199 -337 -199 -337 -148 -402 c 1,32,33
 -145 -404 -145 -404 -145 -407 c 0,34,35
 -145 -409 -145 -409 -147 -411 c 2,36,-1
 -162 -439 l 1,37,38
 -165 -442 -165 -442 -168 -442 c 2,39,-1
 -169 -442 l 1,40,-1
 -367 -247 l 1,41,-1
 -564 -441 l 1,42,-1
 -566 -441 l 2,43,44
 -568 -441 -568 -441 -571 -439 c 1,45,-1
 -587 -411 l 2,46,47
 -588 -409 -588 -409 -588 -407 c 0,48,49
 -588 -403 -588 -403 -585 -402 c 1,50,51
 -538 -345 -538 -345 -477.5 -263.5 c 128,-1,52
 -417 -182 -417 -182 -374 -137 c 0,53,54
 -370 -133 -370 -133 -366 -133 c 256,55,56
 -362 -133 -362 -133 -359 -137 c 0,29,30
EndSplineSet
Validated: 1
EndChar

StartChar: uni0357
Encoding: 855 855 175
Width: 0
Flags: W
LayerCount: 2
Fore
SplineSet
-631 1514 m 2,0,1
 -550 1514 -550 1514 -492.5 1455 c 128,-1,2
 -435 1396 -435 1396 -435 1314 c 0,3,4
 -435 1231 -435 1231 -492.5 1173 c 128,-1,5
 -550 1115 -550 1115 -631 1115 c 2,6,-1
 -632 1115 l 1,7,-1
 -632 1144 l 1,8,9
 -584 1148 -584 1148 -549.5 1197 c 128,-1,10
 -515 1246 -515 1246 -512 1315 c 1,11,-1
 -512 1330 l 2,12,13
 -512 1391 -512 1391 -540 1436 c 0,14,15
 -572 1486 -572 1486 -623 1486 c 0,16,17
 -629 1486 -629 1486 -632 1485 c 1,18,-1
 -632 1514 l 1,19,-1
 -631 1514 l 2,0,1
EndSplineSet
Validated: 1
EndChar

StartChar: uni0358
Encoding: 856 856 176
Width: 0
Flags: W
LayerCount: 2
Fore
SplineSet
-7 1400 m 0,0,1
 37 1400 37 1400 69.5 1367.5 c 128,-1,2
 102 1335 102 1335 102 1290 c 0,3,4
 102 1244 102 1244 69.5 1211.5 c 128,-1,5
 37 1179 37 1179 -7 1179 c 0,6,7
 -116 1179 -116 1179 -116 1290 c 0,8,9
 -116 1400 -116 1400 -7 1400 c 0,0,1
EndSplineSet
Validated: 1
EndChar

StartChar: uni0359
Encoding: 857 857 177
Width: 0
Flags: W
LayerCount: 2
Fore
SplineSet
-690 -215 m 2,0,-1
 -565 -287 l 1,1,-1
 -565 -143 l 2,2,3
 -565 -121 -565 -121 -549 -121 c 2,4,-1
 -518 -121 l 2,5,6
 -502 -121 -502 -121 -502 -143 c 2,7,-1
 -502 -287 l 1,8,-1
 -377 -215 l 2,9,10
 -368 -210 -368 -210 -361 -210 c 0,11,12
 -353 -210 -353 -210 -350 -218 c 1,13,-1
 -334 -245 l 2,14,15
 -332 -249 -332 -249 -332 -253 c 0,16,17
 -332 -262 -332 -262 -345 -270 c 2,18,-1
 -470 -342 l 1,19,-1
 -345 -414 l 2,20,21
 -332 -421 -332 -421 -332 -431 c 0,22,23
 -332 -435 -332 -435 -334 -439 c 2,24,-1
 -350 -466 l 2,25,26
 -353 -473 -353 -473 -361 -473 c 0,27,28
 -368 -473 -368 -473 -377 -469 c 1,29,-1
 -502 -397 l 1,30,-1
 -502 -541 l 2,31,32
 -502 -563 -502 -563 -518 -563 c 2,33,-1
 -549 -563 l 2,34,35
 -565 -563 -565 -563 -565 -541 c 2,36,-1
 -565 -397 l 1,37,-1
 -690 -469 l 1,38,39
 -699 -473 -699 -473 -705 -473 c 0,40,41
 -713 -473 -713 -473 -717 -466 c 2,42,-1
 -733 -439 l 2,43,44
 -735 -435 -735 -435 -735 -431 c 0,45,46
 -735 -421 -735 -421 -722 -414 c 2,47,-1
 -597 -342 l 1,48,-1
 -722 -270 l 1,49,50
 -735 -261 -735 -261 -735 -252 c 0,51,52
 -735 -249 -735 -249 -733 -245 c 2,53,-1
 -717 -218 l 2,54,55
 -713 -210 -713 -210 -705 -210 c 0,56,57
 -699 -210 -699 -210 -690 -215 c 2,0,-1
EndSplineSet
Validated: 1
EndChar

StartChar: uni035A
Encoding: 858 858 178
Width: 0
Flags: W
LayerCount: 2
Fore
SplineSet
-691 -107 m 0,0,1
 -593 -107 -593 -107 -533 -189 c 1,2,3
 -474 -107 -474 -107 -375 -107 c 0,4,5
 -294 -107 -294 -107 -237 -165 c 128,-1,6
 -180 -223 -180 -223 -180 -307 c 0,7,8
 -180 -389 -180 -389 -237 -447.5 c 128,-1,9
 -294 -506 -294 -506 -375 -506 c 0,10,11
 -475 -506 -475 -506 -533 -424 c 1,12,13
 -592 -506 -592 -506 -691 -506 c 0,14,15
 -772 -506 -772 -506 -829.5 -447.5 c 128,-1,16
 -887 -389 -887 -389 -887 -307 c 0,17,18
 -887 -223 -887 -223 -829.5 -165 c 128,-1,19
 -772 -107 -772 -107 -691 -107 c 0,0,1
-384 -135 m 0,20,21
 -433 -135 -433 -135 -465 -185 c 0,22,23
 -494 -231 -494 -231 -494 -294 c 2,24,-1
 -494 -306 l 1,25,26
 -491 -377 -491 -377 -453 -427.5 c 128,-1,27
 -415 -478 -415 -478 -366 -478 c 0,28,29
 -316 -478 -316 -478 -283 -427 c 0,30,31
 -255 -383 -255 -383 -255 -321 c 2,32,-1
 -255 -306 l 1,33,34
 -258 -235 -258 -235 -296 -185 c 128,-1,35
 -334 -135 -334 -135 -384 -135 c 0,20,21
-700 -135 m 0,36,37
 -749 -135 -749 -135 -781 -185 c 0,38,39
 -810 -231 -810 -231 -810 -294 c 2,40,-1
 -810 -306 l 1,41,42
 -807 -377 -807 -377 -769 -427.5 c 128,-1,43
 -731 -478 -731 -478 -682 -478 c 0,44,45
 -632 -478 -632 -478 -599 -427 c 0,46,47
 -571 -383 -571 -383 -571 -321 c 2,48,-1
 -571 -306 l 1,49,50
 -574 -235 -574 -235 -611.5 -185 c 128,-1,51
 -649 -135 -649 -135 -700 -135 c 0,36,37
EndSplineSet
Validated: 1
EndChar

StartChar: uni035B
Encoding: 859 859 179
Width: 0
Flags: W
LayerCount: 2
Fore
SplineSet
-591 1347 m 1,0,-1
 -217 1347 l 2,1,2
 -207 1347 -207 1347 -207 1337 c 2,3,-1
 -207 1251 l 2,4,5
 -207 1227 -207 1227 -221 1195 c 0,6,7
 -245 1137 -245 1137 -323 1043 c 0,8,9
 -331 1033 -331 1033 -341 1029 c 0,10,11
 -348 1026 -348 1026 -354 1026 c 0,12,13
 -362 1026 -362 1026 -367 1032 c 0,14,15
 -371 1037 -371 1037 -371 1042 c 0,16,17
 -371 1048 -371 1048 -366 1054 c 0,18,19
 -316 1116 -316 1116 -307 1166 c 0,20,21
 -305 1177 -305 1177 -305 1188 c 0,22,23
 -305 1216 -305 1216 -318 1240 c 1,24,-1
 -690 1240 l 2,25,26
 -701 1240 -701 1240 -701 1251 c 2,27,-1
 -701 1327 l 2,28,29
 -701 1351 -701 1351 -686 1389 c 1,30,31
 -660 1448 -660 1448 -584 1541 c 1,32,33
 -574 1550 -574 1550 -566 1554 c 1,34,35
 -559 1556 -559 1556 -553 1556 c 0,36,37
 -545 1556 -545 1556 -539 1551 c 1,38,39
 -535 1546 -535 1546 -535 1541 c 256,40,41
 -535 1536 -535 1536 -541 1529 c 0,42,43
 -590 1466 -590 1466 -600 1417 c 0,44,45
 -602 1406 -602 1406 -602 1395 c 0,46,47
 -602 1369 -602 1369 -591 1347 c 1,0,-1
EndSplineSet
Validated: 1
EndChar

StartChar: uni035C
Encoding: 860 860 180
Width: 0
Flags: W
LayerCount: 2
Fore
SplineSet
-235 -437 m 1,0,1
 -383 -430 -383 -430 -462 -324 c 1,2,3
 -519 -244 -519 -244 -524 -139 c 1,4,-1
 -524 -137 l 2,5,6
 -524 -113 -524 -113 -498 -113 c 0,7,8
 -476 -113 -476 -113 -471 -139 c 1,9,10
 -430 -296 -430 -296 -237 -306 c 1,11,-1
 211 -306 l 1,12,13
 408 -301 408 -301 450 -139 c 0,14,15
 457 -113 457 -113 477 -113 c 0,16,17
 504 -113 504 -113 504 -137 c 2,18,-1
 504 -139 l 1,19,20
 497 -247 497 -247 441 -324 c 0,21,22
 362 -432 362 -432 210 -437 c 1,23,-1
 -235 -437 l 1,0,1
EndSplineSet
Validated: 1
EndChar

StartChar: uni035D
Encoding: 861 861 181
Width: 0
Flags: W
LayerCount: 2
Fore
SplineSet
-235 1092 m 1,0,1
 -381 1096 -381 1096 -462 1204 c 1,2,3
 -519 1283 -519 1283 -524 1389 c 1,4,-1
 -524 1391 l 2,5,6
 -524 1416 -524 1416 -498 1416 c 0,7,8
 -476 1416 -476 1416 -471 1389 c 1,9,10
 -429 1231 -429 1231 -237 1223 c 1,11,-1
 211 1223 l 1,12,13
 408 1226 408 1226 450 1389 c 0,14,15
 457 1416 457 1416 477 1416 c 0,16,17
 504 1416 504 1416 504 1391 c 2,18,-1
 504 1389 l 1,19,20
 497 1280 497 1280 441 1204 c 0,21,22
 360 1095 360 1095 210 1092 c 1,23,-1
 -235 1092 l 1,0,1
EndSplineSet
Validated: 1
EndChar

StartChar: uni035E
Encoding: 862 862 182
Width: 0
Flags: W
LayerCount: 2
Fore
SplineSet
-517 1347 m 2,0,-1
 503 1347 l 2,1,2
 513 1347 513 1347 513 1337 c 2,3,-1
 513 1251 l 2,4,5
 513 1240 513 1240 503 1240 c 2,6,-1
 -517 1240 l 2,7,8
 -528 1240 -528 1240 -528 1251 c 2,9,-1
 -528 1337 l 2,10,11
 -528 1347 -528 1347 -517 1347 c 2,0,-1
EndSplineSet
Validated: 1
EndChar

StartChar: uni035F
Encoding: 863 863 183
Width: 0
Flags: W
LayerCount: 2
Fore
SplineSet
-517 -221 m 2,0,-1
 503 -221 l 2,1,2
 513 -221 513 -221 513 -232 c 2,3,-1
 513 -318 l 2,4,5
 513 -328 513 -328 503 -328 c 2,6,-1
 -517 -328 l 2,7,8
 -528 -328 -528 -328 -528 -318 c 2,9,-1
 -528 -232 l 2,10,11
 -528 -221 -528 -221 -517 -221 c 2,0,-1
EndSplineSet
Validated: 1
EndChar

StartChar: uni0360
Encoding: 864 864 184
Width: 0
Flags: W
LayerCount: 2
Fore
SplineSet
517 1356 m 0,0,1
 450 1245 450 1245 385 1191 c 1,2,3
 316 1137 316 1137 242 1137 c 0,4,5
 113 1137 113 1137 -39 1221 c 1,6,7
 -125 1267 -125 1267 -200 1267 c 0,8,9
 -260 1267 -260 1267 -314 1238 c 0,10,11
 -327 1230 -327 1230 -346.5 1219.5 c 128,-1,12
 -366 1209 -366 1209 -389 1191 c 0,13,14
 -428 1160 -428 1160 -460 1118 c 0,15,16
 -467 1108 -467 1108 -479 1108 c 0,17,18
 -488 1108 -488 1108 -500 1114 c 0,19,20
 -515 1121 -515 1121 -515 1134 c 0,21,22
 -515 1143 -515 1143 -506 1156 c 0,23,24
 -452 1228 -452 1228 -396.5 1304 c 128,-1,25
 -341 1380 -341 1380 -224 1380 c 0,26,27
 -79 1380 -79 1380 66 1293 c 0,28,29
 144 1246 144 1246 221 1246 c 0,30,31
 288 1246 288 1246 355 1281 c 1,32,33
 416 1311 416 1311 466 1387 c 0,34,35
 474 1400 474 1400 489 1400 c 0,36,37
 493 1400 493 1400 496 1399 c 0,38,39
 517 1396 517 1396 522 1378 c 1,40,-1
 522 1374 l 2,41,42
 522 1364 522 1364 517 1356 c 0,0,1
EndSplineSet
Validated: 1
EndChar

StartChar: uni0361
Encoding: 865 865 185
Width: 0
Flags: W
LayerCount: 2
Fore
SplineSet
210 1416 m 1,0,1
 361 1412 361 1412 441 1304 c 0,2,3
 497 1227 497 1227 504 1119 c 1,4,-1
 504 1117 l 2,5,6
 504 1092 504 1092 477 1092 c 0,7,8
 457 1092 457 1092 450 1119 c 0,9,10
 408 1281 408 1281 211 1285 c 0,11,12
 208 1285 208 1285 100 1285.5 c 128,-1,13
 -8 1286 -8 1286 -11 1286 c 0,14,15
 -14 1285 -14 1285 -123 1285 c 2,16,-1
 -237 1285 l 1,17,18
 -429 1276 -429 1276 -471 1119 c 1,19,20
 -476 1092 -476 1092 -498 1092 c 0,21,22
 -524 1092 -524 1092 -524 1117 c 2,23,-1
 -524 1119 l 1,24,25
 -519 1224 -519 1224 -462 1304 c 1,26,27
 -382 1409 -382 1409 -235 1416 c 1,28,-1
 210 1416 l 1,0,1
EndSplineSet
Validated: 1
EndChar

StartChar: uni0362
Encoding: 866 866 186
Width: 0
Flags: W
LayerCount: 2
Fore
SplineSet
-536 -258 m 1,0,-1
 456 -258 l 1,1,-1
 432 -184 l 1,2,-1
 590 -300 l 1,3,-1
 432 -415 l 1,4,-1
 456 -341 l 1,5,-1
 -536 -341 l 1,6,-1
 -536 -258 l 1,0,-1
EndSplineSet
Validated: 1
EndChar

StartChar: uni0363
Encoding: 867 867 187
Width: 0
VWidth: 2205
Flags: W
LayerCount: 2
Fore
SplineSet
-565 1086 m 2,0,-1
 -591 1086 l 1,1,2
 -682 1090 -682 1090 -748 1149 c 256,3,4
 -825 1218 -825 1218 -825 1338 c 0,5,6
 -825 1366 -825 1366 -819 1402 c 128,-1,7
 -813 1438 -813 1438 -787.5 1473 c 128,-1,8
 -762 1508 -762 1508 -735 1525 c 128,-1,9
 -708 1542 -708 1542 -690 1548 c 1,10,11
 -475 1616 -475 1616 -464 1616 c 2,12,-1
 -461 1616 l 1,13,14
 -420 1614 -420 1614 -388 1605.5 c 128,-1,15
 -356 1597 -356 1597 -337 1590.5 c 128,-1,16
 -318 1584 -318 1584 -302 1584 c 128,-1,17
 -286 1584 -286 1584 -268 1605 c 0,18,19
 -265 1609 -265 1609 -260.5 1609 c 128,-1,20
 -256 1609 -256 1609 -247.5 1606 c 128,-1,21
 -239 1603 -239 1603 -239 1597 c 2,22,-1
 -239 1179 l 2,23,24
 -239 1144 -239 1144 -207 1134.5 c 128,-1,25
 -175 1125 -175 1125 -175 1112.5 c 128,-1,26
 -175 1100 -175 1100 -189 1100 c 2,27,-1
 -344 1100 l 2,28,29
 -355 1100 -355 1100 -355 1107 c 2,30,-1
 -355 1147 l 1,31,-1
 -531 1092 l 2,32,33
 -552 1086 -552 1086 -565 1086 c 2,0,-1
-503 1572 m 2,34,35
 -516 1572 -516 1572 -556.5 1559 c 128,-1,36
 -597 1546 -597 1546 -616.5 1540 c 128,-1,37
 -636 1534 -636 1534 -645 1525 c 0,38,39
 -685 1489 -685 1489 -697 1444.5 c 128,-1,40
 -709 1400 -709 1400 -709 1387 c 2,41,-1
 -709 1373 l 2,42,43
 -709 1371 -709 1371 -709 1370 c 0,44,45
 -709 1269 -709 1269 -663 1216 c 0,46,47
 -597 1140 -597 1140 -501 1140 c 0,48,49
 -476 1140 -476 1140 -446 1149.5 c 128,-1,50
 -416 1159 -416 1159 -355 1179 c 1,51,-1
 -355 1515 l 1,52,53
 -381 1536 -381 1536 -424 1553.5 c 128,-1,54
 -467 1571 -467 1571 -500 1572 c 1,55,-1
 -503 1572 l 2,34,35
EndSplineSet
Validated: 1
EndChar

StartChar: uni0364
Encoding: 868 868 188
Width: 0
VWidth: 2205
Flags: W
LayerCount: 2
Fore
SplineSet
-478 1618 m 2,0,1
 -352 1618 -352 1618 -285.5 1557 c 128,-1,2
 -219 1496 -219 1496 -219 1398 c 1,3,4
 -220 1376 -220 1376 -221 1367 c 128,-1,5
 -222 1358 -222 1358 -247 1358 c 2,6,-1
 -655 1358 l 1,7,8
 -653 1271 -653 1271 -602.5 1213.5 c 128,-1,9
 -552 1156 -552 1156 -475 1143 c 0,10,11
 -453 1139 -453 1139 -430 1138 c 0,12,13
 -369 1138 -369 1138 -318 1161.5 c 128,-1,14
 -267 1185 -267 1185 -259 1185 c 128,-1,15
 -251 1185 -251 1185 -249 1183.5 c 128,-1,16
 -247 1182 -247 1182 -247 1177 c 128,-1,17
 -247 1172 -247 1172 -255 1159 c 128,-1,18
 -263 1146 -263 1146 -268 1141.5 c 128,-1,19
 -273 1137 -273 1137 -277 1134 c 0,20,21
 -347 1083 -347 1083 -466 1083 c 1,22,23
 -634 1084 -634 1084 -718 1174 c 0,24,25
 -782 1242 -782 1242 -782 1335 c 0,26,27
 -782 1367 -782 1367 -777 1398 c 0,28,29
 -759 1498 -759 1498 -682.5 1557.5 c 128,-1,30
 -606 1617 -606 1617 -481 1618 c 1,31,-1
 -478 1618 l 2,0,1
-318 1398 m 1,32,33
 -318 1464 -318 1464 -352.5 1517.5 c 128,-1,34
 -387 1571 -387 1571 -477 1571 c 2,35,-1
 -484 1571 l 1,36,37
 -574 1569 -574 1569 -613 1516 c 128,-1,38
 -652 1463 -652 1463 -655 1398 c 1,39,-1
 -318 1398 l 1,32,33
EndSplineSet
Validated: 1
EndChar

StartChar: uni0365
Encoding: 869 869 189
Width: 0
VWidth: 2205
Flags: W
LayerCount: 2
Fore
SplineSet
-514 1856 m 0,0,1
 -444 1856 -444 1856 -443 1797 c 0,2,3
 -443 1737 -443 1737 -514 1737 c 0,4,5
 -584 1737 -584 1737 -584 1797 c 0,6,7
 -584 1856 -584 1856 -514 1856 c 0,0,1
-443 1179 m 2,8,9
 -443 1144 -443 1144 -411 1134 c 0,10,11
 -379 1125 -379 1125 -379 1112 c 0,12,13
 -379 1100 -379 1100 -392 1100 c 2,14,-1
 -609 1100 l 2,15,16
 -622 1100 -622 1100 -622 1112 c 0,17,18
 -622 1124 -622 1124 -590 1134 c 0,19,20
 -558 1143 -558 1143 -558 1179 c 2,21,-1
 -558 1524 l 2,22,23
 -558 1558 -558 1558 -590 1568 c 0,24,25
 -622 1578 -622 1578 -622 1592 c 0,26,27
 -622 1603 -622 1603 -609 1603 c 0,28,29
 -567 1605 -567 1605 -525 1614 c 0,30,31
 -484 1623 -484 1623 -443 1636 c 1,32,-1
 -443 1179 l 2,8,9
EndSplineSet
Validated: 1
EndChar

StartChar: uni0366
Encoding: 870 870 190
Width: 0
VWidth: 2205
Flags: W
LayerCount: 2
Fore
SplineSet
-186 1348 m 2,0,1
 -186 1240 -186 1240 -277.5 1165 c 128,-1,2
 -369 1090 -369 1090 -501 1086 c 1,3,-1
 -511 1086 l 2,4,5
 -634 1086 -634 1086 -724.5 1164 c 128,-1,6
 -815 1242 -815 1242 -815 1349 c 2,7,-1
 -815 1351 l 1,8,9
 -814 1469 -814 1469 -710 1550 c 0,10,11
 -698 1560 -698 1560 -674 1567 c 128,-1,12
 -650 1574 -650 1574 -612 1585.5 c 128,-1,13
 -574 1597 -574 1597 -541 1606.5 c 128,-1,14
 -508 1616 -508 1616 -488 1616 c 2,15,-1
 -486 1616 l 1,16,17
 -361 1612 -361 1612 -274.5 1535 c 128,-1,18
 -188 1458 -188 1458 -186 1351 c 1,19,-1
 -186 1348 l 2,0,1
-507 1580 m 2,20,21
 -582 1580 -582 1580 -637 1517 c 128,-1,22
 -692 1454 -692 1454 -692 1360 c 256,23,24
 -692 1266 -692 1266 -636 1196 c 128,-1,25
 -580 1126 -580 1126 -500 1123 c 1,26,-1
 -491 1123 l 2,27,28
 -417 1123 -417 1123 -362 1185.5 c 128,-1,29
 -307 1248 -307 1248 -307 1343 c 256,30,31
 -307 1437 -307 1437 -363.5 1506.5 c 128,-1,32
 -420 1576 -420 1576 -499 1580 c 1,33,-1
 -507 1580 l 2,20,21
EndSplineSet
Validated: 1
EndChar

